{"glyphs":{"0":{"ha":925,"x_min":35,"x_max":890,"o":"m 463 -14 q 215 40 308 -14 q 78 196 121 93 q 35 447 35 299 q 78 699 35 596 q 215 855 121 801 q 463 908 308 908 q 792 790 693 908 q 890 447 890 671 q 792 106 890 225 q 463 -14 693 -14 m 463 208 q 588 269 553 208 q 624 447 624 329 q 588 626 624 567 q 463 686 553 686 q 337 626 372 686 q 301 447 301 567 q 337 269 301 329 q 463 208 372 208 z "},"1":{"ha":507,"x_min":35,"x_max":444,"o":"m 183 0 l 183 653 l 35 631 l 35 849 l 444 908 l 444 0 l 183 0 z "},"2":{"ha":725,"x_min":35,"x_max":690,"o":"m 35 0 l 35 119 q 129 251 74 193 q 253 371 185 310 q 345 456 310 422 q 398 519 381 489 q 415 588 415 549 q 286 686 415 686 q 170 672 226 686 q 64 638 114 658 l 64 860 q 197 895 121 882 q 351 908 274 908 q 600 830 518 908 q 682 619 682 751 q 667 512 682 557 q 622 429 653 467 q 543 349 592 392 q 458 274 500 311 q 392 200 417 236 l 690 200 l 690 0 l 35 0 z "},"3":{"ha":742,"x_min":35,"x_max":707,"o":"m 328 -14 q 233 -8 289 -14 q 124 10 178 -1 q 35 35 71 21 l 35 243 q 163 205 94 217 q 286 193 231 193 q 402 213 364 193 q 440 285 440 232 q 318 363 440 363 l 167 363 l 183 538 l 310 538 q 397 557 371 538 q 424 619 424 576 q 390 681 424 660 q 279 701 356 701 q 156 688 218 701 q 49 651 93 674 l 49 858 q 176 894 100 879 q 329 908 253 908 q 526 875 446 908 q 649 783 607 842 q 690 650 690 725 q 666 533 690 586 q 594 450 642 481 q 707 263 707 403 q 658 106 707 167 q 523 15 608 44 q 328 -14 438 -14 z "},"4":{"ha":763,"x_min":7,"x_max":756,"o":"m 414 0 l 414 168 l 7 168 l 7 339 l 449 894 l 675 894 l 675 379 l 756 379 l 756 168 l 675 168 l 675 0 l 414 0 m 258 368 l 460 368 l 460 611 l 258 368 z "},"5":{"ha":728,"x_min":35,"x_max":693,"o":"m 321 -14 q 230 -9 282 -14 q 127 6 178 -4 q 39 33 76 17 l 39 243 q 116 217 72 228 q 204 200 160 206 q 279 194 249 194 q 391 218 356 194 q 426 293 426 242 q 401 363 426 342 q 307 385 376 385 l 35 385 l 35 504 l 58 894 l 638 894 l 619 694 l 282 694 l 274 567 l 375 567 q 615 494 538 567 q 693 283 693 422 q 601 68 693 150 q 321 -14 508 -14 z "},"6":{"ha":818,"x_min":35,"x_max":783,"o":"m 411 -14 q 35 349 35 -14 l 35 521 q 85 719 35 632 q 229 858 135 807 q 457 908 324 908 q 587 899 531 908 q 694 871 643 890 l 694 668 q 595 698 647 689 q 482 707 543 707 q 331 669 382 707 q 279 575 279 631 l 279 550 q 368 586 315 574 q 467 599 421 599 q 708 522 632 599 q 783 300 783 444 q 746 138 783 210 q 626 26 708 67 q 411 -14 544 -14 m 413 171 q 516 202 482 171 q 550 290 550 233 q 520 381 550 350 q 415 413 490 413 q 346 401 381 413 q 279 371 311 390 l 279 306 q 313 203 279 236 q 413 171 346 171 z "},"7":{"ha":692,"x_min":21,"x_max":671,"o":"m 83 0 l 378 694 l 21 694 l 21 894 l 671 894 l 671 744 l 356 0 l 83 0 z "},"8":{"ha":847,"x_min":35,"x_max":813,"o":"m 422 -14 q 128 56 222 -14 q 35 260 35 125 q 66 381 35 325 q 151 463 97 436 q 81 538 104 492 q 57 635 57 583 q 143 834 57 760 q 422 908 229 908 q 636 875 556 908 q 753 780 717 842 q 790 635 790 718 q 767 535 790 583 q 693 456 743 486 q 813 260 813 396 q 718 56 813 125 q 422 -14 624 -14 m 457 528 q 522 565 501 543 q 542 629 542 588 q 422 719 542 719 q 304 629 304 719 q 379 543 304 558 l 457 528 m 422 174 q 530 197 496 174 q 564 265 564 219 q 542 326 564 306 q 468 358 519 347 l 374 378 q 307 344 332 368 q 282 274 282 321 q 422 174 282 174 z "},"9":{"ha":818,"x_min":35,"x_max":783,"o":"m 361 -14 q 231 -6 286 -14 q 124 21 176 1 l 124 224 q 223 194 172 203 q 336 186 274 186 q 489 225 439 186 q 539 318 539 264 l 539 344 q 451 308 504 322 q 351 294 397 294 q 110 372 186 294 q 35 593 35 450 q 72 756 35 685 q 192 868 110 828 q 407 908 274 908 q 692 817 601 908 q 783 546 783 726 l 783 374 q 733 174 783 263 q 588 36 682 86 q 361 -14 493 -14 m 401 481 q 472 493 436 481 q 539 524 508 506 l 539 588 q 506 691 539 658 q 404 724 474 724 q 302 692 336 724 q 268 603 268 660 q 297 513 268 544 q 401 481 326 481 z "},"A":{"ha":1032,"x_min":35,"x_max":997,"o":"m 35 0 l 378 894 l 654 894 l 997 0 l 725 0 l 650 190 l 381 190 l 307 0 l 35 0 m 415 378 l 615 378 l 515 640 l 415 378 z "},"Á":{"ha":1032,"x_min":35,"x_max":997,"o":"m 415 956 l 538 1242 l 740 1242 l 607 956 l 415 956 m 35 0 l 378 894 l 654 894 l 997 0 l 725 0 l 650 190 l 381 190 l 307 0 l 35 0 m 415 378 l 615 378 l 515 640 l 415 378 z "},"Ă":{"ha":1032,"x_min":35,"x_max":997,"o":"m 515 957 q 325 1024 397 957 q 253 1217 253 1090 l 422 1217 q 442 1133 422 1165 q 515 1100 463 1100 q 589 1133 568 1100 q 610 1217 610 1165 l 779 1217 q 707 1024 779 1090 q 515 957 635 957 m 35 0 l 378 894 l 654 894 l 997 0 l 725 0 l 650 190 l 381 190 l 307 0 l 35 0 m 415 378 l 615 378 l 515 640 l 415 378 z "},"Ắ":{"ha":1032,"x_min":35,"x_max":997,"o":"m 440 1189 l 532 1407 l 706 1407 l 590 1189 l 440 1189 m 517 956 q 335 1013 406 956 q 264 1194 264 1069 l 410 1194 q 438 1114 410 1144 q 517 1083 465 1083 q 596 1114 569 1083 q 622 1194 622 1144 l 768 1194 q 698 1013 768 1069 q 517 956 628 956 m 35 0 l 378 894 l 654 894 l 997 0 l 725 0 l 650 190 l 381 190 l 307 0 l 35 0 m 415 378 l 615 378 l 515 640 l 415 378 z "},"Ặ":{"ha":1032,"x_min":35,"x_max":997,"o":"m 515 956 q 325 1022 397 956 q 253 1215 253 1089 l 422 1215 q 442 1131 422 1164 q 515 1099 463 1099 q 589 1131 568 1099 q 610 1215 610 1164 l 779 1215 q 707 1022 779 1089 q 515 956 635 956 m 35 0 l 378 894 l 654 894 l 997 0 l 725 0 l 650 190 l 381 190 l 307 0 l 35 0 m 415 378 l 615 378 l 515 640 l 415 378 m 425 -244 l 425 -78 l 606 -78 l 606 -244 l 425 -244 z "},"Ằ":{"ha":1032,"x_min":35,"x_max":997,"o":"m 440 1189 l 325 1407 l 499 1407 l 590 1189 l 440 1189 m 514 956 q 333 1013 403 956 q 263 1194 263 1069 l 408 1194 q 435 1114 408 1144 q 514 1083 463 1083 q 594 1114 567 1083 q 621 1194 621 1144 l 767 1194 q 696 1013 767 1069 q 514 956 625 956 m 35 0 l 378 894 l 654 894 l 997 0 l 725 0 l 650 190 l 381 190 l 307 0 l 35 0 m 415 378 l 615 378 l 515 640 l 415 378 z "},"Ẳ":{"ha":1032,"x_min":35,"x_max":997,"o":"m 429 1196 l 429 1282 q 510 1298 488 1285 q 533 1333 533 1311 q 517 1365 533 1357 q 468 1372 500 1372 q 430 1369 449 1372 q 397 1360 411 1365 l 397 1453 q 539 1471 451 1471 q 659 1437 617 1471 q 701 1351 701 1403 q 677 1278 701 1304 q 597 1238 653 1251 l 597 1196 l 429 1196 m 514 956 q 333 1013 403 956 q 263 1194 263 1069 l 408 1194 q 435 1114 408 1144 q 514 1083 463 1083 q 594 1114 567 1083 q 621 1194 621 1144 l 767 1194 q 696 1013 767 1069 q 514 956 625 956 m 35 0 l 378 894 l 654 894 l 997 0 l 725 0 l 650 190 l 381 190 l 307 0 l 35 0 m 415 378 l 615 378 l 515 640 l 415 378 z "},"Ẵ":{"ha":1032,"x_min":35,"x_max":997,"o":"m 646 1219 q 560 1234 603 1219 q 478 1263 518 1249 q 401 1276 439 1276 q 326 1263 358 1276 q 269 1224 293 1249 l 269 1365 q 324 1397 289 1385 q 397 1410 358 1410 q 483 1396 443 1410 q 561 1367 522 1382 q 642 1353 600 1353 q 717 1368 685 1353 q 765 1407 749 1383 l 765 1264 q 719 1233 751 1246 q 646 1219 686 1219 m 514 956 q 333 1013 403 956 q 263 1194 263 1069 l 408 1194 q 435 1114 408 1144 q 514 1083 463 1083 q 594 1114 567 1083 q 621 1194 621 1144 l 767 1194 q 696 1013 767 1069 q 514 956 625 956 m 35 0 l 378 894 l 654 894 l 997 0 l 725 0 l 650 190 l 381 190 l 307 0 l 35 0 m 415 378 l 615 378 l 515 640 l 415 378 z "},"Ǎ":{"ha":1032,"x_min":35,"x_max":997,"o":"m 436 956 l 221 1233 l 415 1233 l 515 1082 l 621 1233 l 810 1233 l 594 956 l 436 956 m 35 0 l 378 894 l 654 894 l 997 0 l 725 0 l 650 190 l 381 190 l 307 0 l 35 0 m 415 378 l 615 378 l 515 640 l 415 378 z "},"Â":{"ha":1032,"x_min":35,"x_max":997,"o":"m 221 956 l 436 1233 l 594 1233 l 810 956 l 621 956 l 515 1106 l 415 956 l 221 956 m 35 0 l 378 894 l 654 894 l 997 0 l 725 0 l 650 190 l 381 190 l 307 0 l 35 0 m 415 378 l 615 378 l 515 640 l 415 378 z "},"Ấ":{"ha":1032,"x_min":35,"x_max":997,"o":"m 683 1129 l 782 1346 l 975 1346 l 867 1129 l 683 1129 m 221 956 l 418 1167 l 610 1167 l 807 956 l 600 956 l 514 1065 l 428 956 l 221 956 m 35 0 l 378 894 l 654 894 l 997 0 l 725 0 l 650 190 l 381 190 l 307 0 l 35 0 m 415 378 l 615 378 l 515 640 l 415 378 z "},"Ậ":{"ha":1032,"x_min":35,"x_max":997,"o":"m 221 956 l 436 1233 l 594 1233 l 810 956 l 621 956 l 515 1106 l 415 956 l 221 956 m 35 0 l 378 894 l 654 894 l 997 0 l 725 0 l 650 190 l 381 190 l 307 0 l 35 0 m 415 378 l 615 378 l 515 640 l 415 378 m 425 -244 l 425 -78 l 606 -78 l 606 -244 l 425 -244 z "},"Ầ":{"ha":1032,"x_min":35,"x_max":997,"o":"m 167 1128 l 58 1344 l 251 1344 l 350 1128 l 167 1128 m 226 954 l 424 1165 l 615 1165 l 813 954 l 606 954 l 519 1064 l 433 954 l 226 954 m 35 0 l 378 894 l 654 894 l 997 0 l 725 0 l 650 190 l 381 190 l 307 0 l 35 0 m 415 378 l 615 378 l 515 640 l 415 378 z "},"Ẩ":{"ha":1032,"x_min":35,"x_max":997,"o":"m 697 1097 l 697 1199 q 778 1212 758 1200 q 797 1242 797 1224 q 739 1272 797 1272 q 701 1269 719 1272 q 668 1263 683 1267 l 668 1363 q 729 1374 693 1369 q 806 1379 765 1379 q 931 1347 890 1379 q 972 1260 972 1315 q 948 1182 972 1213 q 871 1143 924 1151 l 871 1097 l 697 1097 m 221 956 l 418 1167 l 610 1167 l 807 956 l 600 956 l 514 1065 l 428 956 l 221 956 m 35 0 l 378 894 l 654 894 l 997 0 l 725 0 l 650 190 l 381 190 l 307 0 l 35 0 m 415 378 l 615 378 l 515 640 l 415 378 z "},"Ẫ":{"ha":1032,"x_min":35,"x_max":997,"o":"m 654 1188 q 569 1202 611 1188 q 487 1231 526 1217 q 410 1244 447 1244 q 334 1231 367 1244 q 278 1192 301 1217 l 278 1338 q 332 1369 297 1357 q 406 1382 367 1382 q 491 1368 451 1382 q 569 1340 531 1354 q 650 1325 608 1325 q 725 1340 693 1325 q 774 1379 757 1356 l 774 1232 q 727 1201 760 1214 q 654 1188 694 1188 m 222 956 l 419 1167 l 611 1167 l 808 956 l 601 956 l 515 1065 l 429 956 l 222 956 m 35 0 l 378 894 l 654 894 l 997 0 l 725 0 l 650 190 l 381 190 l 307 0 l 35 0 m 415 378 l 615 378 l 515 640 l 415 378 z "},"Ä":{"ha":1032,"x_min":35,"x_max":997,"o":"m 275 992 l 275 1158 l 457 1158 l 457 992 l 275 992 m 575 992 l 575 1158 l 757 1158 l 757 992 l 575 992 m 35 0 l 378 894 l 654 894 l 997 0 l 725 0 l 650 190 l 381 190 l 307 0 l 35 0 m 415 378 l 615 378 l 515 640 l 415 378 z "},"Ạ":{"ha":1032,"x_min":35,"x_max":997,"o":"m 35 0 l 378 894 l 654 894 l 997 0 l 725 0 l 650 190 l 381 190 l 307 0 l 35 0 m 415 378 l 615 378 l 515 640 l 415 378 m 424 -244 l 424 -78 l 604 -78 l 604 -244 l 424 -244 z "},"À":{"ha":1032,"x_min":35,"x_max":997,"o":"m 418 956 l 283 1242 l 488 1242 l 610 956 l 418 956 m 35 0 l 378 894 l 654 894 l 997 0 l 725 0 l 650 190 l 381 190 l 307 0 l 35 0 m 415 378 l 615 378 l 515 640 l 415 378 z "},"Ả":{"ha":1032,"x_min":35,"x_max":997,"o":"m 417 956 l 417 1068 q 514 1088 489 1072 q 539 1129 539 1103 q 456 1175 539 1175 q 413 1172 436 1175 q 374 1164 390 1168 l 374 1272 q 533 1292 435 1292 q 678 1252 628 1292 q 729 1151 729 1213 q 699 1060 729 1092 q 613 1013 669 1029 l 613 956 l 417 956 m 35 0 l 378 894 l 654 894 l 997 0 l 725 0 l 650 190 l 381 190 l 307 0 l 35 0 m 415 378 l 615 378 l 515 640 l 415 378 z "},"Ā":{"ha":1032,"x_min":35,"x_max":997,"o":"m 288 975 l 288 1131 l 743 1131 l 743 975 l 288 975 m 35 0 l 378 894 l 654 894 l 997 0 l 725 0 l 650 190 l 381 190 l 307 0 l 35 0 m 415 378 l 615 378 l 515 640 l 415 378 z "},"Ą":{"ha":1032,"x_min":35,"x_max":997,"o":"m 35 0 l 378 894 l 654 894 l 997 0 l 933 0 q 876 -57 899 -26 q 853 -124 853 -87 q 913 -179 853 -179 q 950 -175 931 -179 q 982 -164 969 -171 l 982 -283 q 922 -299 961 -292 q 840 -306 883 -306 q 709 -273 761 -306 q 657 -171 657 -240 q 685 -74 657 -118 q 760 0 714 -29 l 725 0 l 650 190 l 381 190 l 307 0 l 35 0 m 415 378 l 615 378 l 515 640 l 415 378 z "},"Å":{"ha":1032,"x_min":35,"x_max":997,"o":"m 35 0 l 371 875 q 322 1003 322 925 q 373 1133 322 1081 q 515 1186 424 1186 q 658 1133 608 1186 q 708 1003 708 1081 q 661 876 708 926 l 997 0 l 725 0 l 650 190 l 381 190 l 307 0 l 35 0 m 515 928 q 574 950 554 928 q 593 1003 593 972 q 574 1056 593 1033 q 515 1078 554 1078 q 458 1056 478 1078 q 438 1003 438 1033 q 458 950 438 972 q 515 928 478 928 m 415 378 l 615 378 l 515 640 l 415 378 z "},"Ǻ":{"ha":1032,"x_min":35,"x_max":997,"o":"m 403 1222 l 525 1479 l 728 1479 l 594 1222 l 403 1222 m 35 0 l 371 875 q 322 1003 322 925 q 373 1133 322 1081 q 515 1186 424 1186 q 658 1133 608 1186 q 708 1003 708 1081 q 661 876 708 926 l 997 0 l 725 0 l 650 190 l 381 190 l 307 0 l 35 0 m 515 928 q 574 950 554 928 q 593 1003 593 972 q 574 1056 593 1033 q 515 1078 554 1078 q 458 1056 478 1078 q 438 1003 438 1033 q 458 950 438 972 q 515 928 478 928 m 415 378 l 615 378 l 515 640 l 415 378 z "},"Ã":{"ha":1032,"x_min":35,"x_max":997,"o":"m 650 960 q 561 974 604 960 q 478 1003 518 989 q 399 1018 438 1018 q 322 1003 356 1018 q 263 964 288 989 l 263 1128 q 318 1160 282 1147 q 394 1174 354 1174 q 482 1159 442 1174 q 563 1130 522 1144 q 646 1115 603 1115 q 722 1131 690 1115 q 771 1171 754 1147 l 771 1006 q 724 974 757 988 q 650 960 690 960 m 35 0 l 378 894 l 654 894 l 997 0 l 725 0 l 650 190 l 381 190 l 307 0 l 35 0 m 415 378 l 615 378 l 515 640 l 415 378 z "},"Æ":{"ha":1193,"x_min":35,"x_max":1158,"o":"m 35 0 l 378 894 l 1158 894 l 1158 694 l 814 694 l 814 549 l 1107 549 l 1107 346 l 814 346 l 814 200 l 1158 200 l 1158 0 l 558 0 l 558 192 l 385 192 l 311 0 l 35 0 m 435 394 l 558 394 l 558 694 l 550 694 l 435 394 z "},"Ǽ":{"ha":1193,"x_min":35,"x_max":1158,"o":"m 579 956 l 701 1242 l 904 1242 l 771 956 l 579 956 m 35 0 l 378 894 l 1158 894 l 1158 694 l 814 694 l 814 549 l 1107 549 l 1107 346 l 814 346 l 814 200 l 1158 200 l 1158 0 l 558 0 l 558 192 l 385 192 l 311 0 l 35 0 m 435 394 l 558 394 l 558 694 l 550 694 l 435 394 z "},"B":{"ha":899,"x_min":63,"x_max":864,"o":"m 63 0 l 63 894 l 554 894 q 761 831 690 894 q 832 647 832 767 q 806 531 832 578 q 739 456 781 483 q 830 391 796 433 q 864 265 864 349 q 786 69 864 139 q 565 0 708 0 l 63 0 m 314 538 l 483 538 q 579 624 579 538 q 556 689 579 667 q 476 711 533 711 l 314 711 l 314 538 m 314 182 l 494 182 q 572 204 547 182 q 597 278 597 226 q 572 343 597 321 q 489 365 547 365 l 314 365 l 314 182 z "},"C":{"ha":843,"x_min":35,"x_max":808,"o":"m 533 -14 q 163 106 290 -14 q 35 443 35 225 q 160 788 35 668 q 532 908 285 908 q 681 896 615 908 q 806 861 746 883 l 806 633 q 550 686 686 686 q 363 628 424 686 q 301 443 301 571 q 366 263 301 318 q 553 208 431 208 q 683 221 619 208 q 808 260 746 233 l 808 31 q 683 -2 749 10 q 533 -14 617 -14 z "},"Ć":{"ha":843,"x_min":35,"x_max":808,"o":"m 414 956 l 536 1242 l 739 1242 l 606 956 l 414 956 m 533 -14 q 163 106 290 -14 q 35 443 35 225 q 160 788 35 668 q 532 908 285 908 q 681 896 615 908 q 806 861 746 883 l 806 633 q 550 686 686 686 q 363 628 424 686 q 301 443 301 571 q 366 263 301 318 q 553 208 431 208 q 683 221 619 208 q 808 260 746 233 l 808 31 q 683 -2 749 10 q 533 -14 617 -14 z "},"Č":{"ha":843,"x_min":35,"x_max":808,"o":"m 425 956 l 210 1233 l 404 1233 l 504 1082 l 610 1233 l 799 1233 l 583 956 l 425 956 m 533 -14 q 163 106 290 -14 q 35 443 35 225 q 160 788 35 668 q 532 908 285 908 q 681 896 615 908 q 806 861 746 883 l 806 633 q 550 686 686 686 q 363 628 424 686 q 301 443 301 571 q 366 263 301 318 q 553 208 431 208 q 683 221 619 208 q 808 260 746 233 l 808 31 q 683 -2 749 10 q 533 -14 617 -14 z "},"Ç":{"ha":843,"x_min":35,"x_max":808,"o":"m 511 -333 q 449 -330 486 -333 q 397 -322 413 -326 l 397 -219 q 479 -231 438 -231 q 556 -220 532 -231 q 579 -183 579 -210 q 558 -148 579 -156 q 504 -140 538 -140 l 417 -140 l 454 -10 q 142 126 249 8 q 35 443 35 243 q 160 788 35 668 q 532 908 285 908 q 681 896 615 908 q 806 861 746 883 l 806 633 q 550 686 686 686 q 363 628 424 686 q 301 443 301 571 q 366 263 301 318 q 553 208 431 208 q 683 221 619 208 q 808 260 746 233 l 808 31 q 708 3 760 14 q 596 -12 657 -8 l 579 -57 q 698 -94 661 -57 q 735 -187 735 -131 q 680 -294 735 -256 q 511 -333 625 -333 z "},"Ĉ":{"ha":843,"x_min":35,"x_max":808,"o":"m 189 956 l 404 1233 l 563 1233 l 778 956 l 589 956 l 483 1106 l 383 956 l 189 956 m 533 -14 q 163 106 290 -14 q 35 443 35 225 q 160 788 35 668 q 532 908 285 908 q 681 896 615 908 q 806 861 746 883 l 806 633 q 550 686 686 686 q 363 628 424 686 q 301 443 301 571 q 366 263 301 318 q 553 208 431 208 q 683 221 619 208 q 808 260 746 233 l 808 31 q 683 -2 749 10 q 533 -14 617 -14 z "},"Ċ":{"ha":843,"x_min":35,"x_max":808,"o":"m 411 993 l 411 1160 l 592 1160 l 592 993 l 411 993 m 533 -14 q 163 106 290 -14 q 35 443 35 225 q 160 788 35 668 q 532 908 285 908 q 681 896 615 908 q 806 861 746 883 l 806 633 q 550 686 686 686 q 363 628 424 686 q 301 443 301 571 q 366 263 301 318 q 553 208 431 208 q 683 221 619 208 q 808 260 746 233 l 808 31 q 683 -2 749 10 q 533 -14 617 -14 z "},"D":{"ha":932,"x_min":63,"x_max":897,"o":"m 63 0 l 63 894 l 463 894 q 697 849 600 894 q 846 705 794 804 q 897 442 897 606 q 785 106 897 211 q 463 0 672 0 l 63 0 m 324 200 l 429 200 q 539 219 494 200 q 607 290 583 238 q 631 442 631 342 q 609 597 631 542 q 543 673 588 651 q 429 694 499 694 l 324 694 l 324 200 z "},"Ð":{"ha":986,"x_min":7,"x_max":951,"o":"m 117 0 l 117 349 l 7 349 l 7 528 l 117 528 l 117 894 l 517 894 q 751 849 654 894 q 900 705 849 804 q 951 442 951 606 q 839 106 951 211 q 517 0 726 0 l 117 0 m 378 200 l 483 200 q 593 219 549 200 q 661 290 638 238 q 685 442 685 342 q 663 597 685 542 q 597 673 642 651 q 483 694 553 694 l 378 694 l 378 528 l 519 528 l 519 349 l 378 349 l 378 200 z "},"Ď":{"ha":932,"x_min":63,"x_max":897,"o":"m 332 956 l 117 1233 l 311 1233 l 411 1082 l 517 1233 l 706 1233 l 490 956 l 332 956 m 63 0 l 63 894 l 463 894 q 697 849 600 894 q 846 705 794 804 q 897 442 897 606 q 785 106 897 211 q 463 0 672 0 l 63 0 m 324 200 l 429 200 q 539 219 494 200 q 607 290 583 238 q 631 442 631 342 q 609 597 631 542 q 543 673 588 651 q 429 694 499 694 l 324 694 l 324 200 z "},"Đ":{"ha":972,"x_min":-7,"x_max":938,"o":"m 103 0 l 103 349 l -7 349 l -7 528 l 103 528 l 103 894 l 503 894 q 738 849 640 894 q 886 705 835 804 q 938 442 938 606 q 825 106 938 211 q 503 0 713 0 l 103 0 m 364 200 l 469 200 q 579 219 535 200 q 647 290 624 238 q 671 442 671 342 q 649 597 671 542 q 583 673 628 651 q 469 694 539 694 l 364 694 l 364 528 l 506 528 l 506 349 l 364 349 l 364 200 z "},"Ḍ":{"ha":932,"x_min":63,"x_max":897,"o":"m 63 0 l 63 894 l 463 894 q 697 849 600 894 q 846 705 794 804 q 897 442 897 606 q 785 106 897 211 q 463 0 672 0 l 63 0 m 324 200 l 429 200 q 539 219 494 200 q 607 290 583 238 q 631 442 631 342 q 609 597 631 542 q 543 673 588 651 q 429 694 499 694 l 324 694 l 324 200 m 299 -274 l 299 -107 l 479 -107 l 479 -274 l 299 -274 z "},"Ḏ":{"ha":932,"x_min":63,"x_max":897,"o":"m 63 0 l 63 894 l 463 894 q 697 849 600 894 q 846 705 794 804 q 897 442 897 606 q 785 106 897 211 q 463 0 672 0 l 63 0 m 324 200 l 429 200 q 539 219 494 200 q 607 290 583 238 q 631 442 631 342 q 609 597 631 542 q 543 673 588 651 q 429 694 499 694 l 324 694 l 324 200 m 226 -244 l 226 -89 l 682 -89 l 682 -244 l 226 -244 z "},"E":{"ha":761,"x_min":63,"x_max":740,"o":"m 63 0 l 63 894 l 740 894 l 740 694 l 324 694 l 324 549 l 689 549 l 689 346 l 324 346 l 324 200 l 740 200 l 740 0 l 63 0 z "},"É":{"ha":761,"x_min":63,"x_max":740,"o":"m 279 956 l 401 1242 l 604 1242 l 471 956 l 279 956 m 63 0 l 63 894 l 740 894 l 740 694 l 324 694 l 324 549 l 689 549 l 689 346 l 324 346 l 324 200 l 740 200 l 740 0 l 63 0 z "},"Ĕ":{"ha":761,"x_min":63,"x_max":740,"o":"m 406 957 q 215 1024 288 957 q 143 1217 143 1090 l 313 1217 q 333 1133 313 1165 q 406 1100 353 1100 q 479 1133 458 1100 q 500 1217 500 1165 l 669 1217 q 597 1024 669 1090 q 406 957 525 957 m 63 0 l 63 894 l 740 894 l 740 694 l 324 694 l 324 549 l 689 549 l 689 346 l 324 346 l 324 200 l 740 200 l 740 0 l 63 0 z "},"Ě":{"ha":761,"x_min":63,"x_max":740,"o":"m 332 956 l 117 1233 l 311 1233 l 411 1082 l 517 1233 l 706 1233 l 490 956 l 332 956 m 63 0 l 63 894 l 740 894 l 740 694 l 324 694 l 324 549 l 689 549 l 689 346 l 324 346 l 324 200 l 740 200 l 740 0 l 63 0 z "},"Ê":{"ha":761,"x_min":63,"x_max":740,"o":"m 108 956 l 324 1233 l 482 1233 l 697 956 l 508 956 l 403 1106 l 303 956 l 108 956 m 63 0 l 63 894 l 740 894 l 740 694 l 324 694 l 324 549 l 689 549 l 689 346 l 324 346 l 324 200 l 740 200 l 740 0 l 63 0 z "},"Ế":{"ha":761,"x_min":63,"x_max":835,"o":"m 543 1129 l 642 1346 l 835 1346 l 726 1129 l 543 1129 m 81 956 l 278 1167 l 469 1167 l 667 956 l 460 956 l 374 1065 l 288 956 l 81 956 m 63 0 l 63 894 l 740 894 l 740 694 l 324 694 l 324 549 l 689 549 l 689 346 l 324 346 l 324 200 l 740 200 l 740 0 l 63 0 z "},"Ệ":{"ha":761,"x_min":63,"x_max":740,"o":"m 96 956 l 311 1233 l 469 1233 l 685 956 l 496 956 l 390 1106 l 290 956 l 96 956 m 63 0 l 63 894 l 740 894 l 740 694 l 324 694 l 324 549 l 689 549 l 689 346 l 324 346 l 324 200 l 740 200 l 740 0 l 63 0 m 300 -244 l 300 -78 l 481 -78 l 481 -244 l 300 -244 z "},"Ề":{"ha":761,"x_min":-68,"x_max":740,"o":"m 40 1129 l -68 1346 l 125 1346 l 224 1129 l 40 1129 m 100 956 l 297 1167 l 489 1167 l 686 956 l 479 956 l 393 1065 l 307 956 l 100 956 m 63 0 l 63 894 l 740 894 l 740 694 l 324 694 l 324 549 l 689 549 l 689 346 l 324 346 l 324 200 l 740 200 l 740 0 l 63 0 z "},"Ể":{"ha":761,"x_min":63,"x_max":842,"o":"m 567 1097 l 567 1199 q 647 1212 628 1200 q 667 1242 667 1224 q 608 1272 667 1272 q 571 1269 589 1272 q 538 1263 553 1267 l 538 1363 q 599 1374 563 1369 q 675 1379 635 1379 q 801 1347 760 1379 q 842 1260 842 1315 q 817 1182 842 1213 q 740 1143 793 1151 l 740 1097 l 567 1097 m 90 956 l 288 1167 l 479 1167 l 676 956 l 469 956 l 383 1065 l 297 956 l 90 956 m 63 0 l 63 894 l 740 894 l 740 694 l 324 694 l 324 549 l 689 549 l 689 346 l 324 346 l 324 200 l 740 200 l 740 0 l 63 0 z "},"Ễ":{"ha":761,"x_min":63,"x_max":740,"o":"m 536 1188 q 451 1202 493 1188 q 369 1231 408 1217 q 292 1244 329 1244 q 216 1231 249 1244 q 160 1192 183 1217 l 160 1338 q 214 1369 179 1357 q 288 1382 249 1382 q 373 1368 333 1382 q 451 1340 413 1354 q 532 1325 490 1325 q 607 1340 575 1325 q 656 1379 639 1356 l 656 1232 q 609 1201 642 1214 q 536 1188 576 1188 m 104 956 l 301 1167 l 493 1167 l 690 956 l 483 956 l 397 1065 l 311 956 l 104 956 m 63 0 l 63 894 l 740 894 l 740 694 l 324 694 l 324 549 l 689 549 l 689 346 l 324 346 l 324 200 l 740 200 l 740 0 l 63 0 z "},"Ë":{"ha":761,"x_min":63,"x_max":740,"o":"m 167 993 l 167 1160 l 349 1160 l 349 993 l 167 993 m 467 993 l 467 1160 l 649 1160 l 649 993 l 467 993 m 63 0 l 63 894 l 740 894 l 740 694 l 324 694 l 324 549 l 689 549 l 689 346 l 324 346 l 324 200 l 740 200 l 740 0 l 63 0 z "},"Ė":{"ha":761,"x_min":63,"x_max":740,"o":"m 308 993 l 308 1160 l 489 1160 l 489 993 l 308 993 m 63 0 l 63 894 l 740 894 l 740 694 l 324 694 l 324 549 l 689 549 l 689 346 l 324 346 l 324 200 l 740 200 l 740 0 l 63 0 z "},"Ẹ":{"ha":761,"x_min":63,"x_max":740,"o":"m 63 0 l 63 894 l 740 894 l 740 694 l 324 694 l 324 549 l 689 549 l 689 346 l 324 346 l 324 200 l 740 200 l 740 0 l 63 0 m 297 -244 l 297 -78 l 478 -78 l 478 -244 l 297 -244 z "},"È":{"ha":761,"x_min":63,"x_max":740,"o":"m 331 956 l 196 1242 l 400 1242 l 522 956 l 331 956 m 63 0 l 63 894 l 740 894 l 740 694 l 324 694 l 324 549 l 689 549 l 689 346 l 324 346 l 324 200 l 740 200 l 740 0 l 63 0 z "},"Ẻ":{"ha":761,"x_min":63,"x_max":740,"o":"m 296 954 l 296 1067 q 393 1086 368 1071 q 418 1128 418 1101 q 335 1174 418 1174 q 292 1170 315 1174 q 253 1163 269 1167 l 253 1271 q 413 1290 314 1290 q 558 1251 507 1290 q 608 1150 608 1211 q 578 1059 608 1090 q 492 1011 549 1028 l 492 954 l 296 954 m 63 0 l 63 894 l 740 894 l 740 694 l 324 694 l 324 549 l 689 549 l 689 346 l 324 346 l 324 200 l 740 200 l 740 0 l 63 0 z "},"Ē":{"ha":761,"x_min":63,"x_max":740,"o":"m 160 1006 l 160 1161 l 615 1161 l 615 1006 l 160 1006 m 63 0 l 63 894 l 740 894 l 740 694 l 324 694 l 324 549 l 689 549 l 689 346 l 324 346 l 324 200 l 740 200 l 740 0 l 63 0 z "},"Ę":{"ha":761,"x_min":63,"x_max":740,"o":"m 63 0 l 63 894 l 740 894 l 740 694 l 324 694 l 324 549 l 689 549 l 689 346 l 324 346 l 324 200 l 740 200 l 740 0 l 692 0 q 634 -57 657 -26 q 611 -124 611 -87 q 671 -179 611 -179 q 708 -175 689 -179 q 740 -164 728 -171 l 740 -283 q 681 -299 719 -292 q 599 -306 642 -306 q 467 -273 519 -306 q 415 -171 415 -240 q 444 -74 415 -118 q 518 0 472 -29 l 63 0 z "},"Ẽ":{"ha":761,"x_min":63,"x_max":740,"o":"m 542 967 q 453 981 496 967 q 369 1010 410 996 q 290 1025 329 1025 q 213 1010 247 1025 q 154 971 179 996 l 154 1135 q 210 1167 174 1154 q 286 1181 246 1181 q 374 1166 333 1181 q 454 1137 414 1151 q 538 1122 494 1122 q 614 1138 582 1122 q 663 1178 646 1154 l 663 1013 q 615 981 649 994 q 542 967 582 967 m 63 0 l 63 894 l 740 894 l 740 694 l 324 694 l 324 549 l 689 549 l 689 346 l 324 346 l 324 200 l 740 200 l 740 0 l 63 0 z "},"F":{"ha":742,"x_min":63,"x_max":735,"o":"m 63 0 l 63 894 l 735 894 l 735 700 l 324 700 l 324 546 l 682 546 l 682 349 l 324 349 l 324 0 l 63 0 z "},"G":{"ha":904,"x_min":35,"x_max":869,"o":"m 524 -14 q 160 103 285 -14 q 35 439 35 221 q 164 786 35 664 q 542 908 293 908 q 692 899 625 908 q 819 869 760 889 l 819 646 q 693 678 758 669 q 560 686 628 686 q 366 628 431 686 q 301 439 301 569 q 358 263 301 317 q 524 208 414 208 q 592 213 560 208 q 651 226 624 218 l 651 357 l 474 357 l 474 518 l 869 518 l 869 68 q 733 11 818 36 q 524 -14 647 -14 z "},"Ğ":{"ha":904,"x_min":35,"x_max":869,"o":"m 524 957 q 333 1024 406 957 q 261 1217 261 1090 l 431 1217 q 451 1133 431 1165 q 524 1100 471 1100 q 597 1133 576 1100 q 618 1217 618 1165 l 788 1217 q 715 1024 788 1090 q 524 957 643 957 m 524 -14 q 160 103 285 -14 q 35 439 35 221 q 164 786 35 664 q 542 908 293 908 q 692 899 625 908 q 819 869 760 889 l 819 646 q 693 678 758 669 q 560 686 628 686 q 366 628 431 686 q 301 439 301 569 q 358 263 301 317 q 524 208 414 208 q 592 213 560 208 q 651 226 624 218 l 651 357 l 474 357 l 474 518 l 869 518 l 869 68 q 733 11 818 36 q 524 -14 647 -14 z "},"Ǧ":{"ha":904,"x_min":35,"x_max":869,"o":"m 439 956 l 224 1233 l 418 1233 l 518 1082 l 624 1233 l 813 1233 l 597 956 l 439 956 m 524 -14 q 160 103 285 -14 q 35 439 35 221 q 164 786 35 664 q 542 908 293 908 q 692 899 625 908 q 819 869 760 889 l 819 646 q 693 678 758 669 q 560 686 628 686 q 366 628 431 686 q 301 439 301 569 q 358 263 301 317 q 524 208 414 208 q 592 213 560 208 q 651 226 624 218 l 651 357 l 474 357 l 474 518 l 869 518 l 869 68 q 733 11 818 36 q 524 -14 647 -14 z "},"Ĝ":{"ha":904,"x_min":35,"x_max":869,"o":"m 211 956 l 426 1233 l 585 1233 l 800 956 l 611 956 l 506 1106 l 406 956 l 211 956 m 524 -14 q 160 103 285 -14 q 35 439 35 221 q 164 786 35 664 q 542 908 293 908 q 692 899 625 908 q 819 869 760 889 l 819 646 q 693 678 758 669 q 560 686 628 686 q 366 628 431 686 q 301 439 301 569 q 358 263 301 317 q 524 208 414 208 q 592 213 560 208 q 651 226 624 218 l 651 357 l 474 357 l 474 518 l 869 518 l 869 68 q 733 11 818 36 q 524 -14 647 -14 z "},"Ģ":{"ha":904,"x_min":35,"x_max":869,"o":"m 524 -14 q 160 103 285 -14 q 35 439 35 221 q 164 786 35 664 q 542 908 293 908 q 692 899 625 908 q 819 869 760 889 l 819 646 q 693 678 758 669 q 560 686 628 686 q 366 628 431 686 q 301 439 301 569 q 358 263 301 317 q 524 208 414 208 q 592 213 560 208 q 651 226 624 218 l 651 357 l 474 357 l 474 518 l 869 518 l 869 68 q 733 11 818 36 q 524 -14 647 -14 m 385 -364 l 432 -51 l 644 -51 l 565 -364 l 385 -364 z "},"Ġ":{"ha":904,"x_min":35,"x_max":869,"o":"m 446 993 l 446 1160 l 626 1160 l 626 993 l 446 993 m 524 -14 q 160 103 285 -14 q 35 439 35 221 q 164 786 35 664 q 542 908 293 908 q 692 899 625 908 q 819 869 760 889 l 819 646 q 693 678 758 669 q 560 686 628 686 q 366 628 431 686 q 301 439 301 569 q 358 263 301 317 q 524 208 414 208 q 592 213 560 208 q 651 226 624 218 l 651 357 l 474 357 l 474 518 l 869 518 l 869 68 q 733 11 818 36 q 524 -14 647 -14 z "},"Ḡ":{"ha":904,"x_min":35,"x_max":869,"o":"m 296 996 l 296 1151 l 751 1151 l 751 996 l 296 996 m 524 -14 q 160 103 285 -14 q 35 439 35 221 q 164 786 35 664 q 542 908 293 908 q 692 899 625 908 q 819 869 760 889 l 819 646 q 693 678 758 669 q 560 686 628 686 q 366 628 431 686 q 301 439 301 569 q 358 263 301 317 q 524 208 414 208 q 592 213 560 208 q 651 226 624 218 l 651 357 l 474 357 l 474 518 l 869 518 l 869 68 q 733 11 818 36 q 524 -14 647 -14 z "},"H":{"ha":956,"x_min":63,"x_max":893,"o":"m 63 0 l 63 894 l 324 894 l 324 561 l 632 561 l 632 894 l 893 894 l 893 0 l 632 0 l 632 333 l 324 333 l 324 0 l 63 0 z "},"Ħ":{"ha":956,"x_min":7,"x_max":949,"o":"m 63 0 l 63 636 l 7 636 l 7 810 l 63 810 l 63 894 l 324 894 l 324 810 l 632 810 l 632 894 l 893 894 l 893 810 l 949 810 l 949 636 l 893 636 l 893 0 l 632 0 l 632 333 l 324 333 l 324 0 l 63 0 m 324 561 l 632 561 l 632 636 l 324 636 l 324 561 z "},"Ḫ":{"ha":956,"x_min":63,"x_max":893,"o":"m 63 0 l 63 894 l 324 894 l 324 561 l 632 561 l 632 894 l 893 894 l 893 0 l 632 0 l 632 333 l 324 333 l 324 0 l 63 0 m 479 -329 q 289 -262 361 -329 q 217 -69 217 -196 l 386 -69 q 406 -153 386 -121 q 479 -186 426 -186 q 553 -153 532 -186 q 574 -69 574 -121 l 743 -69 q 671 -262 743 -196 q 479 -329 599 -329 z "},"Ĥ":{"ha":956,"x_min":63,"x_max":893,"o":"m 183 956 l 399 1233 l 557 1233 l 772 956 l 583 956 l 478 1106 l 378 956 l 183 956 m 63 0 l 63 894 l 324 894 l 324 561 l 632 561 l 632 894 l 893 894 l 893 0 l 632 0 l 632 333 l 324 333 l 324 0 l 63 0 z "},"Ḥ":{"ha":956,"x_min":63,"x_max":893,"o":"m 63 0 l 63 894 l 324 894 l 324 561 l 632 561 l 632 894 l 893 894 l 893 0 l 632 0 l 632 333 l 324 333 l 324 0 l 63 0 m 389 -274 l 389 -107 l 569 -107 l 569 -274 l 389 -274 z "},"I":{"ha":386,"x_min":63,"x_max":324,"o":"m 63 0 l 63 894 l 324 894 l 324 0 l 63 0 z "},"Ĳ":{"ha":999,"x_min":63,"x_max":943,"o":"m 597 -14 q 486 -6 539 -14 q 385 18 433 1 l 385 235 q 460 214 418 221 q 543 207 501 207 q 650 238 618 207 q 682 339 682 268 l 682 894 l 943 894 l 943 297 q 855 69 943 151 q 597 -14 767 -14 m 63 0 l 63 894 l 324 894 l 324 0 l 63 0 z "},"Í":{"ha":386,"x_min":63,"x_max":415,"o":"m 90 956 l 213 1242 l 415 1242 l 282 956 l 90 956 m 63 0 l 63 894 l 324 894 l 324 0 l 63 0 z "},"Ĭ":{"ha":386,"x_min":-69,"x_max":457,"o":"m 193 985 q 3 1051 75 985 q -69 1244 -69 1118 l 100 1244 q 120 1160 100 1193 q 193 1128 140 1128 q 267 1160 246 1128 q 288 1244 288 1193 l 457 1244 q 385 1051 457 1118 q 193 985 313 985 m 63 0 l 63 894 l 324 894 l 324 0 l 63 0 z "},"Ǐ":{"ha":386,"x_min":-101,"x_max":488,"o":"m 114 956 l -101 1233 l 93 1233 l 193 1082 l 299 1233 l 488 1233 l 272 956 l 114 956 m 63 0 l 63 894 l 324 894 l 324 0 l 63 0 z "},"Î":{"ha":386,"x_min":-101,"x_max":488,"o":"m -101 956 l 114 1233 l 272 1233 l 488 956 l 299 956 l 193 1106 l 93 956 l -101 956 m 63 0 l 63 894 l 324 894 l 324 0 l 63 0 z "},"Ï":{"ha":386,"x_min":-47,"x_max":435,"o":"m -47 1003 l -47 1169 l 135 1169 l 135 1003 l -47 1003 m 253 1003 l 253 1169 l 435 1169 l 435 1003 l 253 1003 m 63 0 l 63 894 l 324 894 l 324 0 l 63 0 z "},"İ":{"ha":386,"x_min":63,"x_max":324,"o":"m 103 1003 l 103 1169 l 283 1169 l 283 1003 l 103 1003 m 63 0 l 63 894 l 324 894 l 324 0 l 63 0 z "},"Ị":{"ha":386,"x_min":63,"x_max":324,"o":"m 63 0 l 63 894 l 324 894 l 324 0 l 63 0 m 103 -244 l 103 -78 l 283 -78 l 283 -244 l 103 -244 z "},"Ì":{"ha":386,"x_min":-33,"x_max":324,"o":"m 101 956 l -33 1242 l 171 1242 l 293 956 l 101 956 m 63 0 l 63 894 l 324 894 l 324 0 l 63 0 z "},"Ỉ":{"ha":386,"x_min":42,"x_max":397,"o":"m 85 956 l 85 1068 q 182 1088 157 1072 q 207 1129 207 1103 q 124 1175 207 1175 q 81 1172 104 1175 q 42 1164 58 1168 l 42 1272 q 201 1292 103 1292 q 347 1252 296 1292 q 397 1151 397 1213 q 367 1060 397 1092 q 281 1013 338 1029 l 281 956 l 85 956 m 63 0 l 63 894 l 324 894 l 324 0 l 63 0 z "},"Ī":{"ha":386,"x_min":-35,"x_max":421,"o":"m -35 1006 l -35 1161 l 421 1161 l 421 1006 l -35 1006 m 63 0 l 63 894 l 324 894 l 324 0 l 63 0 z "},"Į":{"ha":386,"x_min":4,"x_max":329,"o":"m 63 0 l 63 894 l 324 894 l 324 0 l 281 0 q 223 -57 246 -26 q 200 -124 200 -87 q 260 -179 200 -179 q 297 -175 278 -179 q 329 -164 317 -171 l 329 -283 q 269 -299 308 -292 q 188 -306 231 -306 q 56 -273 108 -306 q 4 -171 4 -240 q 33 -74 4 -118 q 107 0 61 -29 l 63 0 z "},"Ĩ":{"ha":386,"x_min":-61,"x_max":447,"o":"m 326 988 q 238 1002 281 988 q 154 1031 194 1017 q 75 1046 114 1046 q -2 1031 32 1046 q -61 992 -36 1017 l -61 1156 q -6 1188 -42 1175 q 71 1201 31 1201 q 158 1187 118 1201 q 239 1158 199 1172 q 322 1143 279 1143 q 399 1159 367 1143 q 447 1199 431 1175 l 447 1033 q 400 1001 433 1015 q 326 988 367 988 m 63 0 l 63 894 l 324 894 l 324 0 l 63 0 z "},"J":{"ha":621,"x_min":7,"x_max":565,"o":"m 219 -14 q 108 -6 161 -14 q 7 18 56 1 l 7 235 q 82 214 40 221 q 165 207 124 207 q 272 238 240 207 q 304 339 304 268 l 304 894 l 565 894 l 565 297 q 477 69 565 151 q 219 -14 389 -14 z "},"Ĵ":{"ha":621,"x_min":7,"x_max":714,"o":"m 125 956 l 340 1233 l 499 1233 l 714 956 l 525 956 l 419 1106 l 319 956 l 125 956 m 219 -14 q 108 -6 161 -14 q 7 18 56 1 l 7 235 q 82 214 40 221 q 165 207 124 207 q 272 238 240 207 q 304 339 304 268 l 304 894 l 565 894 l 565 297 q 477 69 565 151 q 219 -14 389 -14 z "},"K":{"ha":949,"x_min":63,"x_max":914,"o":"m 63 0 l 63 894 l 324 894 l 324 579 l 594 894 l 892 894 l 576 528 l 914 0 l 636 0 l 415 361 l 324 258 l 324 0 l 63 0 z "},"Ķ":{"ha":949,"x_min":63,"x_max":914,"o":"m 63 0 l 63 894 l 324 894 l 324 579 l 594 894 l 892 894 l 576 528 l 914 0 l 636 0 l 415 361 l 324 258 l 324 0 l 63 0 m 329 -364 l 376 -51 l 589 -51 l 510 -364 l 329 -364 z "},"L":{"ha":733,"x_min":63,"x_max":726,"o":"m 63 0 l 63 894 l 324 894 l 324 200 l 726 200 l 726 0 l 63 0 z "},"Ĺ":{"ha":733,"x_min":63,"x_max":726,"o":"m 90 956 l 213 1242 l 415 1242 l 282 956 l 90 956 m 63 0 l 63 894 l 324 894 l 324 200 l 726 200 l 726 0 l 63 0 z "},"Ľ":{"ha":733,"x_min":63,"x_max":726,"o":"m 63 0 l 63 894 l 324 894 l 324 200 l 726 200 l 726 0 l 63 0 m 428 582 l 475 894 l 688 894 l 608 582 l 428 582 z "},"Ļ":{"ha":733,"x_min":63,"x_max":726,"o":"m 63 0 l 63 894 l 324 894 l 324 200 l 726 200 l 726 0 l 63 0 m 264 -364 l 311 -51 l 524 -51 l 444 -364 l 264 -364 z "},"Ŀ":{"ha":733,"x_min":63,"x_max":726,"o":"m 63 0 l 63 894 l 324 894 l 324 200 l 726 200 l 726 0 l 63 0 m 472 406 l 472 572 l 653 572 l 653 406 l 472 406 z "},"Ḷ":{"ha":733,"x_min":63,"x_max":726,"o":"m 63 0 l 63 894 l 324 894 l 324 200 l 726 200 l 726 0 l 63 0 m 294 -244 l 294 -78 l 475 -78 l 475 -244 l 294 -244 z "},"Ḹ":{"ha":733,"x_min":-32,"x_max":726,"o":"m -32 996 l -32 1151 l 424 1151 l 424 996 l -32 996 m 63 0 l 63 894 l 324 894 l 324 200 l 726 200 l 726 0 l 63 0 m 294 -244 l 294 -78 l 475 -78 l 475 -244 l 294 -244 z "},"Ḻ":{"ha":733,"x_min":63,"x_max":726,"o":"m 63 0 l 63 894 l 324 894 l 324 200 l 726 200 l 726 0 l 63 0 m 164 -244 l 164 -89 l 619 -89 l 619 -244 l 164 -244 z "},"Ł":{"ha":733,"x_min":-49,"x_max":726,"o":"m 63 0 l 63 335 l -49 286 l -49 471 l 63 519 l 63 894 l 324 894 l 324 633 l 443 686 l 443 501 l 324 449 l 324 200 l 726 200 l 726 0 l 63 0 z "},"M":{"ha":1075,"x_min":63,"x_max":1013,"o":"m 63 0 l 63 894 l 317 894 l 539 440 l 760 894 l 1013 894 l 1013 0 l 751 0 l 751 447 l 608 153 l 468 153 l 324 447 l 324 0 l 63 0 z "},"Ṃ":{"ha":1075,"x_min":63,"x_max":1013,"o":"m 63 0 l 63 894 l 317 894 l 539 440 l 760 894 l 1013 894 l 1013 0 l 751 0 l 751 447 l 608 153 l 468 153 l 324 447 l 324 0 l 63 0 m 449 -244 l 449 -78 l 629 -78 l 629 -244 l 449 -244 z "},"N":{"ha":946,"x_min":63,"x_max":883,"o":"m 63 0 l 63 894 l 285 894 l 622 421 l 622 894 l 883 894 l 883 0 l 660 0 l 324 472 l 324 0 l 63 0 z "},"Ń":{"ha":946,"x_min":63,"x_max":883,"o":"m 347 956 l 469 1242 l 672 1242 l 539 956 l 347 956 m 63 0 l 63 894 l 285 894 l 622 421 l 622 894 l 883 894 l 883 0 l 660 0 l 324 472 l 324 0 l 63 0 z "},"Ň":{"ha":946,"x_min":63,"x_max":883,"o":"m 392 956 l 176 1233 l 371 1233 l 471 1082 l 576 1233 l 765 1233 l 550 956 l 392 956 m 63 0 l 63 894 l 285 894 l 622 421 l 622 894 l 883 894 l 883 0 l 660 0 l 324 472 l 324 0 l 63 0 z "},"Ņ":{"ha":946,"x_min":63,"x_max":883,"o":"m 63 0 l 63 894 l 285 894 l 622 421 l 622 894 l 883 894 l 883 0 l 660 0 l 324 472 l 324 0 l 63 0 m 335 -364 l 382 -51 l 594 -51 l 515 -364 l 335 -364 z "},"Ṅ":{"ha":946,"x_min":63,"x_max":883,"o":"m 381 993 l 381 1160 l 561 1160 l 561 993 l 381 993 m 63 0 l 63 894 l 285 894 l 622 421 l 622 894 l 883 894 l 883 0 l 660 0 l 324 472 l 324 0 l 63 0 z "},"Ṇ":{"ha":946,"x_min":63,"x_max":883,"o":"m 63 0 l 63 894 l 285 894 l 622 421 l 622 894 l 883 894 l 883 0 l 660 0 l 324 472 l 324 0 l 63 0 m 383 -244 l 383 -78 l 564 -78 l 564 -244 l 383 -244 z "},"Ŋ":{"ha":946,"x_min":63,"x_max":883,"o":"m 629 -325 q 451 -294 525 -325 l 451 -125 q 535 -139 493 -139 q 621 -64 621 -139 l 621 54 l 324 472 l 324 0 l 63 0 l 63 894 l 285 894 l 621 421 l 621 894 l 883 894 l 883 -83 q 822 -257 883 -189 q 629 -325 761 -325 z "},"Ṉ":{"ha":946,"x_min":63,"x_max":883,"o":"m 63 0 l 63 894 l 285 894 l 622 421 l 622 894 l 883 894 l 883 0 l 660 0 l 324 472 l 324 0 l 63 0 m 254 -243 l 254 -87 l 710 -87 l 710 -243 l 254 -243 z "},"Ñ":{"ha":946,"x_min":63,"x_max":883,"o":"m 621 967 q 532 981 575 967 q 449 1010 489 996 q 369 1025 408 1025 q 292 1010 326 1025 q 233 971 258 996 l 233 1135 q 289 1167 253 1154 q 365 1181 325 1181 q 453 1166 413 1181 q 533 1137 493 1151 q 617 1122 574 1122 q 693 1138 661 1122 q 742 1178 725 1154 l 742 1013 q 694 981 728 994 q 621 967 661 967 m 63 0 l 63 894 l 285 894 l 622 421 l 622 894 l 883 894 l 883 0 l 660 0 l 324 472 l 324 0 l 63 0 z "},"O":{"ha":983,"x_min":35,"x_max":949,"o":"m 492 -14 q 152 94 269 -14 q 35 444 35 203 q 88 713 35 611 q 242 862 140 815 q 492 908 344 908 q 741 862 639 908 q 896 713 843 815 q 949 444 949 611 q 831 94 949 203 q 492 -14 713 -14 m 492 208 q 637 265 592 208 q 682 444 682 321 q 637 631 682 576 q 492 686 592 686 q 347 631 392 686 q 301 444 301 576 q 347 265 301 321 q 492 208 392 208 z "},"Ó":{"ha":983,"x_min":35,"x_max":949,"o":"m 378 956 l 500 1242 l 703 1242 l 569 956 l 378 956 m 492 -14 q 152 94 269 -14 q 35 444 35 203 q 88 713 35 611 q 242 862 140 815 q 492 908 344 908 q 741 862 639 908 q 896 713 843 815 q 949 444 949 611 q 831 94 949 203 q 492 -14 713 -14 m 492 208 q 637 265 592 208 q 682 444 682 321 q 637 631 682 576 q 492 686 592 686 q 347 631 392 686 q 301 444 301 576 q 347 265 301 321 q 492 208 392 208 z "},"Ŏ":{"ha":983,"x_min":35,"x_max":949,"o":"m 492 956 q 301 1022 374 956 q 229 1215 229 1089 l 399 1215 q 419 1131 399 1164 q 492 1099 439 1099 q 565 1131 544 1099 q 586 1215 586 1164 l 756 1215 q 683 1022 756 1089 q 492 956 611 956 m 492 -14 q 152 94 269 -14 q 35 444 35 203 q 88 713 35 611 q 242 862 140 815 q 492 908 344 908 q 741 862 639 908 q 896 713 843 815 q 949 444 949 611 q 831 94 949 203 q 492 -14 713 -14 m 492 208 q 637 265 592 208 q 682 444 682 321 q 637 631 682 576 q 492 686 592 686 q 347 631 392 686 q 301 444 301 576 q 347 265 301 321 q 492 208 392 208 z "},"Ǒ":{"ha":983,"x_min":35,"x_max":949,"o":"m 413 956 l 197 1233 l 392 1233 l 492 1082 l 597 1233 l 786 1233 l 571 956 l 413 956 m 492 -14 q 152 94 269 -14 q 35 444 35 203 q 88 713 35 611 q 242 862 140 815 q 492 908 344 908 q 741 862 639 908 q 896 713 843 815 q 949 444 949 611 q 831 94 949 203 q 492 -14 713 -14 m 492 208 q 637 265 592 208 q 682 444 682 321 q 637 631 682 576 q 492 686 592 686 q 347 631 392 686 q 301 444 301 576 q 347 265 301 321 q 492 208 392 208 z "},"Ô":{"ha":983,"x_min":35,"x_max":949,"o":"m 199 956 l 414 1233 l 572 1233 l 788 956 l 599 956 l 493 1106 l 393 956 l 199 956 m 492 -14 q 152 94 269 -14 q 35 444 35 203 q 88 713 35 611 q 242 862 140 815 q 492 908 344 908 q 741 862 639 908 q 896 713 843 815 q 949 444 949 611 q 831 94 949 203 q 492 -14 713 -14 m 492 208 q 637 265 592 208 q 682 444 682 321 q 637 631 682 576 q 492 686 592 686 q 347 631 392 686 q 301 444 301 576 q 347 265 301 321 q 492 208 392 208 z "},"Ố":{"ha":983,"x_min":35,"x_max":949,"o":"m 656 1129 l 754 1346 l 947 1346 l 839 1129 l 656 1129 m 193 956 l 390 1167 l 582 1167 l 779 956 l 572 956 l 486 1065 l 400 956 l 193 956 m 492 -14 q 152 94 269 -14 q 35 444 35 203 q 88 713 35 611 q 242 862 140 815 q 492 908 344 908 q 741 862 639 908 q 896 713 843 815 q 949 444 949 611 q 831 94 949 203 q 492 -14 713 -14 m 492 208 q 637 265 592 208 q 682 444 682 321 q 637 631 682 576 q 492 686 592 686 q 347 631 392 686 q 301 444 301 576 q 347 265 301 321 q 492 208 392 208 z "},"Ộ":{"ha":983,"x_min":35,"x_max":949,"o":"m 197 956 l 413 1233 l 571 1233 l 786 956 l 597 956 l 492 1106 l 392 956 l 197 956 m 492 -14 q 152 94 269 -14 q 35 444 35 203 q 88 713 35 611 q 242 862 140 815 q 492 908 344 908 q 741 862 639 908 q 896 713 843 815 q 949 444 949 611 q 831 94 949 203 q 492 -14 713 -14 m 492 208 q 637 265 592 208 q 682 444 682 321 q 637 631 682 576 q 492 686 592 686 q 347 631 392 686 q 301 444 301 576 q 347 265 301 321 q 492 208 392 208 m 400 -244 l 400 -78 l 581 -78 l 581 -244 l 400 -244 z "},"Ồ":{"ha":983,"x_min":35,"x_max":949,"o":"m 143 1129 l 35 1346 l 228 1346 l 326 1129 l 143 1129 m 203 956 l 400 1167 l 592 1167 l 789 956 l 582 956 l 496 1065 l 410 956 l 203 956 m 492 -14 q 152 94 269 -14 q 35 444 35 203 q 88 713 35 611 q 242 862 140 815 q 492 908 344 908 q 741 862 639 908 q 896 713 843 815 q 949 444 949 611 q 831 94 949 203 q 492 -14 713 -14 m 492 208 q 637 265 592 208 q 682 444 682 321 q 637 631 682 576 q 492 686 592 686 q 347 631 392 686 q 301 444 301 576 q 347 265 301 321 q 492 208 392 208 z "},"Ổ":{"ha":983,"x_min":35,"x_max":951,"o":"m 676 1097 l 676 1199 q 757 1212 738 1200 q 776 1242 776 1224 q 718 1272 776 1272 q 681 1269 699 1272 q 647 1263 663 1267 l 647 1363 q 708 1374 672 1369 q 785 1379 744 1379 q 910 1347 869 1379 q 951 1260 951 1315 q 927 1182 951 1213 q 850 1143 903 1151 l 850 1097 l 676 1097 m 200 956 l 397 1167 l 589 1167 l 786 956 l 579 956 l 493 1065 l 407 956 l 200 956 m 492 -14 q 152 94 269 -14 q 35 444 35 203 q 88 713 35 611 q 242 862 140 815 q 492 908 344 908 q 741 862 639 908 q 896 713 843 815 q 949 444 949 611 q 831 94 949 203 q 492 -14 713 -14 m 492 208 q 637 265 592 208 q 682 444 682 321 q 637 631 682 576 q 492 686 592 686 q 347 631 392 686 q 301 444 301 576 q 347 265 301 321 q 492 208 392 208 z "},"Ỗ":{"ha":983,"x_min":35,"x_max":949,"o":"m 622 1188 q 537 1202 579 1188 q 455 1231 494 1217 q 378 1244 415 1244 q 302 1231 335 1244 q 246 1192 269 1217 l 246 1338 q 300 1369 265 1357 q 374 1382 335 1382 q 459 1368 419 1382 q 538 1340 499 1354 q 618 1325 576 1325 q 693 1340 661 1325 q 742 1379 725 1356 l 742 1232 q 695 1201 728 1214 q 622 1188 663 1188 m 200 956 l 397 1167 l 589 1167 l 786 956 l 579 956 l 493 1065 l 407 956 l 200 956 m 492 -14 q 152 94 269 -14 q 35 444 35 203 q 88 713 35 611 q 242 862 140 815 q 492 908 344 908 q 741 862 639 908 q 896 713 843 815 q 949 444 949 611 q 831 94 949 203 q 492 -14 713 -14 m 492 208 q 637 265 592 208 q 682 444 682 321 q 637 631 682 576 q 492 686 592 686 q 347 631 392 686 q 301 444 301 576 q 347 265 301 321 q 492 208 392 208 z "},"Ö":{"ha":983,"x_min":35,"x_max":949,"o":"m 251 993 l 251 1160 l 433 1160 l 433 993 l 251 993 m 551 993 l 551 1160 l 733 1160 l 733 993 l 551 993 m 492 -14 q 152 94 269 -14 q 35 444 35 203 q 88 713 35 611 q 242 862 140 815 q 492 908 344 908 q 741 862 639 908 q 896 713 843 815 q 949 444 949 611 q 831 94 949 203 q 492 -14 713 -14 m 492 208 q 637 265 592 208 q 682 444 682 321 q 637 631 682 576 q 492 686 592 686 q 347 631 392 686 q 301 444 301 576 q 347 265 301 321 q 492 208 392 208 z "},"Ọ":{"ha":983,"x_min":35,"x_max":949,"o":"m 492 -14 q 152 94 269 -14 q 35 444 35 203 q 88 713 35 611 q 242 862 140 815 q 492 908 344 908 q 741 862 639 908 q 896 713 843 815 q 949 444 949 611 q 831 94 949 203 q 492 -14 713 -14 m 492 208 q 637 265 592 208 q 682 444 682 321 q 637 631 682 576 q 492 686 592 686 q 347 631 392 686 q 301 444 301 576 q 347 265 301 321 q 492 208 392 208 m 401 -244 l 401 -78 l 582 -78 l 582 -244 l 401 -244 z "},"Ò":{"ha":983,"x_min":35,"x_max":949,"o":"m 404 956 l 269 1242 l 474 1242 l 596 956 l 404 956 m 492 -14 q 152 94 269 -14 q 35 444 35 203 q 88 713 35 611 q 242 862 140 815 q 492 908 344 908 q 741 862 639 908 q 896 713 843 815 q 949 444 949 611 q 831 94 949 203 q 492 -14 713 -14 m 492 208 q 637 265 592 208 q 682 444 682 321 q 637 631 682 576 q 492 686 592 686 q 347 631 392 686 q 301 444 301 576 q 347 265 301 321 q 492 208 392 208 z "},"Ỏ":{"ha":983,"x_min":35,"x_max":949,"o":"m 385 956 l 385 1068 q 482 1088 457 1072 q 507 1129 507 1103 q 424 1175 507 1175 q 381 1172 404 1175 q 342 1164 358 1168 l 342 1272 q 501 1292 403 1292 q 647 1252 596 1292 q 697 1151 697 1213 q 667 1060 697 1092 q 581 1013 638 1029 l 581 956 l 385 956 m 492 -14 q 152 94 269 -14 q 35 444 35 203 q 88 713 35 611 q 242 862 140 815 q 492 908 344 908 q 741 862 639 908 q 896 713 843 815 q 949 444 949 611 q 831 94 949 203 q 492 -14 713 -14 m 492 208 q 637 265 592 208 q 682 444 682 321 q 637 631 682 576 q 492 686 592 686 q 347 631 392 686 q 301 444 301 576 q 347 265 301 321 q 492 208 392 208 z "},"Ơ":{"ha":1097,"x_min":35,"x_max":1104,"o":"m 492 -14 q 152 94 269 -14 q 35 444 35 203 q 88 713 35 611 q 242 862 140 815 q 492 908 344 908 q 669 887 590 908 q 803 819 747 865 q 893 852 867 822 q 919 956 919 882 l 1104 956 q 1060 751 1104 818 q 915 663 1015 683 q 949 444 949 575 q 831 94 949 203 q 492 -14 713 -14 m 492 208 q 637 265 592 208 q 682 444 682 321 q 637 631 682 576 q 492 686 592 686 q 347 631 392 686 q 301 444 301 576 q 347 265 301 321 q 492 208 392 208 z "},"Ớ":{"ha":1097,"x_min":35,"x_max":1104,"o":"m 388 956 l 510 1242 l 713 1242 l 579 956 l 388 956 m 492 -14 q 152 94 269 -14 q 35 444 35 203 q 88 713 35 611 q 242 862 140 815 q 492 908 344 908 q 669 887 590 908 q 803 819 747 865 q 893 852 867 822 q 919 956 919 882 l 1104 956 q 1060 751 1104 818 q 915 663 1015 683 q 949 444 949 575 q 831 94 949 203 q 492 -14 713 -14 m 492 208 q 637 265 592 208 q 682 444 682 321 q 637 631 682 576 q 492 686 592 686 q 347 631 392 686 q 301 444 301 576 q 347 265 301 321 q 492 208 392 208 z "},"Ợ":{"ha":1097,"x_min":35,"x_max":1104,"o":"m 492 -14 q 152 94 269 -14 q 35 444 35 203 q 88 713 35 611 q 242 862 140 815 q 492 908 344 908 q 669 887 590 908 q 803 819 747 865 q 893 852 867 822 q 919 956 919 882 l 1104 956 q 1060 751 1104 818 q 915 663 1015 683 q 949 444 949 575 q 831 94 949 203 q 492 -14 713 -14 m 492 208 q 637 265 592 208 q 682 444 682 321 q 637 631 682 576 q 492 686 592 686 q 347 631 392 686 q 301 444 301 576 q 347 265 301 321 q 492 208 392 208 m 400 -244 l 400 -78 l 581 -78 l 581 -244 l 400 -244 z "},"Ờ":{"ha":1097,"x_min":35,"x_max":1104,"o":"m 407 956 l 272 1242 l 476 1242 l 599 956 l 407 956 m 492 -14 q 152 94 269 -14 q 35 444 35 203 q 88 713 35 611 q 242 862 140 815 q 492 908 344 908 q 669 887 590 908 q 803 819 747 865 q 893 852 867 822 q 919 956 919 882 l 1104 956 q 1060 751 1104 818 q 915 663 1015 683 q 949 444 949 575 q 831 94 949 203 q 492 -14 713 -14 m 492 208 q 637 265 592 208 q 682 444 682 321 q 637 631 682 576 q 492 686 592 686 q 347 631 392 686 q 301 444 301 576 q 347 265 301 321 q 492 208 392 208 z "},"Ở":{"ha":1097,"x_min":35,"x_max":1104,"o":"m 389 956 l 389 1068 q 486 1088 461 1072 q 511 1129 511 1103 q 428 1175 511 1175 q 385 1172 408 1175 q 346 1164 363 1168 l 346 1272 q 506 1292 407 1292 q 651 1252 600 1292 q 701 1151 701 1213 q 672 1060 701 1092 q 585 1013 642 1029 l 585 956 l 389 956 m 492 -14 q 152 94 269 -14 q 35 444 35 203 q 88 713 35 611 q 242 862 140 815 q 492 908 344 908 q 669 887 590 908 q 803 819 747 865 q 893 852 867 822 q 919 956 919 882 l 1104 956 q 1060 751 1104 818 q 915 663 1015 683 q 949 444 949 575 q 831 94 949 203 q 492 -14 713 -14 m 492 208 q 637 265 592 208 q 682 444 682 321 q 637 631 682 576 q 492 686 592 686 q 347 631 392 686 q 301 444 301 576 q 347 265 301 321 q 492 208 392 208 z "},"Ỡ":{"ha":1097,"x_min":35,"x_max":1104,"o":"m 628 961 q 539 976 582 961 q 456 1005 496 990 q 376 1019 415 1019 q 299 1005 333 1019 q 240 965 265 990 l 240 1129 q 296 1162 260 1149 q 372 1175 332 1175 q 460 1160 419 1175 q 540 1131 500 1146 q 624 1117 581 1117 q 700 1133 668 1117 q 749 1172 732 1149 l 749 1007 q 701 975 735 989 q 628 961 668 961 m 492 -14 q 152 94 269 -14 q 35 444 35 203 q 88 713 35 611 q 242 862 140 815 q 492 908 344 908 q 669 887 590 908 q 803 819 747 865 q 893 852 867 822 q 919 956 919 882 l 1104 956 q 1060 751 1104 818 q 915 663 1015 683 q 949 444 949 575 q 831 94 949 203 q 492 -14 713 -14 m 492 208 q 637 265 592 208 q 682 444 682 321 q 637 631 682 576 q 492 686 592 686 q 347 631 392 686 q 301 444 301 576 q 347 265 301 321 q 492 208 392 208 z "},"Ő":{"ha":983,"x_min":35,"x_max":949,"o":"m 199 956 l 318 1211 l 538 1211 l 396 956 l 199 956 m 524 956 l 643 1211 l 863 1211 l 721 956 l 524 956 m 492 -14 q 152 94 269 -14 q 35 444 35 203 q 88 713 35 611 q 242 862 140 815 q 492 908 344 908 q 741 862 639 908 q 896 713 843 815 q 949 444 949 611 q 831 94 949 203 q 492 -14 713 -14 m 492 208 q 637 265 592 208 q 682 444 682 321 q 637 631 682 576 q 492 686 592 686 q 347 631 392 686 q 301 444 301 576 q 347 265 301 321 q 492 208 392 208 z "},"Ō":{"ha":983,"x_min":35,"x_max":949,"o":"m 263 1007 l 263 1163 l 718 1163 l 718 1007 l 263 1007 m 492 -14 q 152 94 269 -14 q 35 444 35 203 q 88 713 35 611 q 242 862 140 815 q 492 908 344 908 q 741 862 639 908 q 896 713 843 815 q 949 444 949 611 q 831 94 949 203 q 492 -14 713 -14 m 492 208 q 637 265 592 208 q 682 444 682 321 q 637 631 682 576 q 492 686 592 686 q 347 631 392 686 q 301 444 301 576 q 347 265 301 321 q 492 208 392 208 z "},"Ø":{"ha":983,"x_min":35,"x_max":949,"o":"m 210 -74 l 250 29 q 90 178 144 76 q 35 444 35 281 q 88 713 35 611 q 242 862 140 815 q 492 908 344 908 q 545 906 519 908 q 594 901 571 904 l 618 963 l 760 963 l 722 869 q 891 722 833 825 q 949 444 949 618 q 831 94 949 203 q 492 -14 713 -14 q 378 -6 431 -14 l 351 -74 l 210 -74 m 344 267 l 508 685 q 500 685 504 685 q 492 686 496 686 q 347 631 392 686 q 301 444 301 576 q 344 267 301 324 m 492 208 q 637 265 592 208 q 682 444 682 321 q 631 638 682 581 l 463 210 q 477 208 469 208 q 492 208 485 208 z "},"Ǿ":{"ha":983,"x_min":35,"x_max":949,"o":"m 342 956 l 464 1242 l 667 1242 l 533 956 l 342 956 m 210 -74 l 250 29 q 90 178 144 76 q 35 444 35 281 q 88 713 35 611 q 242 862 140 815 q 492 908 344 908 q 545 906 519 908 q 594 901 571 904 l 618 963 l 760 963 l 722 869 q 891 722 833 825 q 949 444 949 618 q 831 94 949 203 q 492 -14 713 -14 q 378 -6 431 -14 l 351 -74 l 210 -74 m 344 267 l 508 685 q 500 685 504 685 q 492 686 496 686 q 347 631 392 686 q 301 444 301 576 q 344 267 301 324 m 492 208 q 637 265 592 208 q 682 444 682 321 q 631 638 682 581 l 463 210 q 477 208 469 208 q 492 208 485 208 z "},"Õ":{"ha":983,"x_min":35,"x_max":949,"o":"m 626 988 q 538 1002 581 988 q 454 1031 494 1017 q 375 1046 414 1046 q 298 1031 332 1046 q 239 992 264 1017 l 239 1156 q 294 1188 258 1175 q 371 1201 331 1201 q 458 1187 418 1201 q 539 1158 499 1172 q 622 1143 579 1143 q 699 1159 667 1143 q 747 1199 731 1175 l 747 1033 q 700 1001 733 1015 q 626 988 667 988 m 492 -14 q 152 94 269 -14 q 35 444 35 203 q 88 713 35 611 q 242 862 140 815 q 492 908 344 908 q 741 862 639 908 q 896 713 843 815 q 949 444 949 611 q 831 94 949 203 q 492 -14 713 -14 m 492 208 q 637 265 592 208 q 682 444 682 321 q 637 631 682 576 q 492 686 592 686 q 347 631 392 686 q 301 444 301 576 q 347 265 301 321 q 492 208 392 208 z "},"Œ":{"ha":1394,"x_min":35,"x_max":1360,"o":"m 492 -14 q 152 94 269 -14 q 35 444 35 203 q 88 713 35 611 q 242 862 140 815 q 492 908 344 908 q 682 885 600 908 l 682 894 l 1360 894 l 1360 694 l 943 694 l 943 549 l 1308 549 l 1308 346 l 943 346 l 943 200 l 1360 200 l 1360 0 l 682 0 l 682 11 q 492 -14 600 -14 m 492 208 q 637 265 592 208 q 682 444 682 321 q 637 631 682 576 q 492 686 592 686 q 347 631 392 686 q 301 444 301 576 q 347 265 301 321 q 492 208 392 208 z "},"P":{"ha":853,"x_min":63,"x_max":846,"o":"m 63 0 l 63 894 l 524 894 q 705 851 633 894 q 811 732 776 807 q 846 565 846 657 q 806 397 846 471 q 692 282 765 324 q 518 240 618 240 l 324 240 l 324 0 l 63 0 m 324 440 l 458 440 q 549 475 519 440 q 579 565 579 510 q 551 660 579 625 q 465 694 524 694 l 324 694 l 324 440 z "},"Þ":{"ha":853,"x_min":63,"x_max":846,"o":"m 63 0 l 63 894 l 324 894 l 324 768 l 524 768 q 705 726 633 768 q 811 610 776 683 q 846 446 846 538 q 806 279 846 351 q 692 166 765 207 q 518 125 618 125 l 324 125 l 324 0 l 63 0 m 324 325 l 458 325 q 550 358 519 325 q 581 446 581 390 q 465 568 581 568 l 324 568 l 324 325 z "},"Q":{"ha":983,"x_min":35,"x_max":949,"o":"m 656 -239 q 454 -181 513 -239 q 394 -8 396 -124 q 126 122 218 13 q 35 444 35 231 q 88 713 35 611 q 242 862 140 815 q 492 908 344 908 q 741 862 639 908 q 896 713 843 815 q 949 444 949 611 q 858 126 949 235 q 599 -7 768 17 q 616 -64 599 -50 q 667 -78 633 -78 q 710 -74 688 -78 q 754 -64 733 -69 l 754 -225 q 706 -235 733 -231 q 656 -239 679 -239 m 492 208 q 637 265 592 208 q 682 444 682 321 q 637 631 682 576 q 492 686 592 686 q 347 631 392 686 q 301 444 301 576 q 347 265 301 321 q 492 208 392 208 z "},"R":{"ha":882,"x_min":63,"x_max":847,"o":"m 63 0 l 63 894 l 528 894 q 708 854 638 894 q 813 742 778 814 q 847 576 847 671 q 802 417 847 486 q 682 313 757 349 q 708 283 697 300 q 733 235 719 265 l 836 0 l 564 0 l 469 215 q 442 251 458 240 q 397 261 426 261 l 324 261 l 324 0 l 63 0 m 324 461 l 461 461 q 549 491 518 461 q 581 576 581 521 q 469 694 581 694 l 324 694 l 324 461 z "},"Ŕ":{"ha":882,"x_min":63,"x_max":847,"o":"m 254 956 l 376 1242 l 579 1242 l 446 956 l 254 956 m 63 0 l 63 894 l 528 894 q 708 854 638 894 q 813 742 778 814 q 847 576 847 671 q 802 417 847 486 q 682 313 757 349 q 708 283 697 300 q 733 235 719 265 l 836 0 l 564 0 l 469 215 q 442 251 458 240 q 397 261 426 261 l 324 261 l 324 0 l 63 0 m 324 461 l 461 461 q 549 491 518 461 q 581 576 581 521 q 469 694 581 694 l 324 694 l 324 461 z "},"Ř":{"ha":882,"x_min":63,"x_max":847,"o":"m 292 956 l 76 1233 l 271 1233 l 371 1082 l 476 1233 l 665 1233 l 450 956 l 292 956 m 63 0 l 63 894 l 528 894 q 708 854 638 894 q 813 742 778 814 q 847 576 847 671 q 802 417 847 486 q 682 313 757 349 q 708 283 697 300 q 733 235 719 265 l 836 0 l 564 0 l 469 215 q 442 251 458 240 q 397 261 426 261 l 324 261 l 324 0 l 63 0 m 324 461 l 461 461 q 549 491 518 461 q 581 576 581 521 q 469 694 581 694 l 324 694 l 324 461 z "},"Ŗ":{"ha":882,"x_min":63,"x_max":847,"o":"m 63 0 l 63 894 l 528 894 q 708 854 638 894 q 813 742 778 814 q 847 576 847 671 q 802 417 847 486 q 682 313 757 349 q 708 283 697 300 q 733 235 719 265 l 836 0 l 564 0 l 469 215 q 442 251 458 240 q 397 261 426 261 l 324 261 l 324 0 l 63 0 m 324 461 l 461 461 q 549 491 518 461 q 581 576 581 521 q 469 694 581 694 l 324 694 l 324 461 m 278 -364 l 325 -51 l 538 -51 l 458 -364 l 278 -364 z "},"Ṛ":{"ha":882,"x_min":63,"x_max":847,"o":"m 63 0 l 63 894 l 528 894 q 708 854 638 894 q 813 742 778 814 q 847 576 847 671 q 802 417 847 486 q 682 313 757 349 q 708 283 697 300 q 733 235 719 265 l 836 0 l 564 0 l 469 215 q 442 251 458 240 q 397 261 426 261 l 324 261 l 324 0 l 63 0 m 324 461 l 461 461 q 549 491 518 461 q 581 576 581 521 q 469 694 581 694 l 324 694 l 324 461 m 339 -244 l 339 -78 l 519 -78 l 519 -244 l 339 -244 z "},"Ṝ":{"ha":882,"x_min":63,"x_max":847,"o":"m 178 996 l 178 1151 l 633 1151 l 633 996 l 178 996 m 63 0 l 63 894 l 528 894 q 708 854 638 894 q 813 742 778 814 q 847 576 847 671 q 802 417 847 486 q 682 313 757 349 q 708 283 697 300 q 733 235 719 265 l 836 0 l 564 0 l 469 215 q 442 251 458 240 q 397 261 426 261 l 324 261 l 324 0 l 63 0 m 324 461 l 461 461 q 549 491 518 461 q 581 576 581 521 q 469 694 581 694 l 324 694 l 324 461 m 339 -244 l 339 -78 l 519 -78 l 519 -244 l 339 -244 z "},"Ṟ":{"ha":882,"x_min":63,"x_max":847,"o":"m 63 0 l 63 894 l 528 894 q 708 854 638 894 q 813 742 778 814 q 847 576 847 671 q 802 417 847 486 q 682 313 757 349 q 708 283 697 300 q 733 235 719 265 l 836 0 l 564 0 l 469 215 q 442 251 458 240 q 397 261 426 261 l 324 261 l 324 0 l 63 0 m 324 461 l 461 461 q 549 491 518 461 q 581 576 581 521 q 469 694 581 694 l 324 694 l 324 461 m 189 -244 l 189 -89 l 644 -89 l 644 -244 l 189 -244 z "},"S":{"ha":771,"x_min":35,"x_max":736,"o":"m 356 -14 q 185 1 265 -14 q 47 42 104 15 l 47 257 q 186 210 110 228 q 329 192 263 192 q 434 203 399 192 q 469 257 469 215 q 449 303 469 286 q 387 333 429 319 q 276 368 344 347 q 133 432 186 397 q 58 517 81 467 q 35 639 35 567 q 128 840 35 771 q 407 908 222 908 q 559 896 481 908 q 686 868 638 883 l 686 651 q 561 689 621 678 q 449 700 501 700 q 344 690 388 700 q 301 640 301 681 q 338 590 301 606 q 469 549 375 574 q 637 478 579 519 q 715 381 694 436 q 736 257 736 326 q 642 60 736 135 q 356 -14 547 -14 z "},"Ś":{"ha":771,"x_min":35,"x_max":736,"o":"m 268 957 l 390 1243 l 593 1243 l 460 957 l 268 957 m 356 -14 q 185 1 265 -14 q 47 42 104 15 l 47 257 q 186 210 110 228 q 329 192 263 192 q 434 203 399 192 q 469 257 469 215 q 449 303 469 286 q 387 333 429 319 q 276 368 344 347 q 133 432 186 397 q 58 517 81 467 q 35 639 35 567 q 128 840 35 771 q 407 908 222 908 q 559 896 481 908 q 686 868 638 883 l 686 651 q 561 689 621 678 q 449 700 501 700 q 344 690 388 700 q 301 640 301 681 q 338 590 301 606 q 469 549 375 574 q 637 478 579 519 q 715 381 694 436 q 736 257 736 326 q 642 60 736 135 q 356 -14 547 -14 z "},"Š":{"ha":771,"x_min":35,"x_max":736,"o":"m 294 956 l 79 1233 l 274 1233 l 374 1082 l 479 1233 l 668 1233 l 453 956 l 294 956 m 356 -14 q 185 1 265 -14 q 47 42 104 15 l 47 257 q 186 210 110 228 q 329 192 263 192 q 434 203 399 192 q 469 257 469 215 q 449 303 469 286 q 387 333 429 319 q 276 368 344 347 q 133 432 186 397 q 58 517 81 467 q 35 639 35 567 q 128 840 35 771 q 407 908 222 908 q 559 896 481 908 q 686 868 638 883 l 686 651 q 561 689 621 678 q 449 700 501 700 q 344 690 388 700 q 301 640 301 681 q 338 590 301 606 q 469 549 375 574 q 637 478 579 519 q 715 381 694 436 q 736 257 736 326 q 642 60 736 135 q 356 -14 547 -14 z "},"Ş":{"ha":771,"x_min":35,"x_max":736,"o":"m 360 -333 q 298 -330 335 -333 q 246 -322 261 -326 l 246 -219 q 328 -231 286 -231 q 404 -220 381 -231 q 428 -183 428 -210 q 407 -148 428 -156 q 353 -140 386 -140 l 265 -140 l 301 -12 q 160 5 226 -8 q 47 42 94 18 l 47 257 q 186 210 110 228 q 329 192 263 192 q 434 203 399 192 q 469 257 469 215 q 449 303 469 286 q 387 333 429 319 q 276 368 344 347 q 133 432 186 397 q 58 517 81 467 q 35 639 35 567 q 128 840 35 771 q 407 908 222 908 q 559 896 481 908 q 686 868 638 883 l 686 651 q 561 689 621 678 q 449 700 501 700 q 344 690 388 700 q 301 640 301 681 q 338 590 301 606 q 469 549 375 574 q 637 478 579 519 q 715 381 694 436 q 736 257 736 326 q 664 79 736 150 q 446 -8 592 8 l 428 -57 q 547 -94 510 -57 q 583 -187 583 -131 q 528 -294 583 -256 q 360 -333 474 -333 z "},"Ŝ":{"ha":771,"x_min":35,"x_max":736,"o":"m 72 956 l 288 1233 l 446 1233 l 661 956 l 472 956 l 367 1106 l 267 956 l 72 956 m 356 -14 q 185 1 265 -14 q 47 42 104 15 l 47 257 q 186 210 110 228 q 329 192 263 192 q 434 203 399 192 q 469 257 469 215 q 449 303 469 286 q 387 333 429 319 q 276 368 344 347 q 133 432 186 397 q 58 517 81 467 q 35 639 35 567 q 128 840 35 771 q 407 908 222 908 q 559 896 481 908 q 686 868 638 883 l 686 651 q 561 689 621 678 q 449 700 501 700 q 344 690 388 700 q 301 640 301 681 q 338 590 301 606 q 469 549 375 574 q 637 478 579 519 q 715 381 694 436 q 736 257 736 326 q 642 60 736 135 q 356 -14 547 -14 z "},"Ș":{"ha":771,"x_min":35,"x_max":736,"o":"m 356 -14 q 185 1 265 -14 q 47 42 104 15 l 47 257 q 186 210 110 228 q 329 192 263 192 q 434 203 399 192 q 469 257 469 215 q 449 303 469 286 q 387 333 429 319 q 276 368 344 347 q 133 432 186 397 q 58 517 81 467 q 35 639 35 567 q 128 840 35 771 q 407 908 222 908 q 559 896 481 908 q 686 868 638 883 l 686 651 q 561 689 621 678 q 449 700 501 700 q 344 690 388 700 q 301 640 301 681 q 338 590 301 606 q 469 549 375 574 q 637 478 579 519 q 715 381 694 436 q 736 257 736 326 q 642 60 736 135 q 356 -14 547 -14 m 249 -325 l 293 -58 l 500 -58 l 435 -325 l 249 -325 z "},"Ṡ":{"ha":771,"x_min":35,"x_max":736,"o":"m 288 993 l 288 1160 l 468 1160 l 468 993 l 288 993 m 356 -14 q 185 1 265 -14 q 47 42 104 15 l 47 257 q 186 210 110 228 q 329 192 263 192 q 434 203 399 192 q 469 257 469 215 q 449 303 469 286 q 387 333 429 319 q 276 368 344 347 q 133 432 186 397 q 58 517 81 467 q 35 639 35 567 q 128 840 35 771 q 407 908 222 908 q 559 896 481 908 q 686 868 638 883 l 686 651 q 561 689 621 678 q 449 700 501 700 q 344 690 388 700 q 301 640 301 681 q 338 590 301 606 q 469 549 375 574 q 637 478 579 519 q 715 381 694 436 q 736 257 736 326 q 642 60 736 135 q 356 -14 547 -14 z "},"Ṣ":{"ha":771,"x_min":35,"x_max":736,"o":"m 356 -14 q 185 1 265 -14 q 47 42 104 15 l 47 257 q 186 210 110 228 q 329 192 263 192 q 434 203 399 192 q 469 257 469 215 q 449 303 469 286 q 387 333 429 319 q 276 368 344 347 q 133 432 186 397 q 58 517 81 467 q 35 639 35 567 q 128 840 35 771 q 407 908 222 908 q 559 896 481 908 q 686 868 638 883 l 686 651 q 561 689 621 678 q 449 700 501 700 q 344 690 388 700 q 301 640 301 681 q 338 590 301 606 q 469 549 375 574 q 637 478 579 519 q 715 381 694 436 q 736 257 736 326 q 642 60 736 135 q 356 -14 547 -14 m 286 -244 l 286 -78 l 467 -78 l 467 -244 l 286 -244 z "},"ẞ":{"ha":889,"x_min":56,"x_max":854,"o":"m 560 -14 q 369 17 443 -14 l 369 201 q 428 185 394 192 q 490 179 461 179 q 565 198 543 179 q 588 257 588 217 q 490 326 588 326 l 390 326 l 390 481 l 579 621 q 443 685 579 685 q 335 651 368 685 q 301 557 301 618 l 301 0 l 56 0 l 56 568 q 158 817 56 725 q 443 908 261 908 q 660 865 576 908 q 784 747 744 821 q 824 585 824 674 l 638 447 l 663 447 q 800 392 746 447 q 854 243 854 338 q 776 54 854 122 q 560 -14 697 -14 z "},"Ə":{"ha":957,"x_min":35,"x_max":922,"o":"m 469 -14 q 147 92 260 -14 q 35 385 35 199 l 35 551 l 676 551 q 635 658 668 621 q 540 710 603 696 q 379 725 478 725 q 278 717 335 725 q 168 696 221 708 q 82 668 115 683 l 82 846 q 240 890 147 871 q 435 908 333 908 q 698 851 589 908 q 865 688 807 794 q 922 435 922 582 q 874 197 922 299 q 726 41 826 96 q 469 -14 626 -14 m 469 158 q 628 212 581 158 q 676 371 676 265 l 267 371 l 267 325 q 317 204 267 250 q 469 158 368 158 z "},"T":{"ha":778,"x_min":7,"x_max":771,"o":"m 258 0 l 258 700 l 7 700 l 7 894 l 771 894 l 771 700 l 519 700 l 519 0 l 258 0 z "},"Ŧ":{"ha":778,"x_min":7,"x_max":771,"o":"m 258 0 l 258 369 l 124 369 l 124 544 l 258 544 l 258 700 l 7 700 l 7 894 l 771 894 l 771 700 l 519 700 l 519 544 l 654 544 l 654 369 l 519 369 l 519 0 l 258 0 z "},"Ť":{"ha":778,"x_min":7,"x_max":771,"o":"m 311 957 l 96 1235 l 290 1235 l 390 1083 l 496 1235 l 685 1235 l 469 957 l 311 957 m 258 0 l 258 700 l 7 700 l 7 894 l 771 894 l 771 700 l 519 700 l 519 0 l 258 0 z "},"Ţ":{"ha":778,"x_min":7,"x_max":771,"o":"m 258 0 l 258 700 l 7 700 l 7 894 l 771 894 l 771 700 l 519 700 l 519 0 l 463 0 l 442 -57 q 560 -94 524 -57 q 597 -187 597 -131 q 542 -294 597 -256 q 374 -333 488 -333 q 312 -330 349 -333 q 260 -322 275 -326 l 260 -219 q 342 -231 300 -231 q 418 -220 394 -231 q 442 -183 442 -210 q 421 -148 442 -156 q 367 -140 400 -140 l 279 -140 l 319 0 l 258 0 z "},"Ț":{"ha":778,"x_min":7,"x_max":771,"o":"m 258 0 l 258 700 l 7 700 l 7 894 l 771 894 l 771 700 l 519 700 l 519 0 l 258 0 m 243 -371 l 290 -58 l 503 -58 l 424 -371 l 243 -371 z "},"Ṭ":{"ha":778,"x_min":7,"x_max":771,"o":"m 258 0 l 258 700 l 7 700 l 7 894 l 771 894 l 771 700 l 519 700 l 519 0 l 258 0 m 299 -244 l 299 -78 l 479 -78 l 479 -244 l 299 -244 z "},"Ṯ":{"ha":778,"x_min":7,"x_max":771,"o":"m 258 0 l 258 700 l 7 700 l 7 894 l 771 894 l 771 700 l 519 700 l 519 0 l 258 0 m 160 -244 l 160 -89 l 615 -89 l 615 -244 l 160 -244 z "},"U":{"ha":957,"x_min":56,"x_max":901,"o":"m 479 -14 q 259 27 354 -14 q 110 148 164 68 q 56 344 56 228 l 56 894 l 317 894 l 317 372 q 479 208 317 208 q 599 249 557 208 q 640 372 640 289 l 640 894 l 901 894 l 901 344 q 848 148 901 228 q 699 27 794 68 q 479 -14 604 -14 z "},"Ú":{"ha":957,"x_min":56,"x_max":901,"o":"m 381 956 l 503 1242 l 706 1242 l 572 956 l 381 956 m 479 -14 q 259 27 354 -14 q 110 148 164 68 q 56 344 56 228 l 56 894 l 317 894 l 317 372 q 479 208 317 208 q 599 249 557 208 q 640 372 640 289 l 640 894 l 901 894 l 901 344 q 848 148 901 228 q 699 27 794 68 q 479 -14 604 -14 z "},"Ŭ":{"ha":957,"x_min":56,"x_max":901,"o":"m 478 956 q 288 1022 360 956 q 215 1215 215 1089 l 385 1215 q 405 1131 385 1164 q 478 1099 425 1099 q 551 1131 531 1099 q 572 1215 572 1164 l 742 1215 q 669 1022 742 1089 q 478 956 597 956 m 479 -14 q 259 27 354 -14 q 110 148 164 68 q 56 344 56 228 l 56 894 l 317 894 l 317 372 q 479 208 317 208 q 599 249 557 208 q 640 372 640 289 l 640 894 l 901 894 l 901 344 q 848 148 901 228 q 699 27 794 68 q 479 -14 604 -14 z "},"Ǔ":{"ha":957,"x_min":56,"x_max":901,"o":"m 399 956 l 183 1233 l 378 1233 l 478 1082 l 583 1233 l 772 1233 l 557 956 l 399 956 m 479 -14 q 259 27 354 -14 q 110 148 164 68 q 56 344 56 228 l 56 894 l 317 894 l 317 372 q 479 208 317 208 q 599 249 557 208 q 640 372 640 289 l 640 894 l 901 894 l 901 344 q 848 148 901 228 q 699 27 794 68 q 479 -14 604 -14 z "},"Û":{"ha":957,"x_min":56,"x_max":901,"o":"m 185 956 l 400 1233 l 558 1233 l 774 956 l 585 956 l 479 1106 l 379 956 l 185 956 m 479 -14 q 259 27 354 -14 q 110 148 164 68 q 56 344 56 228 l 56 894 l 317 894 l 317 372 q 479 208 317 208 q 599 249 557 208 q 640 372 640 289 l 640 894 l 901 894 l 901 344 q 848 148 901 228 q 699 27 794 68 q 479 -14 604 -14 z "},"Ü":{"ha":957,"x_min":56,"x_max":901,"o":"m 238 993 l 238 1160 l 419 1160 l 419 993 l 238 993 m 538 993 l 538 1160 l 719 1160 l 719 993 l 538 993 m 479 -14 q 259 27 354 -14 q 110 148 164 68 q 56 344 56 228 l 56 894 l 317 894 l 317 372 q 479 208 317 208 q 599 249 557 208 q 640 372 640 289 l 640 894 l 901 894 l 901 344 q 848 148 901 228 q 699 27 794 68 q 479 -14 604 -14 z "},"Ǘ":{"ha":957,"x_min":56,"x_max":901,"o":"m 385 1154 l 464 1344 l 658 1344 l 561 1154 l 385 1154 m 240 961 l 240 1118 l 417 1118 l 417 961 l 240 961 m 539 961 l 539 1118 l 715 1118 l 715 961 l 539 961 m 479 -14 q 259 27 354 -14 q 110 148 164 68 q 56 344 56 228 l 56 894 l 317 894 l 317 372 q 479 208 317 208 q 599 249 557 208 q 640 372 640 289 l 640 894 l 901 894 l 901 344 q 848 148 901 228 q 699 27 794 68 q 479 -14 604 -14 z "},"Ǚ":{"ha":957,"x_min":56,"x_max":901,"o":"m 389 1151 l 214 1336 l 406 1336 l 479 1235 l 556 1336 l 743 1336 l 568 1151 l 389 1151 m 238 961 l 238 1118 l 414 1118 l 414 961 l 238 961 m 536 961 l 536 1118 l 713 1118 l 713 961 l 536 961 m 479 -14 q 259 27 354 -14 q 110 148 164 68 q 56 344 56 228 l 56 894 l 317 894 l 317 372 q 479 208 317 208 q 599 249 557 208 q 640 372 640 289 l 640 894 l 901 894 l 901 344 q 848 148 901 228 q 699 27 794 68 q 479 -14 604 -14 z "},"Ǜ":{"ha":957,"x_min":56,"x_max":901,"o":"m 396 1179 l 299 1369 l 493 1369 l 572 1179 l 396 1179 m 242 986 l 242 1143 l 418 1143 l 418 986 l 242 986 m 540 986 l 540 1143 l 717 1143 l 717 986 l 540 986 m 479 -14 q 259 27 354 -14 q 110 148 164 68 q 56 344 56 228 l 56 894 l 317 894 l 317 372 q 479 208 317 208 q 599 249 557 208 q 640 372 640 289 l 640 894 l 901 894 l 901 344 q 848 148 901 228 q 699 27 794 68 q 479 -14 604 -14 z "},"Ǖ":{"ha":957,"x_min":56,"x_max":901,"o":"m 250 1213 l 250 1368 l 706 1368 l 706 1213 l 250 1213 m 238 971 l 238 1138 l 419 1138 l 419 971 l 238 971 m 538 971 l 538 1138 l 719 1138 l 719 971 l 538 971 m 479 -14 q 259 27 354 -14 q 110 148 164 68 q 56 344 56 228 l 56 894 l 317 894 l 317 372 q 479 208 317 208 q 599 249 557 208 q 640 372 640 289 l 640 894 l 901 894 l 901 344 q 848 148 901 228 q 699 27 794 68 q 479 -14 604 -14 z "},"Ụ":{"ha":957,"x_min":56,"x_max":901,"o":"m 479 -14 q 259 27 354 -14 q 110 148 164 68 q 56 344 56 228 l 56 894 l 317 894 l 317 372 q 479 208 317 208 q 599 249 557 208 q 640 372 640 289 l 640 894 l 901 894 l 901 344 q 848 148 901 228 q 699 27 794 68 q 479 -14 604 -14 m 388 -244 l 388 -78 l 568 -78 l 568 -244 l 388 -244 z "},"Ù":{"ha":957,"x_min":56,"x_max":901,"o":"m 392 956 l 257 1242 l 461 1242 l 583 956 l 392 956 m 479 -14 q 259 27 354 -14 q 110 148 164 68 q 56 344 56 228 l 56 894 l 317 894 l 317 372 q 479 208 317 208 q 599 249 557 208 q 640 372 640 289 l 640 894 l 901 894 l 901 344 q 848 148 901 228 q 699 27 794 68 q 479 -14 604 -14 z "},"Ủ":{"ha":957,"x_min":56,"x_max":901,"o":"m 378 956 l 378 1068 q 475 1088 450 1072 q 500 1129 500 1103 q 417 1175 500 1175 q 374 1172 397 1175 q 335 1164 351 1168 l 335 1272 q 494 1292 396 1292 q 640 1252 589 1292 q 690 1151 690 1213 q 660 1060 690 1092 q 574 1013 631 1029 l 574 956 l 378 956 m 479 -14 q 259 27 354 -14 q 110 148 164 68 q 56 344 56 228 l 56 894 l 317 894 l 317 372 q 479 208 317 208 q 599 249 557 208 q 640 372 640 289 l 640 894 l 901 894 l 901 344 q 848 148 901 228 q 699 27 794 68 q 479 -14 604 -14 z "},"Ư":{"ha":1168,"x_min":56,"x_max":1203,"o":"m 479 -14 q 259 27 354 -14 q 110 148 164 68 q 56 344 56 228 l 56 894 l 317 894 l 317 372 q 479 208 317 208 q 599 249 557 208 q 640 372 640 289 l 640 894 l 901 894 l 901 819 q 992 852 965 822 q 1018 956 1018 882 l 1203 956 q 1173 776 1203 843 q 1077 681 1143 710 q 901 650 1011 653 l 901 344 q 848 148 901 228 q 699 27 794 68 q 479 -14 604 -14 z "},"Ứ":{"ha":1168,"x_min":56,"x_max":1203,"o":"m 369 956 l 492 1242 l 694 1242 l 561 956 l 369 956 m 479 -14 q 259 27 354 -14 q 110 148 164 68 q 56 344 56 228 l 56 894 l 317 894 l 317 372 q 479 208 317 208 q 599 249 557 208 q 640 372 640 289 l 640 894 l 901 894 l 901 819 q 992 852 965 822 q 1018 956 1018 882 l 1203 956 q 1173 776 1203 843 q 1077 681 1143 710 q 901 650 1011 653 l 901 344 q 848 148 901 228 q 699 27 794 68 q 479 -14 604 -14 z "},"Ự":{"ha":1168,"x_min":56,"x_max":1203,"o":"m 479 -14 q 259 27 354 -14 q 110 148 164 68 q 56 344 56 228 l 56 894 l 317 894 l 317 372 q 479 208 317 208 q 599 249 557 208 q 640 372 640 289 l 640 894 l 901 894 l 901 819 q 992 852 965 822 q 1018 956 1018 882 l 1203 956 q 1173 776 1203 843 q 1077 681 1143 710 q 901 650 1011 653 l 901 344 q 848 148 901 228 q 699 27 794 68 q 479 -14 604 -14 m 394 -244 l 394 -78 l 575 -78 l 575 -244 l 394 -244 z "},"Ừ":{"ha":1168,"x_min":56,"x_max":1203,"o":"m 390 956 l 256 1242 l 460 1242 l 582 956 l 390 956 m 479 -14 q 259 27 354 -14 q 110 148 164 68 q 56 344 56 228 l 56 894 l 317 894 l 317 372 q 479 208 317 208 q 599 249 557 208 q 640 372 640 289 l 640 894 l 901 894 l 901 819 q 992 852 965 822 q 1018 956 1018 882 l 1203 956 q 1173 776 1203 843 q 1077 681 1143 710 q 901 650 1011 653 l 901 344 q 848 148 901 228 q 699 27 794 68 q 479 -14 604 -14 z "},"Ử":{"ha":1168,"x_min":56,"x_max":1203,"o":"m 338 954 l 338 1067 q 435 1086 410 1071 q 460 1128 460 1101 q 376 1174 460 1174 q 334 1170 357 1174 q 294 1163 311 1167 l 294 1271 q 454 1290 356 1290 q 599 1251 549 1290 q 650 1150 650 1211 q 620 1059 650 1090 q 533 1011 590 1028 l 533 954 l 338 954 m 479 -14 q 259 27 354 -14 q 110 148 164 68 q 56 344 56 228 l 56 894 l 317 894 l 317 372 q 479 208 317 208 q 599 249 557 208 q 640 372 640 289 l 640 894 l 901 894 l 901 819 q 992 852 965 822 q 1018 956 1018 882 l 1203 956 q 1173 776 1203 843 q 1077 681 1143 710 q 901 650 1011 653 l 901 344 q 848 148 901 228 q 699 27 794 68 q 479 -14 604 -14 z "},"Ữ":{"ha":1168,"x_min":56,"x_max":1203,"o":"m 618 961 q 529 976 572 961 q 446 1005 486 990 q 367 1019 406 1019 q 290 1005 324 1019 q 231 965 256 990 l 231 1129 q 286 1162 250 1149 q 363 1175 322 1175 q 450 1160 410 1175 q 531 1131 490 1146 q 614 1117 571 1117 q 690 1133 658 1117 q 739 1172 722 1149 l 739 1007 q 692 975 725 989 q 618 961 658 961 m 479 -14 q 259 27 354 -14 q 110 148 164 68 q 56 344 56 228 l 56 894 l 317 894 l 317 372 q 479 208 317 208 q 599 249 557 208 q 640 372 640 289 l 640 894 l 901 894 l 901 819 q 992 852 965 822 q 1018 956 1018 882 l 1203 956 q 1173 776 1203 843 q 1077 681 1143 710 q 901 650 1011 653 l 901 344 q 848 148 901 228 q 699 27 794 68 q 479 -14 604 -14 z "},"Ű":{"ha":957,"x_min":56,"x_max":901,"o":"m 186 956 l 306 1211 l 525 1211 l 383 956 l 186 956 m 511 956 l 631 1211 l 850 1211 l 708 956 l 511 956 m 479 -14 q 259 27 354 -14 q 110 148 164 68 q 56 344 56 228 l 56 894 l 317 894 l 317 372 q 479 208 317 208 q 599 249 557 208 q 640 372 640 289 l 640 894 l 901 894 l 901 344 q 848 148 901 228 q 699 27 794 68 q 479 -14 604 -14 z "},"Ū":{"ha":957,"x_min":56,"x_max":901,"o":"m 250 1006 l 250 1161 l 706 1161 l 706 1006 l 250 1006 m 479 -14 q 259 27 354 -14 q 110 148 164 68 q 56 344 56 228 l 56 894 l 317 894 l 317 372 q 479 208 317 208 q 599 249 557 208 q 640 372 640 289 l 640 894 l 901 894 l 901 344 q 848 148 901 228 q 699 27 794 68 q 479 -14 604 -14 z "},"Ų":{"ha":957,"x_min":56,"x_max":901,"o":"m 499 -306 q 367 -273 419 -306 q 315 -171 315 -240 q 340 -81 315 -122 q 404 -10 364 -39 q 151 97 247 7 q 56 344 56 188 l 56 894 l 317 894 l 317 372 q 479 208 317 208 q 599 249 557 208 q 640 372 640 289 l 640 894 l 901 894 l 901 344 q 815 107 901 196 q 585 -6 728 18 q 531 -61 551 -32 q 511 -124 511 -90 q 571 -179 511 -179 q 608 -175 589 -179 q 640 -164 628 -171 l 640 -283 q 581 -299 619 -292 q 499 -306 542 -306 z "},"Ů":{"ha":957,"x_min":56,"x_max":901,"o":"m 478 956 q 335 1008 386 956 q 285 1138 285 1061 q 335 1268 285 1215 q 478 1321 386 1321 q 621 1268 571 1321 q 671 1138 671 1215 q 621 1008 671 1061 q 478 956 571 956 m 478 1063 q 536 1085 517 1063 q 556 1138 556 1107 q 536 1190 556 1168 q 478 1213 517 1213 q 420 1190 440 1213 q 400 1138 400 1168 q 420 1085 400 1107 q 478 1063 440 1063 m 479 -14 q 259 27 354 -14 q 110 148 164 68 q 56 344 56 228 l 56 894 l 317 894 l 317 372 q 479 208 317 208 q 599 249 557 208 q 640 372 640 289 l 640 894 l 901 894 l 901 344 q 848 148 901 228 q 699 27 794 68 q 479 -14 604 -14 z "},"Ũ":{"ha":957,"x_min":56,"x_max":901,"o":"m 611 967 q 522 981 565 967 q 439 1010 479 996 q 360 1025 399 1025 q 283 1010 317 1025 q 224 971 249 996 l 224 1135 q 279 1167 243 1154 q 356 1181 315 1181 q 443 1166 403 1181 q 524 1137 483 1151 q 607 1122 564 1122 q 683 1138 651 1122 q 732 1178 715 1154 l 732 1013 q 685 981 718 994 q 611 967 651 967 m 479 -14 q 259 27 354 -14 q 110 148 164 68 q 56 344 56 228 l 56 894 l 317 894 l 317 372 q 479 208 317 208 q 599 249 557 208 q 640 372 640 289 l 640 894 l 901 894 l 901 344 q 848 148 901 228 q 699 27 794 68 q 479 -14 604 -14 z "},"V":{"ha":1032,"x_min":35,"x_max":997,"o":"m 378 0 l 35 894 l 307 894 l 515 303 l 724 894 l 997 894 l 654 0 l 378 0 z "},"W":{"ha":1238,"x_min":35,"x_max":1203,"o":"m 243 0 l 35 894 l 290 894 l 392 421 l 490 760 l 490 894 l 704 894 l 840 419 l 947 894 l 1203 894 l 996 0 l 760 0 l 625 463 l 479 0 l 243 0 z "},"Ẃ":{"ha":1238,"x_min":35,"x_max":1203,"o":"m 494 956 l 617 1242 l 819 1242 l 686 956 l 494 956 m 243 0 l 35 894 l 290 894 l 392 421 l 490 760 l 490 894 l 704 894 l 840 419 l 947 894 l 1203 894 l 996 0 l 760 0 l 625 463 l 479 0 l 243 0 z "},"Ŵ":{"ha":1238,"x_min":35,"x_max":1203,"o":"m 329 956 l 544 1233 l 703 1233 l 918 956 l 729 956 l 624 1106 l 524 956 l 329 956 m 243 0 l 35 894 l 290 894 l 392 421 l 490 760 l 490 894 l 704 894 l 840 419 l 947 894 l 1203 894 l 996 0 l 760 0 l 625 463 l 479 0 l 243 0 z "},"Ẅ":{"ha":1238,"x_min":35,"x_max":1203,"o":"m 385 993 l 385 1160 l 567 1160 l 567 993 l 385 993 m 685 993 l 685 1160 l 867 1160 l 867 993 l 685 993 m 243 0 l 35 894 l 290 894 l 392 421 l 490 760 l 490 894 l 704 894 l 840 419 l 947 894 l 1203 894 l 996 0 l 760 0 l 625 463 l 479 0 l 243 0 z "},"Ẁ":{"ha":1238,"x_min":35,"x_max":1203,"o":"m 504 956 l 369 1242 l 574 1242 l 696 956 l 504 956 m 243 0 l 35 894 l 290 894 l 392 421 l 490 760 l 490 894 l 704 894 l 840 419 l 947 894 l 1203 894 l 996 0 l 760 0 l 625 463 l 479 0 l 243 0 z "},"X":{"ha":1046,"x_min":35,"x_max":1011,"o":"m 35 0 l 365 453 l 47 894 l 358 894 l 522 660 l 688 894 l 999 894 l 681 453 l 1011 0 l 696 0 l 522 243 l 350 0 l 35 0 z "},"Y":{"ha":975,"x_min":35,"x_max":940,"o":"m 357 0 l 357 328 l 35 894 l 307 894 l 488 557 l 668 894 l 940 894 l 618 328 l 618 0 l 357 0 z "},"Ý":{"ha":975,"x_min":35,"x_max":940,"o":"m 386 956 l 508 1242 l 711 1242 l 578 956 l 386 956 m 357 0 l 357 328 l 35 894 l 307 894 l 488 557 l 668 894 l 940 894 l 618 328 l 618 0 l 357 0 z "},"Ŷ":{"ha":975,"x_min":35,"x_max":940,"o":"m 193 956 l 408 1233 l 567 1233 l 782 956 l 593 956 l 488 1106 l 388 956 l 193 956 m 357 0 l 357 328 l 35 894 l 307 894 l 488 557 l 668 894 l 940 894 l 618 328 l 618 0 l 357 0 z "},"Ÿ":{"ha":975,"x_min":35,"x_max":940,"o":"m 249 993 l 249 1160 l 431 1160 l 431 993 l 249 993 m 549 993 l 549 1160 l 731 1160 l 731 993 l 549 993 m 357 0 l 357 328 l 35 894 l 307 894 l 488 557 l 668 894 l 940 894 l 618 328 l 618 0 l 357 0 z "},"Ẏ":{"ha":975,"x_min":35,"x_max":940,"o":"m 397 993 l 397 1160 l 578 1160 l 578 993 l 397 993 m 357 0 l 357 328 l 35 894 l 307 894 l 488 557 l 668 894 l 940 894 l 618 328 l 618 0 l 357 0 z "},"Ỵ":{"ha":975,"x_min":35,"x_max":940,"o":"m 357 0 l 357 328 l 35 894 l 307 894 l 488 557 l 668 894 l 940 894 l 618 328 l 618 0 l 357 0 m 397 -243 l 397 -76 l 578 -76 l 578 -243 l 397 -243 z "},"Ỳ":{"ha":975,"x_min":35,"x_max":940,"o":"m 382 956 l 247 1242 l 451 1242 l 574 956 l 382 956 m 357 0 l 357 328 l 35 894 l 307 894 l 488 557 l 668 894 l 940 894 l 618 328 l 618 0 l 357 0 z "},"Ỷ":{"ha":975,"x_min":35,"x_max":940,"o":"m 382 956 l 382 1068 q 479 1088 454 1072 q 504 1129 504 1103 q 421 1175 504 1175 q 378 1172 401 1175 q 339 1164 356 1168 l 339 1272 q 499 1292 400 1292 q 644 1252 593 1292 q 694 1151 694 1213 q 665 1060 694 1092 q 578 1013 635 1029 l 578 956 l 382 956 m 357 0 l 357 328 l 35 894 l 307 894 l 488 557 l 668 894 l 940 894 l 618 328 l 618 0 l 357 0 z "},"Ỹ":{"ha":975,"x_min":35,"x_max":940,"o":"m 621 967 q 532 981 575 967 q 449 1010 489 996 q 369 1025 408 1025 q 292 1010 326 1025 q 233 971 258 996 l 233 1135 q 289 1167 253 1154 q 365 1181 325 1181 q 453 1166 413 1181 q 533 1137 493 1151 q 617 1122 574 1122 q 693 1138 661 1122 q 742 1178 725 1154 l 742 1013 q 694 981 728 994 q 621 967 661 967 m 357 0 l 357 328 l 35 894 l 307 894 l 488 557 l 668 894 l 940 894 l 618 328 l 618 0 l 357 0 z "},"Z":{"ha":803,"x_min":35,"x_max":775,"o":"m 35 0 l 35 131 l 424 694 l 56 694 l 56 894 l 767 894 l 767 758 l 382 200 l 775 200 l 775 0 l 35 0 z "},"Ź":{"ha":803,"x_min":35,"x_max":775,"o":"m 290 956 l 413 1242 l 615 1242 l 482 956 l 290 956 m 35 0 l 35 131 l 424 694 l 56 694 l 56 894 l 767 894 l 767 758 l 382 200 l 775 200 l 775 0 l 35 0 z "},"Ž":{"ha":803,"x_min":35,"x_max":775,"o":"m 342 956 l 126 1233 l 321 1233 l 421 1082 l 526 1233 l 715 1233 l 500 956 l 342 956 m 35 0 l 35 131 l 424 694 l 56 694 l 56 894 l 767 894 l 767 758 l 382 200 l 775 200 l 775 0 l 35 0 z "},"Ż":{"ha":803,"x_min":35,"x_max":775,"o":"m 318 993 l 318 1160 l 499 1160 l 499 993 l 318 993 m 35 0 l 35 131 l 424 694 l 56 694 l 56 894 l 767 894 l 767 758 l 382 200 l 775 200 l 775 0 l 35 0 z "},"Ẓ":{"ha":803,"x_min":35,"x_max":775,"o":"m 35 0 l 35 131 l 424 694 l 56 694 l 56 894 l 767 894 l 767 758 l 382 200 l 775 200 l 775 0 l 35 0 m 308 -244 l 308 -78 l 489 -78 l 489 -244 l 308 -244 z "},"a":{"ha":789,"x_min":35,"x_max":733,"o":"m 268 -14 q 152 8 206 -14 q 67 78 99 31 q 35 197 35 125 q 104 359 35 301 q 314 417 174 417 l 485 417 l 485 429 q 453 486 485 468 q 340 504 421 504 q 115 469 226 504 l 115 626 q 240 659 165 646 q 393 672 315 672 q 642 608 550 672 q 733 406 733 544 l 733 0 l 506 0 l 493 53 q 403 4 458 22 q 268 -14 349 -14 m 357 139 q 433 154 401 139 q 485 192 464 169 l 485 274 l 358 274 q 272 206 272 274 q 357 139 272 139 z "},"á":{"ha":789,"x_min":35,"x_max":733,"o":"m 299 725 l 421 1011 l 624 1011 l 490 725 l 299 725 m 268 -14 q 152 8 206 -14 q 67 78 99 31 q 35 197 35 125 q 104 359 35 301 q 314 417 174 417 l 485 417 l 485 429 q 453 486 485 468 q 340 504 421 504 q 115 469 226 504 l 115 626 q 240 659 165 646 q 393 672 315 672 q 642 608 550 672 q 733 406 733 544 l 733 0 l 506 0 l 493 53 q 403 4 458 22 q 268 -14 349 -14 m 357 139 q 433 154 401 139 q 485 192 464 169 l 485 274 l 358 274 q 272 206 272 274 q 357 139 272 139 z "},"ă":{"ha":789,"x_min":35,"x_max":733,"o":"m 424 726 q 233 793 306 726 q 161 986 161 860 l 331 986 q 351 902 331 935 q 424 869 371 869 q 497 902 476 869 q 518 986 518 935 l 688 986 q 615 793 688 860 q 424 726 543 726 m 268 -14 q 152 8 206 -14 q 67 78 99 31 q 35 197 35 125 q 104 359 35 301 q 314 417 174 417 l 485 417 l 485 429 q 453 486 485 468 q 340 504 421 504 q 115 469 226 504 l 115 626 q 240 659 165 646 q 393 672 315 672 q 642 608 550 672 q 733 406 733 544 l 733 0 l 506 0 l 493 53 q 403 4 458 22 q 268 -14 349 -14 m 357 139 q 433 154 401 139 q 485 192 464 169 l 485 274 l 358 274 q 272 206 272 274 q 357 139 272 139 z "},"ắ":{"ha":789,"x_min":35,"x_max":733,"o":"m 317 958 l 408 1176 l 582 1176 l 467 958 l 317 958 m 393 725 q 211 782 282 725 q 140 964 140 839 l 286 964 q 314 883 286 914 q 393 853 342 853 q 472 883 446 853 q 499 964 499 914 l 644 964 q 574 782 644 839 q 393 725 504 725 m 268 -14 q 152 8 206 -14 q 67 78 99 31 q 35 197 35 125 q 104 359 35 301 q 314 417 174 417 l 485 417 l 485 429 q 453 486 485 468 q 340 504 421 504 q 115 469 226 504 l 115 626 q 240 659 165 646 q 393 672 315 672 q 642 608 550 672 q 733 406 733 544 l 733 0 l 506 0 l 493 53 q 403 4 458 22 q 268 -14 349 -14 m 357 139 q 433 154 401 139 q 485 192 464 169 l 485 274 l 358 274 q 272 206 272 274 q 357 139 272 139 z "},"ặ":{"ha":789,"x_min":35,"x_max":733,"o":"m 415 725 q 225 792 297 725 q 153 985 153 858 l 322 985 q 342 901 322 933 q 415 868 363 868 q 489 901 468 868 q 510 985 510 933 l 679 985 q 607 792 679 858 q 415 725 535 725 m 268 -14 q 152 8 206 -14 q 67 78 99 31 q 35 197 35 125 q 104 359 35 301 q 314 417 174 417 l 485 417 l 485 429 q 453 486 485 468 q 340 504 421 504 q 115 469 226 504 l 115 626 q 240 659 165 646 q 393 672 315 672 q 642 608 550 672 q 733 406 733 544 l 733 0 l 506 0 l 493 53 q 403 4 458 22 q 268 -14 349 -14 m 357 139 q 433 154 401 139 q 485 192 464 169 l 485 274 l 358 274 q 272 206 272 274 q 357 139 272 139 m 333 -244 l 333 -78 l 514 -78 l 514 -244 l 333 -244 z "},"ằ":{"ha":789,"x_min":35,"x_max":733,"o":"m 331 958 l 215 1176 l 389 1176 l 481 958 l 331 958 m 404 725 q 223 782 293 725 q 153 964 153 839 l 299 964 q 326 883 299 914 q 404 853 353 853 q 484 883 457 853 q 511 964 511 914 l 657 964 q 586 782 657 839 q 404 725 515 725 m 268 -14 q 152 8 206 -14 q 67 78 99 31 q 35 197 35 125 q 104 359 35 301 q 314 417 174 417 l 485 417 l 485 429 q 453 486 485 468 q 340 504 421 504 q 115 469 226 504 l 115 626 q 240 659 165 646 q 393 672 315 672 q 642 608 550 672 q 733 406 733 544 l 733 0 l 506 0 l 493 53 q 403 4 458 22 q 268 -14 349 -14 m 357 139 q 433 154 401 139 q 485 192 464 169 l 485 274 l 358 274 q 272 206 272 274 q 357 139 272 139 z "},"ẳ":{"ha":789,"x_min":35,"x_max":733,"o":"m 318 965 l 318 1051 q 399 1067 376 1054 q 422 1103 422 1081 q 406 1134 422 1126 q 357 1142 389 1142 q 319 1138 338 1142 q 286 1129 300 1135 l 286 1222 q 428 1240 340 1240 q 548 1206 506 1240 q 590 1121 590 1172 q 566 1047 590 1074 q 486 1007 542 1021 l 486 965 l 318 965 m 403 725 q 222 782 292 725 q 151 964 151 839 l 297 964 q 324 883 297 914 q 403 853 351 853 q 483 883 456 853 q 510 964 510 914 l 656 964 q 585 782 656 839 q 403 725 514 725 m 268 -14 q 152 8 206 -14 q 67 78 99 31 q 35 197 35 125 q 104 359 35 301 q 314 417 174 417 l 485 417 l 485 429 q 453 486 485 468 q 340 504 421 504 q 115 469 226 504 l 115 626 q 240 659 165 646 q 393 672 315 672 q 642 608 550 672 q 733 406 733 544 l 733 0 l 506 0 l 493 53 q 403 4 458 22 q 268 -14 349 -14 m 357 139 q 433 154 401 139 q 485 192 464 169 l 485 274 l 358 274 q 272 206 272 274 q 357 139 272 139 z "},"ẵ":{"ha":789,"x_min":35,"x_max":733,"o":"m 539 989 q 453 1003 496 989 q 372 1032 411 1018 q 294 1046 332 1046 q 219 1032 251 1046 q 163 993 186 1018 l 163 1135 q 217 1167 182 1154 q 290 1179 251 1179 q 376 1165 336 1179 q 454 1137 415 1151 q 535 1122 493 1122 q 610 1138 578 1122 q 658 1176 642 1153 l 658 1033 q 612 1002 644 1015 q 539 989 579 989 m 407 725 q 226 782 296 725 q 156 964 156 839 l 301 964 q 328 883 301 914 q 407 853 356 853 q 487 883 460 853 q 514 964 514 914 l 660 964 q 589 782 660 839 q 407 725 518 725 m 268 -14 q 152 8 206 -14 q 67 78 99 31 q 35 197 35 125 q 104 359 35 301 q 314 417 174 417 l 485 417 l 485 429 q 453 486 485 468 q 340 504 421 504 q 115 469 226 504 l 115 626 q 240 659 165 646 q 393 672 315 672 q 642 608 550 672 q 733 406 733 544 l 733 0 l 506 0 l 493 53 q 403 4 458 22 q 268 -14 349 -14 m 357 139 q 433 154 401 139 q 485 192 464 169 l 485 274 l 358 274 q 272 206 272 274 q 357 139 272 139 z "},"ǎ":{"ha":789,"x_min":35,"x_max":733,"o":"m 322 725 l 107 1003 l 301 1003 l 401 851 l 507 1003 l 696 1003 l 481 725 l 322 725 m 268 -14 q 152 8 206 -14 q 67 78 99 31 q 35 197 35 125 q 104 359 35 301 q 314 417 174 417 l 485 417 l 485 429 q 453 486 485 468 q 340 504 421 504 q 115 469 226 504 l 115 626 q 240 659 165 646 q 393 672 315 672 q 642 608 550 672 q 733 406 733 544 l 733 0 l 506 0 l 493 53 q 403 4 458 22 q 268 -14 349 -14 m 357 139 q 433 154 401 139 q 485 192 464 169 l 485 274 l 358 274 q 272 206 272 274 q 357 139 272 139 z "},"â":{"ha":789,"x_min":35,"x_max":733,"o":"m 110 725 l 325 1003 l 483 1003 l 699 725 l 510 725 l 404 875 l 304 725 l 110 725 m 268 -14 q 152 8 206 -14 q 67 78 99 31 q 35 197 35 125 q 104 359 35 301 q 314 417 174 417 l 485 417 l 485 429 q 453 486 485 468 q 340 504 421 504 q 115 469 226 504 l 115 626 q 240 659 165 646 q 393 672 315 672 q 642 608 550 672 q 733 406 733 544 l 733 0 l 506 0 l 493 53 q 403 4 458 22 q 268 -14 349 -14 m 357 139 q 433 154 401 139 q 485 192 464 169 l 485 274 l 358 274 q 272 206 272 274 q 357 139 272 139 z "},"ấ":{"ha":789,"x_min":35,"x_max":861,"o":"m 569 899 l 668 1115 l 861 1115 l 753 899 l 569 899 m 107 725 l 304 936 l 496 936 l 693 725 l 486 725 l 400 835 l 314 725 l 107 725 m 268 -14 q 152 8 206 -14 q 67 78 99 31 q 35 197 35 125 q 104 359 35 301 q 314 417 174 417 l 485 417 l 485 429 q 453 486 485 468 q 340 504 421 504 q 115 469 226 504 l 115 626 q 240 659 165 646 q 393 672 315 672 q 642 608 550 672 q 733 406 733 544 l 733 0 l 506 0 l 493 53 q 403 4 458 22 q 268 -14 349 -14 m 357 139 q 433 154 401 139 q 485 192 464 169 l 485 274 l 358 274 q 272 206 272 274 q 357 139 272 139 z "},"ậ":{"ha":789,"x_min":35,"x_max":733,"o":"m 117 725 l 332 1003 l 490 1003 l 706 725 l 517 725 l 411 875 l 311 725 l 117 725 m 268 -14 q 152 8 206 -14 q 67 78 99 31 q 35 197 35 125 q 104 359 35 301 q 314 417 174 417 l 485 417 l 485 429 q 453 486 485 468 q 340 504 421 504 q 115 469 226 504 l 115 626 q 240 659 165 646 q 393 672 315 672 q 642 608 550 672 q 733 406 733 544 l 733 0 l 506 0 l 493 53 q 403 4 458 22 q 268 -14 349 -14 m 357 139 q 433 154 401 139 q 485 192 464 169 l 485 274 l 358 274 q 272 206 272 274 q 357 139 272 139 m 321 -244 l 321 -78 l 501 -78 l 501 -244 l 321 -244 z "},"ầ":{"ha":789,"x_min":-42,"x_max":733,"o":"m 67 899 l -42 1115 l 151 1115 l 250 899 l 67 899 m 126 725 l 324 936 l 515 936 l 713 725 l 506 725 l 419 835 l 333 725 l 126 725 m 268 -14 q 152 8 206 -14 q 67 78 99 31 q 35 197 35 125 q 104 359 35 301 q 314 417 174 417 l 485 417 l 485 429 q 453 486 485 468 q 340 504 421 504 q 115 469 226 504 l 115 626 q 240 659 165 646 q 393 672 315 672 q 642 608 550 672 q 733 406 733 544 l 733 0 l 506 0 l 493 53 q 403 4 458 22 q 268 -14 349 -14 m 357 139 q 433 154 401 139 q 485 192 464 169 l 485 274 l 358 274 q 272 206 272 274 q 357 139 272 139 z "},"ẩ":{"ha":789,"x_min":35,"x_max":860,"o":"m 585 867 l 585 968 q 665 981 646 969 q 685 1011 685 993 q 626 1042 685 1042 q 589 1039 607 1042 q 556 1032 571 1036 l 556 1132 q 617 1144 581 1139 q 693 1149 653 1149 q 819 1117 778 1149 q 860 1029 860 1085 q 835 951 860 982 q 758 913 811 921 l 758 867 l 585 867 m 108 725 l 306 936 l 497 936 l 694 725 l 488 725 l 401 835 l 315 725 l 108 725 m 268 -14 q 152 8 206 -14 q 67 78 99 31 q 35 197 35 125 q 104 359 35 301 q 314 417 174 417 l 485 417 l 485 429 q 453 486 485 468 q 340 504 421 504 q 115 469 226 504 l 115 626 q 240 659 165 646 q 393 672 315 672 q 642 608 550 672 q 733 406 733 544 l 733 0 l 506 0 l 493 53 q 403 4 458 22 q 268 -14 349 -14 m 357 139 q 433 154 401 139 q 485 192 464 169 l 485 274 l 358 274 q 272 206 272 274 q 357 139 272 139 z "},"ẫ":{"ha":789,"x_min":35,"x_max":733,"o":"m 540 956 q 455 970 497 956 q 373 999 413 985 q 296 1013 333 1013 q 220 999 253 1013 q 164 960 188 985 l 164 1106 q 218 1138 183 1125 q 292 1150 253 1150 q 377 1136 338 1150 q 456 1108 417 1122 q 536 1093 494 1093 q 611 1108 579 1093 q 660 1147 643 1124 l 660 1000 q 613 969 646 982 q 540 956 581 956 m 108 724 l 306 935 l 497 935 l 694 724 l 488 724 l 401 833 l 315 724 l 108 724 m 268 -14 q 152 8 206 -14 q 67 78 99 31 q 35 197 35 125 q 104 359 35 301 q 314 417 174 417 l 485 417 l 485 429 q 453 486 485 468 q 340 504 421 504 q 115 469 226 504 l 115 626 q 240 659 165 646 q 393 672 315 672 q 642 608 550 672 q 733 406 733 544 l 733 0 l 506 0 l 493 53 q 403 4 458 22 q 268 -14 349 -14 m 357 139 q 433 154 401 139 q 485 192 464 169 l 485 274 l 358 274 q 272 206 272 274 q 357 139 272 139 z "},"ä":{"ha":789,"x_min":35,"x_max":733,"o":"m 178 763 l 178 929 l 360 929 l 360 763 l 178 763 m 478 763 l 478 929 l 660 929 l 660 763 l 478 763 m 268 -14 q 152 8 206 -14 q 67 78 99 31 q 35 197 35 125 q 104 359 35 301 q 314 417 174 417 l 485 417 l 485 429 q 453 486 485 468 q 340 504 421 504 q 115 469 226 504 l 115 626 q 240 659 165 646 q 393 672 315 672 q 642 608 550 672 q 733 406 733 544 l 733 0 l 506 0 l 493 53 q 403 4 458 22 q 268 -14 349 -14 m 357 139 q 433 154 401 139 q 485 192 464 169 l 485 274 l 358 274 q 272 206 272 274 q 357 139 272 139 z "},"ạ":{"ha":789,"x_min":35,"x_max":733,"o":"m 268 -14 q 152 8 206 -14 q 67 78 99 31 q 35 197 35 125 q 104 359 35 301 q 314 417 174 417 l 485 417 l 485 429 q 453 486 485 468 q 340 504 421 504 q 115 469 226 504 l 115 626 q 240 659 165 646 q 393 672 315 672 q 642 608 550 672 q 733 406 733 544 l 733 0 l 506 0 l 493 53 q 403 4 458 22 q 268 -14 349 -14 m 357 139 q 433 154 401 139 q 485 192 464 169 l 485 274 l 358 274 q 272 206 272 274 q 357 139 272 139 m 304 -244 l 304 -78 l 485 -78 l 485 -244 l 304 -244 z "},"à":{"ha":789,"x_min":35,"x_max":733,"o":"m 315 725 l 181 1011 l 385 1011 l 507 725 l 315 725 m 268 -14 q 152 8 206 -14 q 67 78 99 31 q 35 197 35 125 q 104 359 35 301 q 314 417 174 417 l 485 417 l 485 429 q 453 486 485 468 q 340 504 421 504 q 115 469 226 504 l 115 626 q 240 659 165 646 q 393 672 315 672 q 642 608 550 672 q 733 406 733 544 l 733 0 l 506 0 l 493 53 q 403 4 458 22 q 268 -14 349 -14 m 357 139 q 433 154 401 139 q 485 192 464 169 l 485 274 l 358 274 q 272 206 272 274 q 357 139 272 139 z "},"ả":{"ha":789,"x_min":35,"x_max":733,"o":"m 297 724 l 297 836 q 394 856 369 840 q 419 897 419 871 q 336 943 419 943 q 294 940 317 943 q 254 932 271 936 l 254 1040 q 414 1060 315 1060 q 559 1020 508 1060 q 610 919 610 981 q 580 828 610 860 q 493 781 550 797 l 493 724 l 297 724 m 268 -14 q 152 8 206 -14 q 67 78 99 31 q 35 197 35 125 q 104 359 35 301 q 314 417 174 417 l 485 417 l 485 429 q 453 486 485 468 q 340 504 421 504 q 115 469 226 504 l 115 626 q 240 659 165 646 q 393 672 315 672 q 642 608 550 672 q 733 406 733 544 l 733 0 l 506 0 l 493 53 q 403 4 458 22 q 268 -14 349 -14 m 357 139 q 433 154 401 139 q 485 192 464 169 l 485 274 l 358 274 q 272 206 272 274 q 357 139 272 139 z "},"ɑ":{"ha":843,"x_min":35,"x_max":781,"o":"m 342 -14 q 115 61 194 -14 q 35 306 35 136 q 77 501 35 418 q 192 628 119 583 q 357 672 265 672 q 451 659 410 672 q 519 626 493 646 l 519 658 l 781 658 l 781 0 l 554 0 l 542 51 q 455 3 503 21 q 342 -14 407 -14 m 417 175 q 474 185 447 175 q 519 215 501 196 l 519 449 q 478 475 500 467 q 424 483 456 483 q 301 304 301 483 q 328 203 301 231 q 417 175 356 175 z "},"ā":{"ha":789,"x_min":35,"x_max":733,"o":"m 204 744 l 204 900 l 660 900 l 660 744 l 204 744 m 268 -14 q 152 8 206 -14 q 67 78 99 31 q 35 197 35 125 q 104 359 35 301 q 314 417 174 417 l 485 417 l 485 429 q 453 486 485 468 q 340 504 421 504 q 115 469 226 504 l 115 626 q 240 659 165 646 q 393 672 315 672 q 642 608 550 672 q 733 406 733 544 l 733 0 l 506 0 l 493 53 q 403 4 458 22 q 268 -14 349 -14 m 357 139 q 433 154 401 139 q 485 192 464 169 l 485 274 l 358 274 q 272 206 272 274 q 357 139 272 139 z "},"ą":{"ha":789,"x_min":35,"x_max":733,"o":"m 268 -14 q 152 8 206 -14 q 67 78 99 31 q 35 197 35 125 q 104 359 35 301 q 314 417 174 417 l 485 417 l 485 429 q 453 486 485 468 q 340 504 421 504 q 115 469 226 504 l 115 626 q 240 659 165 646 q 393 672 315 672 q 642 608 550 672 q 733 406 733 544 l 733 0 l 679 0 q 622 -57 644 -26 q 599 -124 599 -87 q 658 -179 599 -179 q 696 -175 676 -179 q 728 -164 715 -171 l 728 -283 q 668 -299 707 -292 q 586 -306 629 -306 q 455 -273 507 -306 q 403 -171 403 -240 q 431 -74 403 -118 q 506 0 460 -29 l 493 53 q 403 4 458 22 q 268 -14 349 -14 m 357 139 q 433 154 401 139 q 485 192 464 169 l 485 274 l 358 274 q 272 206 272 274 q 357 139 272 139 z "},"å":{"ha":789,"x_min":35,"x_max":733,"o":"m 417 725 q 274 778 325 725 q 224 907 224 831 q 274 1038 224 985 q 417 1090 325 1090 q 560 1038 510 1090 q 610 907 610 985 q 560 778 610 831 q 417 725 510 725 m 417 832 q 475 854 456 832 q 494 907 494 876 q 475 960 494 938 q 417 982 456 982 q 359 960 379 982 q 339 907 339 938 q 359 854 339 876 q 417 832 379 832 m 268 -14 q 152 8 206 -14 q 67 78 99 31 q 35 197 35 125 q 104 359 35 301 q 314 417 174 417 l 485 417 l 485 429 q 453 486 485 468 q 340 504 421 504 q 115 469 226 504 l 115 626 q 240 659 165 646 q 393 672 315 672 q 642 608 550 672 q 733 406 733 544 l 733 0 l 506 0 l 493 53 q 403 4 458 22 q 268 -14 349 -14 m 357 139 q 433 154 401 139 q 485 192 464 169 l 485 274 l 358 274 q 272 206 272 274 q 357 139 272 139 z "},"ǻ":{"ha":789,"x_min":35,"x_max":733,"o":"m 301 1117 l 424 1344 l 626 1344 l 493 1117 l 301 1117 m 417 725 q 274 778 325 725 q 224 907 224 831 q 274 1038 224 985 q 417 1090 325 1090 q 560 1038 510 1090 q 610 907 610 985 q 560 778 610 831 q 417 725 510 725 m 417 832 q 475 854 456 832 q 494 907 494 876 q 475 960 494 938 q 417 982 456 982 q 359 960 379 982 q 339 907 339 938 q 359 854 339 876 q 417 832 379 832 m 268 -14 q 152 8 206 -14 q 67 78 99 31 q 35 197 35 125 q 104 359 35 301 q 314 417 174 417 l 485 417 l 485 429 q 453 486 485 468 q 340 504 421 504 q 115 469 226 504 l 115 626 q 240 659 165 646 q 393 672 315 672 q 642 608 550 672 q 733 406 733 544 l 733 0 l 506 0 l 493 53 q 403 4 458 22 q 268 -14 349 -14 m 357 139 q 433 154 401 139 q 485 192 464 169 l 485 274 l 358 274 q 272 206 272 274 q 357 139 272 139 z "},"ã":{"ha":789,"x_min":35,"x_max":733,"o":"m 553 736 q 464 751 507 736 q 381 780 421 765 q 301 794 340 794 q 224 780 258 794 q 165 740 190 765 l 165 904 q 221 937 185 924 q 297 950 257 950 q 385 935 344 950 q 465 906 425 921 q 549 892 506 892 q 625 908 593 892 q 674 947 657 924 l 674 782 q 626 750 660 764 q 553 736 593 736 m 268 -14 q 152 8 206 -14 q 67 78 99 31 q 35 197 35 125 q 104 359 35 301 q 314 417 174 417 l 485 417 l 485 429 q 453 486 485 468 q 340 504 421 504 q 115 469 226 504 l 115 626 q 240 659 165 646 q 393 672 315 672 q 642 608 550 672 q 733 406 733 544 l 733 0 l 506 0 l 493 53 q 403 4 458 22 q 268 -14 349 -14 m 357 139 q 433 154 401 139 q 485 192 464 169 l 485 274 l 358 274 q 272 206 272 274 q 357 139 272 139 z "},"æ":{"ha":1225,"x_min":35,"x_max":1190,"o":"m 288 -14 q 106 37 178 -14 q 35 197 35 88 q 104 359 35 301 q 314 417 174 417 l 485 417 l 485 429 q 453 486 485 468 q 340 504 421 504 q 115 469 226 504 l 115 626 q 240 659 165 646 q 393 672 315 672 q 521 658 467 672 q 618 617 575 644 q 719 658 660 644 q 847 672 779 672 q 1099 590 1008 672 q 1190 367 1190 508 l 1190 251 l 733 251 q 804 176 751 199 q 947 154 857 154 q 1062 165 1004 154 q 1154 189 1119 175 l 1154 32 q 883 -14 1057 -14 q 732 12 801 -14 q 618 83 663 38 q 488 16 567 46 q 288 -14 408 -14 m 733 393 l 965 393 l 965 417 q 941 481 965 456 q 856 506 917 506 q 764 480 792 506 q 733 404 736 454 l 733 393 m 357 139 q 433 153 401 139 q 485 188 464 167 l 485 274 l 358 274 q 272 206 272 274 q 357 139 272 139 z "},"ǽ":{"ha":1225,"x_min":35,"x_max":1190,"o":"m 501 725 l 624 1011 l 826 1011 l 693 725 l 501 725 m 288 -14 q 106 37 178 -14 q 35 197 35 88 q 104 359 35 301 q 314 417 174 417 l 485 417 l 485 429 q 453 486 485 468 q 340 504 421 504 q 115 469 226 504 l 115 626 q 240 659 165 646 q 393 672 315 672 q 521 658 467 672 q 618 617 575 644 q 719 658 660 644 q 847 672 779 672 q 1099 590 1008 672 q 1190 367 1190 508 l 1190 251 l 733 251 q 804 176 751 199 q 947 154 857 154 q 1062 165 1004 154 q 1154 189 1119 175 l 1154 32 q 883 -14 1057 -14 q 732 12 801 -14 q 618 83 663 38 q 488 16 567 46 q 288 -14 408 -14 m 733 393 l 965 393 l 965 417 q 941 481 965 456 q 856 506 917 506 q 764 480 792 506 q 733 404 736 454 l 733 393 m 357 139 q 433 153 401 139 q 485 188 464 167 l 485 274 l 358 274 q 272 206 272 274 q 357 139 272 139 z "},"b":{"ha":843,"x_min":63,"x_max":808,"o":"m 501 -14 q 390 3 438 -14 q 301 51 342 21 l 289 0 l 63 0 l 63 936 l 324 936 l 324 635 q 402 663 357 653 q 493 672 447 672 q 724 594 640 672 q 808 335 808 515 q 725 72 808 158 q 501 -14 642 -14 m 426 175 q 515 212 488 175 q 542 332 542 249 q 513 450 542 417 q 426 483 485 483 q 324 449 363 483 l 324 215 q 426 175 367 175 z "},"c":{"ha":703,"x_min":35,"x_max":668,"o":"m 422 -14 q 139 72 243 -14 q 35 329 35 157 q 83 522 35 446 q 219 635 132 599 q 424 672 307 672 q 556 662 497 672 q 667 626 614 651 l 667 443 q 481 482 585 482 q 347 449 392 482 q 301 329 301 415 q 344 213 301 249 q 481 176 388 176 q 578 188 531 176 q 668 222 625 200 l 668 31 q 555 -3 615 7 q 422 -14 494 -14 z "},"ć":{"ha":703,"x_min":35,"x_max":668,"o":"m 300 725 l 422 1011 l 625 1011 l 492 725 l 300 725 m 422 -14 q 139 72 243 -14 q 35 329 35 157 q 83 522 35 446 q 219 635 132 599 q 424 672 307 672 q 556 662 497 672 q 667 626 614 651 l 667 443 q 481 482 585 482 q 347 449 392 482 q 301 329 301 415 q 344 213 301 249 q 481 176 388 176 q 578 188 531 176 q 668 222 625 200 l 668 31 q 555 -3 615 7 q 422 -14 494 -14 z "},"č":{"ha":703,"x_min":35,"x_max":671,"o":"m 297 725 l 82 1003 l 276 1003 l 376 851 l 482 1003 l 671 1003 l 456 725 l 297 725 m 422 -14 q 139 72 243 -14 q 35 329 35 157 q 83 522 35 446 q 219 635 132 599 q 424 672 307 672 q 556 662 497 672 q 667 626 614 651 l 667 443 q 481 482 585 482 q 347 449 392 482 q 301 329 301 415 q 344 213 301 249 q 481 176 388 176 q 578 188 531 176 q 668 222 625 200 l 668 31 q 555 -3 615 7 q 422 -14 494 -14 z "},"ç":{"ha":703,"x_min":35,"x_max":668,"o":"m 393 -333 q 331 -330 368 -333 q 279 -322 294 -326 l 279 -219 q 361 -231 319 -231 q 438 -220 414 -231 q 461 -183 461 -210 q 440 -148 461 -156 q 386 -140 419 -140 l 299 -140 l 336 -8 q 115 94 196 10 q 35 329 35 178 q 83 522 35 446 q 219 635 132 599 q 424 672 307 672 q 556 662 497 672 q 667 626 614 651 l 667 443 q 481 482 585 482 q 347 449 392 482 q 301 329 301 415 q 344 213 301 249 q 481 176 388 176 q 578 188 531 176 q 668 222 625 200 l 668 31 q 578 1 625 11 q 478 -12 531 -10 l 461 -57 q 580 -94 543 -57 q 617 -187 617 -131 q 562 -294 617 -256 q 393 -333 507 -333 z "},"ĉ":{"ha":703,"x_min":35,"x_max":693,"o":"m 104 725 l 319 1003 l 478 1003 l 693 725 l 504 725 l 399 875 l 299 725 l 104 725 m 422 -14 q 139 72 243 -14 q 35 329 35 157 q 83 522 35 446 q 219 635 132 599 q 424 672 307 672 q 556 662 497 672 q 667 626 614 651 l 667 443 q 481 482 585 482 q 347 449 392 482 q 301 329 301 415 q 344 213 301 249 q 481 176 388 176 q 578 188 531 176 q 668 222 625 200 l 668 31 q 555 -3 615 7 q 422 -14 494 -14 z "},"ċ":{"ha":703,"x_min":35,"x_max":668,"o":"m 339 763 l 339 929 l 519 929 l 519 763 l 339 763 m 422 -14 q 139 72 243 -14 q 35 329 35 157 q 83 522 35 446 q 219 635 132 599 q 424 672 307 672 q 556 662 497 672 q 667 626 614 651 l 667 443 q 481 482 585 482 q 347 449 392 482 q 301 329 301 415 q 344 213 301 249 q 481 176 388 176 q 578 188 531 176 q 668 222 625 200 l 668 31 q 555 -3 615 7 q 422 -14 494 -14 z "},"d":{"ha":843,"x_min":35,"x_max":781,"o":"m 342 -14 q 180 17 249 -14 q 73 119 111 49 q 35 308 35 190 q 78 510 35 429 q 193 631 121 590 q 350 672 265 672 q 441 663 396 672 q 519 635 486 653 l 519 936 l 781 936 l 781 0 l 554 0 l 542 51 q 455 3 503 21 q 342 -14 407 -14 m 417 175 q 519 215 476 175 l 519 449 q 417 483 481 483 q 333 438 365 483 q 301 307 301 392 q 329 199 301 224 q 417 175 357 175 z "},"ð":{"ha":821,"x_min":35,"x_max":793,"o":"m 407 -14 q 121 65 207 -14 q 35 281 35 143 q 119 494 35 425 q 353 564 203 564 q 451 551 399 564 q 539 515 504 539 l 539 549 q 535 613 539 583 q 519 667 531 643 l 372 604 l 372 683 l 465 724 q 357 744 426 744 q 251 733 300 744 q 154 701 203 722 l 154 869 q 269 899 207 889 q 400 908 332 908 q 557 883 490 908 q 671 813 624 857 l 793 865 l 793 785 l 719 753 q 767 640 751 703 q 783 508 783 578 l 783 349 q 407 -14 783 -14 m 404 157 q 506 190 472 157 q 539 296 539 224 l 539 363 q 473 393 508 382 q 403 404 438 404 q 298 372 328 404 q 268 281 268 339 q 404 157 268 157 z "},"ď":{"ha":1117,"x_min":35,"x_max":1117,"o":"m 342 -14 q 180 17 249 -14 q 73 119 111 49 q 35 308 35 190 q 78 510 35 429 q 193 631 121 590 q 350 672 265 672 q 441 663 396 672 q 519 635 486 653 l 519 936 l 781 936 l 781 0 l 554 0 l 542 51 q 455 3 503 21 q 342 -14 407 -14 m 857 624 l 904 936 l 1117 936 l 1038 624 l 857 624 m 417 175 q 519 215 476 175 l 519 449 q 417 483 481 483 q 333 438 365 483 q 301 307 301 392 q 329 199 301 224 q 417 175 357 175 z "},"đ":{"ha":843,"x_min":35,"x_max":824,"o":"m 342 -14 q 180 17 249 -14 q 73 119 111 49 q 35 308 35 190 q 78 510 35 429 q 193 631 121 590 q 350 672 265 672 q 441 663 396 672 q 519 635 486 653 l 519 717 l 329 717 l 329 874 l 519 874 l 519 936 l 781 936 l 781 874 l 824 874 l 824 717 l 781 717 l 781 0 l 554 0 l 542 51 q 455 3 503 21 q 342 -14 407 -14 m 417 175 q 519 215 476 175 l 519 449 q 417 483 481 483 q 333 438 365 483 q 301 307 301 392 q 329 199 301 224 q 417 175 357 175 z "},"ḍ":{"ha":843,"x_min":35,"x_max":781,"o":"m 342 -14 q 180 17 249 -14 q 73 119 111 49 q 35 308 35 190 q 78 510 35 429 q 193 631 121 590 q 350 672 265 672 q 441 663 396 672 q 519 635 486 653 l 519 936 l 781 936 l 781 0 l 554 0 l 542 51 q 455 3 503 21 q 342 -14 407 -14 m 417 175 q 519 215 476 175 l 519 449 q 417 483 481 483 q 333 438 365 483 q 301 307 301 392 q 329 199 301 224 q 417 175 357 175 m 379 -274 l 379 -107 l 560 -107 l 560 -274 l 379 -274 z "},"ḏ":{"ha":843,"x_min":35,"x_max":781,"o":"m 342 -14 q 180 17 249 -14 q 73 119 111 49 q 35 308 35 190 q 78 510 35 429 q 193 631 121 590 q 350 672 265 672 q 441 663 396 672 q 519 635 486 653 l 519 936 l 781 936 l 781 0 l 554 0 l 542 51 q 455 3 503 21 q 342 -14 407 -14 m 417 175 q 519 215 476 175 l 519 449 q 417 483 481 483 q 333 438 365 483 q 301 307 301 392 q 329 199 301 224 q 417 175 357 175 m 201 -243 l 201 -87 l 657 -87 l 657 -243 l 201 -243 z "},"e":{"ha":767,"x_min":35,"x_max":732,"o":"m 425 -14 q 222 24 310 -14 q 84 139 133 63 q 35 328 35 215 q 124 578 35 485 q 389 672 213 672 q 641 590 550 672 q 732 367 732 508 l 732 251 l 275 251 q 346 176 293 199 q 489 154 399 154 q 603 165 546 154 q 696 189 661 175 l 696 32 q 425 -14 599 -14 m 275 393 l 507 393 l 507 417 q 483 481 507 456 q 397 506 458 506 q 302 477 329 506 q 275 393 275 449 z "},"é":{"ha":767,"x_min":35,"x_max":732,"o":"m 301 725 l 424 1011 l 626 1011 l 493 725 l 301 725 m 425 -14 q 222 24 310 -14 q 84 139 133 63 q 35 328 35 215 q 124 578 35 485 q 389 672 213 672 q 641 590 550 672 q 732 367 732 508 l 732 251 l 275 251 q 346 176 293 199 q 489 154 399 154 q 603 165 546 154 q 696 189 661 175 l 696 32 q 425 -14 599 -14 m 275 393 l 507 393 l 507 417 q 483 481 507 456 q 397 506 458 506 q 302 477 329 506 q 275 393 275 449 z "},"ĕ":{"ha":767,"x_min":35,"x_max":732,"o":"m 399 726 q 208 793 281 726 q 136 986 136 860 l 306 986 q 326 902 306 935 q 399 869 346 869 q 472 902 451 869 q 493 986 493 935 l 663 986 q 590 793 663 860 q 399 726 518 726 m 425 -14 q 222 24 310 -14 q 84 139 133 63 q 35 328 35 215 q 124 578 35 485 q 389 672 213 672 q 641 590 550 672 q 732 367 732 508 l 732 251 l 275 251 q 346 176 293 199 q 489 154 399 154 q 603 165 546 154 q 696 189 661 175 l 696 32 q 425 -14 599 -14 m 275 393 l 507 393 l 507 417 q 483 481 507 456 q 397 506 458 506 q 302 477 329 506 q 275 393 275 449 z "},"ě":{"ha":767,"x_min":35,"x_max":732,"o":"m 325 725 l 110 1003 l 304 1003 l 404 851 l 510 1003 l 699 1003 l 483 725 l 325 725 m 425 -14 q 222 24 310 -14 q 84 139 133 63 q 35 328 35 215 q 124 578 35 485 q 389 672 213 672 q 641 590 550 672 q 732 367 732 508 l 732 251 l 275 251 q 346 176 293 199 q 489 154 399 154 q 603 165 546 154 q 696 189 661 175 l 696 32 q 425 -14 599 -14 m 275 393 l 507 393 l 507 417 q 483 481 507 456 q 397 506 458 506 q 302 477 329 506 q 275 393 275 449 z "},"ê":{"ha":767,"x_min":35,"x_max":732,"o":"m 100 725 l 315 1003 l 474 1003 l 689 725 l 500 725 l 394 875 l 294 725 l 100 725 m 425 -14 q 222 24 310 -14 q 84 139 133 63 q 35 328 35 215 q 124 578 35 485 q 389 672 213 672 q 641 590 550 672 q 732 367 732 508 l 732 251 l 275 251 q 346 176 293 199 q 489 154 399 154 q 603 165 546 154 q 696 189 661 175 l 696 32 q 425 -14 599 -14 m 275 393 l 507 393 l 507 417 q 483 481 507 456 q 397 506 458 506 q 302 477 329 506 q 275 393 275 449 z "},"ế":{"ha":767,"x_min":35,"x_max":846,"o":"m 554 899 l 653 1115 l 846 1115 l 738 899 l 554 899 m 92 725 l 289 936 l 481 936 l 678 725 l 471 725 l 385 835 l 299 725 l 92 725 m 425 -14 q 222 24 310 -14 q 84 139 133 63 q 35 328 35 215 q 124 578 35 485 q 389 672 213 672 q 641 590 550 672 q 732 367 732 508 l 732 251 l 275 251 q 346 176 293 199 q 489 154 399 154 q 603 165 546 154 q 696 189 661 175 l 696 32 q 425 -14 599 -14 m 275 393 l 507 393 l 507 417 q 483 481 507 456 q 397 506 458 506 q 302 477 329 506 q 275 393 275 449 z "},"ệ":{"ha":767,"x_min":35,"x_max":732,"o":"m 101 725 l 317 1003 l 475 1003 l 690 725 l 501 725 l 396 875 l 296 725 l 101 725 m 425 -14 q 222 24 310 -14 q 84 139 133 63 q 35 328 35 215 q 124 578 35 485 q 389 672 213 672 q 641 590 550 672 q 732 367 732 508 l 732 251 l 275 251 q 346 176 293 199 q 489 154 399 154 q 603 165 546 154 q 696 189 661 175 l 696 32 q 425 -14 599 -14 m 275 393 l 507 393 l 507 417 q 483 481 507 456 q 397 506 458 506 q 302 477 329 506 q 275 393 275 449 m 306 -244 l 306 -78 l 486 -78 l 486 -244 l 306 -244 z "},"ề":{"ha":767,"x_min":-76,"x_max":732,"o":"m 32 899 l -76 1115 l 117 1115 l 215 899 l 32 899 m 92 725 l 289 936 l 481 936 l 678 725 l 471 725 l 385 835 l 299 725 l 92 725 m 425 -14 q 222 24 310 -14 q 84 139 133 63 q 35 328 35 215 q 124 578 35 485 q 389 672 213 672 q 641 590 550 672 q 732 367 732 508 l 732 251 l 275 251 q 346 176 293 199 q 489 154 399 154 q 603 165 546 154 q 696 189 661 175 l 696 32 q 425 -14 599 -14 m 275 393 l 507 393 l 507 417 q 483 481 507 456 q 397 506 458 506 q 302 477 329 506 q 275 393 275 449 z "},"ể":{"ha":767,"x_min":35,"x_max":849,"o":"m 574 867 l 574 968 q 654 981 635 969 q 674 1011 674 993 q 615 1042 674 1042 q 578 1039 596 1042 q 544 1032 560 1036 l 544 1132 q 606 1144 569 1139 q 682 1149 642 1149 q 808 1117 767 1149 q 849 1029 849 1085 q 824 951 849 982 q 747 913 800 921 l 747 867 l 574 867 m 97 725 l 294 936 l 486 936 l 683 725 l 476 725 l 390 835 l 304 725 l 97 725 m 425 -14 q 222 24 310 -14 q 84 139 133 63 q 35 328 35 215 q 124 578 35 485 q 389 672 213 672 q 641 590 550 672 q 732 367 732 508 l 732 251 l 275 251 q 346 176 293 199 q 489 154 399 154 q 603 165 546 154 q 696 189 661 175 l 696 32 q 425 -14 599 -14 m 275 393 l 507 393 l 507 417 q 483 481 507 456 q 397 506 458 506 q 302 477 329 506 q 275 393 275 449 z "},"ễ":{"ha":767,"x_min":35,"x_max":732,"o":"m 531 957 q 445 972 488 957 q 363 1000 403 986 q 286 1014 324 1014 q 210 1000 243 1014 q 154 961 178 986 l 154 1107 q 208 1139 174 1126 q 282 1151 243 1151 q 367 1138 328 1151 q 446 1109 407 1124 q 526 1094 485 1094 q 601 1110 569 1094 q 650 1149 633 1125 l 650 1001 q 603 970 636 983 q 531 957 571 957 m 99 725 l 296 936 l 488 936 l 685 725 l 478 725 l 392 835 l 306 725 l 99 725 m 425 -14 q 222 24 310 -14 q 84 139 133 63 q 35 328 35 215 q 124 578 35 485 q 389 672 213 672 q 641 590 550 672 q 732 367 732 508 l 732 251 l 275 251 q 346 176 293 199 q 489 154 399 154 q 603 165 546 154 q 696 189 661 175 l 696 32 q 425 -14 599 -14 m 275 393 l 507 393 l 507 417 q 483 481 507 456 q 397 506 458 506 q 302 477 329 506 q 275 393 275 449 z "},"ë":{"ha":767,"x_min":35,"x_max":732,"o":"m 153 763 l 153 929 l 335 929 l 335 763 l 153 763 m 453 763 l 453 929 l 635 929 l 635 763 l 453 763 m 425 -14 q 222 24 310 -14 q 84 139 133 63 q 35 328 35 215 q 124 578 35 485 q 389 672 213 672 q 641 590 550 672 q 732 367 732 508 l 732 251 l 275 251 q 346 176 293 199 q 489 154 399 154 q 603 165 546 154 q 696 189 661 175 l 696 32 q 425 -14 599 -14 m 275 393 l 507 393 l 507 417 q 483 481 507 456 q 397 506 458 506 q 302 477 329 506 q 275 393 275 449 z "},"ė":{"ha":767,"x_min":35,"x_max":732,"o":"m 306 763 l 306 929 l 486 929 l 486 763 l 306 763 m 425 -14 q 222 24 310 -14 q 84 139 133 63 q 35 328 35 215 q 124 578 35 485 q 389 672 213 672 q 641 590 550 672 q 732 367 732 508 l 732 251 l 275 251 q 346 176 293 199 q 489 154 399 154 q 603 165 546 154 q 696 189 661 175 l 696 32 q 425 -14 599 -14 m 275 393 l 507 393 l 507 417 q 483 481 507 456 q 397 506 458 506 q 302 477 329 506 q 275 393 275 449 z "},"ẹ":{"ha":767,"x_min":35,"x_max":732,"o":"m 425 -14 q 222 24 310 -14 q 84 139 133 63 q 35 328 35 215 q 124 578 35 485 q 389 672 213 672 q 641 590 550 672 q 732 367 732 508 l 732 251 l 275 251 q 346 176 293 199 q 489 154 399 154 q 603 165 546 154 q 696 189 661 175 l 696 32 q 425 -14 599 -14 m 275 393 l 507 393 l 507 417 q 483 481 507 456 q 397 506 458 506 q 302 477 329 506 q 275 393 275 449 m 308 -244 l 308 -78 l 489 -78 l 489 -244 l 308 -244 z "},"è":{"ha":767,"x_min":35,"x_max":732,"o":"m 299 725 l 164 1011 l 368 1011 l 490 725 l 299 725 m 425 -14 q 222 24 310 -14 q 84 139 133 63 q 35 328 35 215 q 124 578 35 485 q 389 672 213 672 q 641 590 550 672 q 732 367 732 508 l 732 251 l 275 251 q 346 176 293 199 q 489 154 399 154 q 603 165 546 154 q 696 189 661 175 l 696 32 q 425 -14 599 -14 m 275 393 l 507 393 l 507 417 q 483 481 507 456 q 397 506 458 506 q 302 477 329 506 q 275 393 275 449 z "},"ẻ":{"ha":767,"x_min":35,"x_max":732,"o":"m 293 725 l 293 838 q 390 857 365 842 q 415 899 415 872 q 332 944 415 944 q 290 941 313 944 q 250 933 267 938 l 250 1042 q 410 1061 311 1061 q 555 1022 504 1061 q 606 921 606 982 q 576 830 606 861 q 489 782 546 799 l 489 725 l 293 725 m 425 -14 q 222 24 310 -14 q 84 139 133 63 q 35 328 35 215 q 124 578 35 485 q 389 672 213 672 q 641 590 550 672 q 732 367 732 508 l 732 251 l 275 251 q 346 176 293 199 q 489 154 399 154 q 603 165 546 154 q 696 189 661 175 l 696 32 q 425 -14 599 -14 m 275 393 l 507 393 l 507 417 q 483 481 507 456 q 397 506 458 506 q 302 477 329 506 q 275 393 275 449 z "},"ē":{"ha":767,"x_min":35,"x_max":732,"o":"m 167 775 l 167 931 l 622 931 l 622 775 l 167 775 m 425 -14 q 222 24 310 -14 q 84 139 133 63 q 35 328 35 215 q 124 578 35 485 q 389 672 213 672 q 641 590 550 672 q 732 367 732 508 l 732 251 l 275 251 q 346 176 293 199 q 489 154 399 154 q 603 165 546 154 q 696 189 661 175 l 696 32 q 425 -14 599 -14 m 275 393 l 507 393 l 507 417 q 483 481 507 456 q 397 506 458 506 q 302 477 329 506 q 275 393 275 449 z "},"ę":{"ha":767,"x_min":35,"x_max":732,"o":"m 494 -306 q 363 -273 415 -306 q 311 -171 311 -240 q 334 -83 311 -124 q 394 -14 357 -42 q 206 31 288 -8 q 80 145 125 71 q 35 328 35 219 q 124 578 35 485 q 389 672 213 672 q 641 590 550 672 q 732 367 732 508 l 732 251 l 275 251 q 346 176 293 199 q 489 154 399 154 q 603 165 546 154 q 696 189 661 175 l 696 32 q 586 -1 650 10 q 529 -58 551 -28 q 507 -124 507 -89 q 567 -179 507 -179 q 604 -175 585 -179 q 636 -164 624 -171 l 636 -283 q 576 -299 615 -292 q 494 -306 538 -306 m 275 393 l 507 393 l 507 417 q 483 481 507 456 q 397 506 458 506 q 302 477 329 506 q 275 393 275 449 z "},"ẽ":{"ha":767,"x_min":35,"x_max":732,"o":"m 542 736 q 453 751 496 736 q 369 780 410 765 q 290 794 329 794 q 213 780 247 794 q 154 740 179 765 l 154 904 q 210 937 174 924 q 286 950 246 950 q 374 935 333 950 q 454 906 414 921 q 538 892 494 892 q 614 908 582 892 q 663 947 646 924 l 663 782 q 615 750 649 764 q 542 736 582 736 m 425 -14 q 222 24 310 -14 q 84 139 133 63 q 35 328 35 215 q 124 578 35 485 q 389 672 213 672 q 641 590 550 672 q 732 367 732 508 l 732 251 l 275 251 q 346 176 293 199 q 489 154 399 154 q 603 165 546 154 q 696 189 661 175 l 696 32 q 425 -14 599 -14 m 275 393 l 507 393 l 507 417 q 483 481 507 456 q 397 506 458 506 q 302 477 329 506 q 275 393 275 449 z "},"ə":{"ha":767,"x_min":35,"x_max":732,"o":"m 378 -14 q 126 68 218 -14 q 35 292 35 150 l 35 407 l 492 407 q 421 482 474 460 q 278 504 368 504 q 164 494 221 504 q 71 469 107 485 l 71 626 q 342 672 169 672 q 545 634 457 672 q 683 520 633 596 q 732 331 732 444 q 644 80 732 174 q 378 -14 556 -14 m 369 153 q 465 181 438 153 q 492 265 492 210 l 260 265 l 260 242 q 285 178 260 203 q 369 153 310 153 z "},"f":{"ha":542,"x_min":14,"x_max":531,"o":"m 99 0 l 99 465 l 14 465 l 14 658 l 99 658 l 99 701 q 163 885 99 813 q 354 958 226 958 q 451 950 408 958 q 531 926 493 942 l 531 757 q 490 768 510 764 q 447 772 469 772 q 378 754 397 772 q 360 696 360 736 l 360 658 l 515 658 l 504 465 l 360 465 l 360 0 l 99 0 z "},"g":{"ha":790,"x_min":35,"x_max":771,"o":"m 351 -244 q 246 -241 303 -244 q 138 -229 189 -237 q 54 -210 88 -221 l 54 -43 q 141 -64 92 -56 q 242 -76 190 -72 q 336 -81 293 -81 q 452 -73 410 -81 q 494 -46 494 -65 q 481 -24 494 -29 q 428 -19 467 -19 l 254 -19 q 98 13 153 -19 q 43 111 43 46 q 144 239 43 203 q 61 313 88 268 q 35 425 35 357 q 122 613 35 553 q 372 672 208 672 q 450 667 407 672 q 513 658 493 663 l 771 658 l 765 500 l 678 500 q 703 422 703 468 q 644 262 703 321 q 458 203 585 203 q 419 205 440 203 q 381 208 399 207 q 328 197 350 206 q 306 169 306 189 q 318 151 306 156 q 353 146 331 146 l 504 146 q 664 99 606 146 q 722 -40 722 51 q 632 -191 722 -137 q 351 -244 542 -244 m 374 346 q 458 367 435 346 q 482 436 482 388 q 458 507 482 485 q 374 529 435 529 q 291 508 317 529 q 265 436 265 486 q 290 367 265 389 q 374 346 314 346 z "},"ğ":{"ha":785,"x_min":35,"x_max":771,"o":"m 396 726 q 206 793 278 726 q 133 986 133 860 l 303 986 q 323 902 303 935 q 396 869 343 869 q 469 902 449 869 q 490 986 490 935 l 660 986 q 588 793 660 860 q 396 726 515 726 m 351 -244 q 246 -241 303 -244 q 138 -229 189 -237 q 54 -210 88 -221 l 54 -43 q 141 -64 92 -56 q 242 -76 190 -72 q 336 -81 293 -81 q 452 -73 410 -81 q 494 -46 494 -65 q 481 -24 494 -29 q 428 -19 467 -19 l 254 -19 q 98 13 153 -19 q 43 111 43 46 q 144 239 43 203 q 61 313 88 268 q 35 425 35 357 q 122 613 35 553 q 372 672 208 672 q 450 667 407 672 q 513 658 493 663 l 771 658 l 765 500 l 678 500 q 703 422 703 468 q 644 262 703 321 q 458 203 585 203 q 419 205 440 203 q 381 208 399 207 q 328 197 350 206 q 306 169 306 189 q 318 151 306 156 q 353 146 331 146 l 504 146 q 664 99 606 146 q 722 -40 722 51 q 632 -191 722 -137 q 351 -244 542 -244 m 374 346 q 458 367 435 346 q 482 436 482 388 q 458 507 482 485 q 374 529 435 529 q 291 508 317 529 q 265 436 265 486 q 290 367 265 389 q 374 346 314 346 z "},"ǧ":{"ha":785,"x_min":35,"x_max":771,"o":"m 328 725 l 113 1003 l 307 1003 l 407 851 l 513 1003 l 701 1003 l 486 725 l 328 725 m 351 -244 q 246 -241 303 -244 q 138 -229 189 -237 q 54 -210 88 -221 l 54 -43 q 141 -64 92 -56 q 242 -76 190 -72 q 336 -81 293 -81 q 452 -73 410 -81 q 494 -46 494 -65 q 481 -24 494 -29 q 428 -19 467 -19 l 254 -19 q 98 13 153 -19 q 43 111 43 46 q 144 239 43 203 q 61 313 88 268 q 35 425 35 357 q 122 613 35 553 q 372 672 208 672 q 450 667 407 672 q 513 658 493 663 l 771 658 l 765 500 l 678 500 q 703 422 703 468 q 644 262 703 321 q 458 203 585 203 q 419 205 440 203 q 381 208 399 207 q 328 197 350 206 q 306 169 306 189 q 318 151 306 156 q 353 146 331 146 l 504 146 q 664 99 606 146 q 722 -40 722 51 q 632 -191 722 -137 q 351 -244 542 -244 m 374 346 q 458 367 435 346 q 482 436 482 388 q 458 507 482 485 q 374 529 435 529 q 291 508 317 529 q 265 436 265 486 q 290 367 265 389 q 374 346 314 346 z "},"ĝ":{"ha":785,"x_min":35,"x_max":771,"o":"m 106 725 l 321 1003 l 479 1003 l 694 725 l 506 725 l 400 875 l 300 725 l 106 725 m 351 -244 q 246 -241 303 -244 q 138 -229 189 -237 q 54 -210 88 -221 l 54 -43 q 141 -64 92 -56 q 242 -76 190 -72 q 336 -81 293 -81 q 452 -73 410 -81 q 494 -46 494 -65 q 481 -24 494 -29 q 428 -19 467 -19 l 254 -19 q 98 13 153 -19 q 43 111 43 46 q 144 239 43 203 q 61 313 88 268 q 35 425 35 357 q 122 613 35 553 q 372 672 208 672 q 450 667 407 672 q 513 658 493 663 l 771 658 l 765 500 l 678 500 q 703 422 703 468 q 644 262 703 321 q 458 203 585 203 q 419 205 440 203 q 381 208 399 207 q 328 197 350 206 q 306 169 306 189 q 318 151 306 156 q 353 146 331 146 l 504 146 q 664 99 606 146 q 722 -40 722 51 q 632 -191 722 -137 q 351 -244 542 -244 m 374 346 q 458 367 435 346 q 482 436 482 388 q 458 507 482 485 q 374 529 435 529 q 291 508 317 529 q 265 436 265 486 q 290 367 265 389 q 374 346 314 346 z "},"ģ":{"ha":785,"x_min":35,"x_max":771,"o":"m 281 725 l 360 1038 l 540 1038 l 493 725 l 281 725 m 351 -244 q 246 -241 303 -244 q 138 -229 189 -237 q 54 -210 88 -221 l 54 -43 q 141 -64 92 -56 q 242 -76 190 -72 q 336 -81 293 -81 q 452 -73 410 -81 q 494 -46 494 -65 q 481 -24 494 -29 q 428 -19 467 -19 l 254 -19 q 98 13 153 -19 q 43 111 43 46 q 144 239 43 203 q 61 313 88 268 q 35 425 35 357 q 122 613 35 553 q 372 672 208 672 q 450 667 407 672 q 513 658 493 663 l 771 658 l 765 500 l 678 500 q 703 422 703 468 q 644 262 703 321 q 458 203 585 203 q 419 205 440 203 q 381 208 399 207 q 328 197 350 206 q 306 169 306 189 q 318 151 306 156 q 353 146 331 146 l 504 146 q 664 99 606 146 q 722 -40 722 51 q 632 -191 722 -137 q 351 -244 542 -244 m 374 346 q 458 367 435 346 q 482 436 482 388 q 458 507 482 485 q 374 529 435 529 q 291 508 317 529 q 265 436 265 486 q 290 367 265 389 q 374 346 314 346 z "},"ġ":{"ha":785,"x_min":35,"x_max":771,"o":"m 294 742 l 294 908 l 475 908 l 475 742 l 294 742 m 351 -244 q 246 -241 303 -244 q 138 -229 189 -237 q 54 -210 88 -221 l 54 -43 q 141 -64 92 -56 q 242 -76 190 -72 q 336 -81 293 -81 q 452 -73 410 -81 q 494 -46 494 -65 q 481 -24 494 -29 q 428 -19 467 -19 l 254 -19 q 98 13 153 -19 q 43 111 43 46 q 144 239 43 203 q 61 313 88 268 q 35 425 35 357 q 122 613 35 553 q 372 672 208 672 q 450 667 407 672 q 513 658 493 663 l 771 658 l 765 500 l 678 500 q 703 422 703 468 q 644 262 703 321 q 458 203 585 203 q 419 205 440 203 q 381 208 399 207 q 328 197 350 206 q 306 169 306 189 q 318 151 306 156 q 353 146 331 146 l 504 146 q 664 99 606 146 q 722 -40 722 51 q 632 -191 722 -137 q 351 -244 542 -244 m 374 346 q 458 367 435 346 q 482 436 482 388 q 458 507 482 485 q 374 529 435 529 q 291 508 317 529 q 265 436 265 486 q 290 367 265 389 q 374 346 314 346 z "},"ḡ":{"ha":785,"x_min":35,"x_max":771,"o":"m 160 765 l 160 921 l 615 921 l 615 765 l 160 765 m 351 -244 q 246 -241 303 -244 q 138 -229 189 -237 q 54 -210 88 -221 l 54 -43 q 141 -64 92 -56 q 242 -76 190 -72 q 336 -81 293 -81 q 452 -73 410 -81 q 494 -46 494 -65 q 481 -24 494 -29 q 428 -19 467 -19 l 254 -19 q 98 13 153 -19 q 43 111 43 46 q 144 239 43 203 q 61 313 88 268 q 35 425 35 357 q 122 613 35 553 q 372 672 208 672 q 450 667 407 672 q 513 658 493 663 l 771 658 l 765 500 l 678 500 q 703 422 703 468 q 644 262 703 321 q 458 203 585 203 q 419 205 440 203 q 381 208 399 207 q 328 197 350 206 q 306 169 306 189 q 318 151 306 156 q 353 146 331 146 l 504 146 q 664 99 606 146 q 722 -40 722 51 q 632 -191 722 -137 q 351 -244 542 -244 m 374 346 q 458 367 435 346 q 482 436 482 388 q 458 507 482 485 q 374 529 435 529 q 291 508 317 529 q 265 436 265 486 q 290 367 265 389 q 374 346 314 346 z "},"h":{"ha":839,"x_min":63,"x_max":783,"o":"m 63 0 l 63 936 l 324 936 l 324 618 q 410 657 358 642 q 522 672 463 672 q 721 609 658 672 q 783 414 783 546 l 783 0 l 521 0 l 521 394 q 502 460 521 440 q 435 479 483 479 q 374 465 406 479 q 324 432 343 451 l 324 0 l 63 0 z "},"ħ":{"ha":839,"x_min":7,"x_max":783,"o":"m 63 0 l 63 718 l 7 718 l 7 871 l 63 871 l 63 936 l 324 936 l 324 871 l 478 871 l 478 718 l 324 718 l 324 618 q 410 657 358 642 q 522 672 463 672 q 721 609 658 672 q 783 414 783 546 l 783 0 l 521 0 l 521 394 q 502 460 521 440 q 435 479 483 479 q 374 465 406 479 q 324 432 343 451 l 324 0 l 63 0 z "},"ḫ":{"ha":839,"x_min":63,"x_max":783,"o":"m 63 0 l 63 936 l 324 936 l 324 618 q 410 657 358 642 q 522 672 463 672 q 721 609 658 672 q 783 414 783 546 l 783 0 l 521 0 l 521 394 q 502 460 521 440 q 435 479 483 479 q 374 465 406 479 q 324 432 343 451 l 324 0 l 63 0 m 421 -329 q 231 -262 303 -329 q 158 -69 158 -196 l 328 -69 q 348 -153 328 -121 q 421 -186 368 -186 q 494 -153 474 -186 q 515 -69 515 -121 l 685 -69 q 613 -262 685 -196 q 421 -329 540 -329 z "},"ĥ":{"ha":839,"x_min":63,"x_max":783,"o":"m 67 983 l 282 1261 l 440 1261 l 656 983 l 467 983 l 361 1133 l 261 983 l 67 983 m 63 0 l 63 936 l 324 936 l 324 618 q 410 657 358 642 q 522 672 463 672 q 721 609 658 672 q 783 414 783 546 l 783 0 l 521 0 l 521 394 q 502 460 521 440 q 435 479 483 479 q 374 465 406 479 q 324 432 343 451 l 324 0 l 63 0 z "},"ḥ":{"ha":839,"x_min":63,"x_max":783,"o":"m 63 0 l 63 936 l 324 936 l 324 618 q 410 657 358 642 q 522 672 463 672 q 721 609 658 672 q 783 414 783 546 l 783 0 l 521 0 l 521 394 q 502 460 521 440 q 435 479 483 479 q 374 465 406 479 q 324 432 343 451 l 324 0 l 63 0 m 335 -274 l 335 -107 l 515 -107 l 515 -274 l 335 -274 z "},"i":{"ha":453,"x_min":33,"x_max":390,"o":"m 108 746 l 108 935 l 390 935 l 390 746 l 108 746 m 129 0 l 129 468 l 33 468 l 56 658 l 390 658 l 390 0 l 129 0 z "},"ı":{"ha":453,"x_min":33,"x_max":390,"o":"m 129 0 l 129 468 l 33 468 l 56 658 l 390 658 l 390 0 l 129 0 z "},"í":{"ha":482,"x_min":63,"x_max":483,"o":"m 158 725 l 281 1011 l 483 1011 l 350 725 l 158 725 m 158 0 l 158 468 l 63 468 l 85 658 l 419 658 l 419 0 l 158 0 z "},"ĭ":{"ha":482,"x_min":-21,"x_max":506,"o":"m 242 726 q 51 793 124 726 q -21 986 -21 860 l 149 986 q 169 902 149 935 q 242 869 189 869 q 315 902 294 869 q 336 986 336 935 l 506 986 q 433 793 506 860 q 242 726 361 726 m 158 0 l 158 468 l 63 468 l 85 658 l 419 658 l 419 0 l 158 0 z "},"ǐ":{"ha":482,"x_min":-37,"x_max":551,"o":"m 178 725 l -37 1003 l 157 1003 l 257 851 l 363 1003 l 551 1003 l 336 725 l 178 725 m 158 0 l 158 468 l 63 468 l 85 658 l 419 658 l 419 0 l 158 0 z "},"î":{"ha":482,"x_min":-50,"x_max":539,"o":"m -50 725 l 165 1003 l 324 1003 l 539 725 l 350 725 l 244 875 l 144 725 l -50 725 m 158 0 l 158 468 l 63 468 l 85 658 l 419 658 l 419 0 l 158 0 z "},"ï":{"ha":482,"x_min":3,"x_max":485,"o":"m 3 763 l 3 929 l 185 929 l 185 763 l 3 763 m 303 763 l 303 929 l 485 929 l 485 763 l 303 763 m 158 0 l 158 468 l 63 468 l 85 658 l 419 658 l 419 0 l 158 0 z "},"ị":{"ha":482,"x_min":63,"x_max":419,"o":"m 138 746 l 138 935 l 419 935 l 419 746 l 138 746 m 158 0 l 158 468 l 63 468 l 85 658 l 419 658 l 419 0 l 158 0 m 192 -244 l 192 -78 l 372 -78 l 372 -244 l 192 -244 z "},"ì":{"ha":482,"x_min":49,"x_max":419,"o":"m 183 725 l 49 1011 l 253 1011 l 375 725 l 183 725 m 158 0 l 158 468 l 63 468 l 85 658 l 419 658 l 419 0 l 158 0 z "},"ỉ":{"ha":482,"x_min":63,"x_max":446,"o":"m 133 725 l 133 838 q 231 857 206 842 q 256 899 256 872 q 172 944 256 944 q 130 941 153 944 q 90 933 107 938 l 90 1042 q 250 1061 151 1061 q 395 1022 344 1061 q 446 921 446 982 q 416 830 446 861 q 329 782 386 799 l 329 725 l 133 725 m 158 0 l 158 468 l 63 468 l 85 658 l 419 658 l 419 0 l 158 0 z "},"ĳ":{"ha":839,"x_min":33,"x_max":776,"o":"m 108 746 l 108 935 l 390 935 l 390 746 l 108 746 m 494 746 l 494 935 l 776 935 l 776 746 l 494 746 m 522 -325 q 344 -294 418 -325 l 344 -121 q 428 -135 386 -135 q 515 -64 515 -135 l 515 468 l 419 468 l 442 658 l 776 658 l 776 -83 q 715 -257 776 -189 q 522 -325 654 -325 m 129 0 l 129 468 l 33 468 l 56 658 l 390 658 l 390 0 l 129 0 z "},"ī":{"ha":482,"x_min":14,"x_max":469,"o":"m 14 804 l 14 960 l 469 960 l 469 804 l 14 804 m 158 0 l 158 468 l 63 468 l 85 658 l 419 658 l 419 0 l 158 0 z "},"į":{"ha":453,"x_min":33,"x_max":393,"o":"m 108 746 l 108 935 l 390 935 l 390 746 l 108 746 m 129 0 l 129 468 l 33 468 l 56 658 l 390 658 l 390 0 l 344 0 q 287 -57 310 -26 q 264 -124 264 -87 q 324 -179 264 -179 q 361 -175 342 -179 q 393 -164 381 -171 l 393 -283 q 333 -299 372 -292 q 251 -306 294 -306 q 120 -273 172 -306 q 68 -171 68 -240 q 97 -74 68 -118 q 171 0 125 -29 l 129 0 z "},"ĩ":{"ha":482,"x_min":-14,"x_max":494,"o":"m 374 756 q 285 770 328 756 q 201 799 242 785 q 122 814 161 814 q 45 799 79 814 q -14 760 11 785 l -14 924 q 42 956 6 943 q 118 969 78 969 q 206 955 165 969 q 286 926 246 940 q 369 911 326 911 q 446 927 414 911 q 494 967 478 943 l 494 801 q 447 769 481 783 q 374 756 414 756 m 158 0 l 158 468 l 63 468 l 85 658 l 419 658 l 419 0 l 158 0 z "},"j":{"ha":492,"x_min":-3,"x_max":429,"o":"m 147 746 l 147 935 l 429 935 l 429 746 l 147 746 m 175 -325 q -3 -294 71 -325 l -3 -121 q 81 -135 39 -135 q 168 -64 168 -135 l 168 468 l 72 468 l 94 658 l 429 658 l 429 -83 q 368 -257 429 -189 q 175 -325 307 -325 z "},"ȷ":{"ha":485,"x_min":-10,"x_max":422,"o":"m 168 -325 q -10 -294 64 -325 l -10 -121 q 74 -135 32 -135 q 161 -64 161 -135 l 161 468 l 65 468 l 88 658 l 422 658 l 422 -83 q 361 -257 422 -189 q 168 -325 300 -325 z "},"ĵ":{"ha":485,"x_min":-24,"x_max":565,"o":"m -24 725 l 192 1003 l 350 1003 l 565 725 l 376 725 l 271 875 l 171 725 l -24 725 m 165 -325 q -12 -294 61 -325 l -12 -121 q 71 -135 29 -135 q 158 -64 158 -135 l 158 468 l 63 468 l 85 658 l 419 658 l 419 -83 q 358 -257 419 -189 q 165 -325 297 -325 z "},"k":{"ha":846,"x_min":63,"x_max":818,"o":"m 63 0 l 63 936 l 324 936 l 324 474 l 507 658 l 803 658 l 540 381 l 818 0 l 540 0 l 378 244 l 324 190 l 324 0 l 63 0 z "},"ķ":{"ha":853,"x_min":63,"x_max":818,"o":"m 63 0 l 63 936 l 324 936 l 324 474 l 507 658 l 803 658 l 540 381 l 818 0 l 540 0 l 378 244 l 324 190 l 324 0 l 63 0 m 254 -364 l 301 -51 l 514 -51 l 435 -364 l 254 -364 z "},"ĸ":{"ha":853,"x_min":63,"x_max":818,"o":"m 63 0 l 63 658 l 324 658 l 324 456 l 507 658 l 803 658 l 540 365 l 818 0 l 540 0 l 378 228 l 324 171 l 324 0 l 63 0 z "},"l":{"ha":443,"x_min":63,"x_max":443,"o":"m 286 -14 q 114 38 165 -14 q 63 199 63 89 l 63 936 l 324 936 l 324 228 q 336 187 324 197 q 375 176 349 176 q 410 179 393 176 q 443 188 428 182 l 443 14 q 373 -7 407 0 q 286 -14 339 -14 z "},"ĺ":{"ha":443,"x_min":63,"x_max":443,"o":"m 93 1036 l 215 1322 l 418 1322 l 285 1036 l 93 1036 m 286 -14 q 114 38 165 -14 q 63 199 63 89 l 63 936 l 324 936 l 324 228 q 336 187 324 197 q 375 176 349 176 q 410 179 393 176 q 443 188 428 182 l 443 14 q 373 -7 407 0 q 286 -14 339 -14 z "},"ľ":{"ha":664,"x_min":63,"x_max":664,"o":"m 286 -14 q 114 38 165 -14 q 63 199 63 89 l 63 936 l 324 936 l 324 228 q 336 187 324 197 q 375 176 349 176 q 410 179 393 176 q 443 188 428 182 l 443 14 q 373 -7 407 0 q 286 -14 339 -14 m 404 624 l 451 936 l 664 936 l 585 624 l 404 624 z "},"ļ":{"ha":443,"x_min":63,"x_max":443,"o":"m 286 -14 q 114 38 165 -14 q 63 199 63 89 l 63 936 l 324 936 l 324 228 q 336 187 324 197 q 375 176 349 176 q 410 179 393 176 q 443 188 428 182 l 443 14 q 373 -7 407 0 q 286 -14 339 -14 m 125 -364 l 172 -51 l 385 -51 l 306 -364 l 125 -364 z "},"ŀ":{"ha":675,"x_min":63,"x_max":635,"o":"m 286 -14 q 114 38 165 -14 q 63 199 63 89 l 63 936 l 324 936 l 324 228 q 336 187 324 197 q 375 176 349 176 q 410 179 393 176 q 443 188 428 182 l 443 14 q 373 -7 407 0 q 286 -14 339 -14 m 454 410 l 454 576 l 635 576 l 635 410 l 454 410 z "},"ḷ":{"ha":443,"x_min":63,"x_max":443,"o":"m 286 -14 q 114 38 165 -14 q 63 199 63 89 l 63 936 l 324 936 l 324 228 q 336 187 324 197 q 375 176 349 176 q 410 179 393 176 q 443 188 428 182 l 443 14 q 373 -7 407 0 q 286 -14 339 -14 m 176 -244 l 176 -78 l 357 -78 l 357 -244 l 176 -244 z "},"ḹ":{"ha":443,"x_min":-29,"x_max":443,"o":"m -29 1008 l -29 1164 l 426 1164 l 426 1008 l -29 1008 m 286 -14 q 114 38 165 -14 q 63 199 63 89 l 63 936 l 324 936 l 324 228 q 336 187 324 197 q 375 176 349 176 q 410 179 393 176 q 443 188 428 182 l 443 14 q 373 -7 407 0 q 286 -14 339 -14 m 176 -244 l 176 -78 l 357 -78 l 357 -244 l 176 -244 z "},"ḻ":{"ha":443,"x_min":22,"x_max":478,"o":"m 286 -14 q 114 38 165 -14 q 63 199 63 89 l 63 936 l 324 936 l 324 228 q 336 187 324 197 q 375 176 349 176 q 410 179 393 176 q 443 188 428 182 l 443 14 q 373 -7 407 0 q 286 -14 339 -14 m 22 -244 l 22 -89 l 478 -89 l 478 -244 l 22 -244 z "},"ł":{"ha":443,"x_min":-46,"x_max":443,"o":"m 286 -14 q 114 38 165 -14 q 63 199 63 89 l 63 344 l -46 297 l -46 482 l 63 529 l 63 936 l 324 936 l 324 644 l 429 690 l 429 506 l 324 460 l 324 228 q 336 187 324 197 q 375 176 349 176 q 410 179 393 176 q 443 188 428 182 l 443 14 q 373 -7 407 0 q 286 -14 339 -14 z "},"m":{"ha":1196,"x_min":63,"x_max":1140,"o":"m 63 0 l 63 658 l 304 658 l 311 606 q 408 653 354 635 q 525 672 461 672 q 625 654 589 672 q 683 601 661 636 q 784 653 728 633 q 917 672 840 672 q 1086 612 1032 672 q 1140 428 1140 551 l 1140 0 l 883 0 l 883 397 q 865 460 883 442 q 806 479 847 479 q 717 440 751 479 q 719 406 719 422 q 719 371 719 390 l 719 0 l 478 0 l 478 401 q 464 460 478 442 q 411 479 450 479 q 360 465 385 479 q 315 432 335 451 l 315 0 l 63 0 z "},"ṃ":{"ha":1196,"x_min":63,"x_max":1140,"o":"m 63 0 l 63 658 l 304 658 l 311 606 q 408 653 354 635 q 525 672 461 672 q 625 654 589 672 q 683 601 661 636 q 784 653 728 633 q 917 672 840 672 q 1086 612 1032 672 q 1140 428 1140 551 l 1140 0 l 883 0 l 883 397 q 865 460 883 442 q 806 479 847 479 q 717 440 751 479 q 719 406 719 422 q 719 371 719 390 l 719 0 l 478 0 l 478 401 q 464 460 478 442 q 411 479 450 479 q 360 465 385 479 q 315 432 335 451 l 315 0 l 63 0 m 508 -244 l 508 -78 l 689 -78 l 689 -244 l 508 -244 z "},"n":{"ha":839,"x_min":63,"x_max":783,"o":"m 63 0 l 63 658 l 307 658 l 314 608 q 413 653 351 633 q 546 672 475 672 q 726 611 669 672 q 783 422 783 550 l 783 0 l 522 0 l 522 396 q 503 460 522 440 q 435 479 483 479 q 374 465 406 479 q 324 432 343 451 l 324 0 l 63 0 z "},"ń":{"ha":839,"x_min":63,"x_max":783,"o":"m 285 725 l 407 1011 l 610 1011 l 476 725 l 285 725 m 63 0 l 63 658 l 307 658 l 314 608 q 413 653 351 633 q 546 672 475 672 q 726 611 669 672 q 783 422 783 550 l 783 0 l 522 0 l 522 396 q 503 460 522 440 q 435 479 483 479 q 374 465 406 479 q 324 432 343 451 l 324 0 l 63 0 z "},"ŉ":{"ha":1071,"x_min":39,"x_max":1015,"o":"m 39 581 l 86 893 l 299 893 l 219 581 l 39 581 m 294 0 l 294 658 l 539 658 l 546 608 q 645 653 583 633 q 778 672 707 672 q 958 611 901 672 q 1015 422 1015 550 l 1015 0 l 754 0 l 754 396 q 735 460 754 440 q 667 479 715 479 q 606 465 638 479 q 556 432 575 451 l 556 0 l 294 0 z "},"ň":{"ha":839,"x_min":63,"x_max":783,"o":"m 321 725 l 106 1003 l 300 1003 l 400 851 l 506 1003 l 694 1003 l 479 725 l 321 725 m 63 0 l 63 658 l 307 658 l 314 608 q 413 653 351 633 q 546 672 475 672 q 726 611 669 672 q 783 422 783 550 l 783 0 l 522 0 l 522 396 q 503 460 522 440 q 435 479 483 479 q 374 465 406 479 q 324 432 343 451 l 324 0 l 63 0 z "},"ņ":{"ha":839,"x_min":63,"x_max":783,"o":"m 63 0 l 63 658 l 307 658 l 314 608 q 413 653 351 633 q 546 672 475 672 q 726 611 669 672 q 783 422 783 550 l 783 0 l 522 0 l 522 396 q 503 460 522 440 q 435 479 483 479 q 374 465 406 479 q 324 432 343 451 l 324 0 l 63 0 m 283 -364 l 331 -51 l 543 -51 l 464 -364 l 283 -364 z "},"ṅ":{"ha":839,"x_min":63,"x_max":783,"o":"m 335 764 l 335 931 l 515 931 l 515 764 l 335 764 m 63 0 l 63 658 l 307 658 l 314 608 q 413 653 351 633 q 546 672 475 672 q 726 611 669 672 q 783 422 783 550 l 783 0 l 522 0 l 522 396 q 503 460 522 440 q 435 479 483 479 q 374 465 406 479 q 324 432 343 451 l 324 0 l 63 0 z "},"ṇ":{"ha":839,"x_min":63,"x_max":783,"o":"m 63 0 l 63 658 l 307 658 l 314 608 q 413 653 351 633 q 546 672 475 672 q 726 611 669 672 q 783 422 783 550 l 783 0 l 522 0 l 522 396 q 503 460 522 440 q 435 479 483 479 q 374 465 406 479 q 324 432 343 451 l 324 0 l 63 0 m 343 -244 l 343 -78 l 524 -78 l 524 -244 l 343 -244 z "},"ŋ":{"ha":839,"x_min":63,"x_max":783,"o":"m 529 -325 q 351 -294 425 -325 l 351 -125 q 435 -139 393 -139 q 521 -64 521 -139 l 521 396 q 502 460 521 440 q 435 479 483 479 q 374 465 406 479 q 324 432 343 451 l 324 0 l 63 0 l 63 658 l 307 658 l 314 608 q 413 653 351 633 q 546 672 475 672 q 726 611 669 672 q 783 422 783 550 l 783 -83 q 722 -257 783 -189 q 529 -325 661 -325 z "},"ṉ":{"ha":839,"x_min":63,"x_max":783,"o":"m 63 0 l 63 658 l 307 658 l 314 608 q 413 653 351 633 q 546 672 475 672 q 726 611 669 672 q 783 422 783 550 l 783 0 l 522 0 l 522 396 q 503 460 522 440 q 435 479 483 479 q 374 465 406 479 q 324 432 343 451 l 324 0 l 63 0 m 199 -243 l 199 -87 l 654 -87 l 654 -243 l 199 -243 z "},"ñ":{"ha":839,"x_min":63,"x_max":783,"o":"m 556 736 q 467 751 510 736 q 383 780 424 765 q 304 794 343 794 q 227 780 261 794 q 168 740 193 765 l 168 904 q 224 937 188 924 q 300 950 260 950 q 388 935 347 950 q 468 906 428 921 q 551 892 508 892 q 628 908 596 892 q 676 947 660 924 l 676 782 q 629 750 663 764 q 556 736 596 736 m 63 0 l 63 658 l 307 658 l 314 608 q 413 653 351 633 q 546 672 475 672 q 726 611 669 672 q 783 422 783 550 l 783 0 l 522 0 l 522 396 q 503 460 522 440 q 435 479 483 479 q 374 465 406 479 q 324 432 343 451 l 324 0 l 63 0 z "},"o":{"ha":842,"x_min":35,"x_max":807,"o":"m 419 -14 q 128 74 222 -14 q 35 329 35 161 q 129 584 35 496 q 419 672 224 672 q 712 584 617 672 q 807 329 807 496 q 713 74 807 161 q 419 -14 618 -14 m 419 176 q 512 213 483 176 q 540 329 540 249 q 512 445 540 408 q 419 482 483 482 q 329 445 357 482 q 301 329 301 408 q 329 213 301 249 q 419 176 357 176 z "},"ó":{"ha":842,"x_min":35,"x_max":807,"o":"m 306 725 l 428 1011 l 631 1011 l 497 725 l 306 725 m 419 -14 q 128 74 222 -14 q 35 329 35 161 q 129 584 35 496 q 419 672 224 672 q 712 584 617 672 q 807 329 807 496 q 713 74 807 161 q 419 -14 618 -14 m 419 176 q 512 213 483 176 q 540 329 540 249 q 512 445 540 408 q 419 482 483 482 q 329 445 357 482 q 301 329 301 408 q 329 213 301 249 q 419 176 357 176 z "},"ŏ":{"ha":842,"x_min":35,"x_max":807,"o":"m 421 726 q 231 793 303 726 q 158 986 158 860 l 328 986 q 348 902 328 935 q 421 869 368 869 q 494 902 474 869 q 515 986 515 935 l 685 986 q 613 793 685 860 q 421 726 540 726 m 419 -14 q 128 74 222 -14 q 35 329 35 161 q 129 584 35 496 q 419 672 224 672 q 712 584 617 672 q 807 329 807 496 q 713 74 807 161 q 419 -14 618 -14 m 419 176 q 512 213 483 176 q 540 329 540 249 q 512 445 540 408 q 419 482 483 482 q 329 445 357 482 q 301 329 301 408 q 329 213 301 249 q 419 176 357 176 z "},"ǒ":{"ha":842,"x_min":35,"x_max":807,"o":"m 342 725 l 126 1003 l 321 1003 l 421 851 l 526 1003 l 715 1003 l 500 725 l 342 725 m 419 -14 q 128 74 222 -14 q 35 329 35 161 q 129 584 35 496 q 419 672 224 672 q 712 584 617 672 q 807 329 807 496 q 713 74 807 161 q 419 -14 618 -14 m 419 176 q 512 213 483 176 q 540 329 540 249 q 512 445 540 408 q 419 482 483 482 q 329 445 357 482 q 301 329 301 408 q 329 213 301 249 q 419 176 357 176 z "},"ô":{"ha":842,"x_min":35,"x_max":807,"o":"m 126 725 l 342 1003 l 500 1003 l 715 725 l 526 725 l 421 875 l 321 725 l 126 725 m 419 -14 q 128 74 222 -14 q 35 329 35 161 q 129 584 35 496 q 419 672 224 672 q 712 584 617 672 q 807 329 807 496 q 713 74 807 161 q 419 -14 618 -14 m 419 176 q 512 213 483 176 q 540 329 540 249 q 512 445 540 408 q 419 482 483 482 q 329 445 357 482 q 301 329 301 408 q 329 213 301 249 q 419 176 357 176 z "},"ố":{"ha":842,"x_min":35,"x_max":874,"o":"m 582 899 l 681 1115 l 874 1115 l 765 899 l 582 899 m 119 725 l 317 936 l 508 936 l 706 725 l 499 725 l 413 835 l 326 725 l 119 725 m 419 -14 q 128 74 222 -14 q 35 329 35 161 q 129 584 35 496 q 419 672 224 672 q 712 584 617 672 q 807 329 807 496 q 713 74 807 161 q 419 -14 618 -14 m 419 176 q 512 213 483 176 q 540 329 540 249 q 512 445 540 408 q 419 482 483 482 q 329 445 357 482 q 301 329 301 408 q 329 213 301 249 q 419 176 357 176 z "},"ộ":{"ha":842,"x_min":35,"x_max":807,"o":"m 126 725 l 342 1003 l 500 1003 l 715 725 l 526 725 l 421 875 l 321 725 l 126 725 m 419 -14 q 128 74 222 -14 q 35 329 35 161 q 129 584 35 496 q 419 672 224 672 q 712 584 617 672 q 807 329 807 496 q 713 74 807 161 q 419 -14 618 -14 m 419 176 q 512 213 483 176 q 540 329 540 249 q 512 445 540 408 q 419 482 483 482 q 329 445 357 482 q 301 329 301 408 q 329 213 301 249 q 419 176 357 176 m 331 -244 l 331 -78 l 511 -78 l 511 -244 l 331 -244 z "},"ồ":{"ha":842,"x_min":-40,"x_max":807,"o":"m 68 899 l -40 1115 l 153 1115 l 251 899 l 68 899 m 128 725 l 325 936 l 517 936 l 714 725 l 507 725 l 421 835 l 335 725 l 128 725 m 419 -14 q 128 74 222 -14 q 35 329 35 161 q 129 584 35 496 q 419 672 224 672 q 712 584 617 672 q 807 329 807 496 q 713 74 807 161 q 419 -14 618 -14 m 419 176 q 512 213 483 176 q 540 329 540 249 q 512 445 540 408 q 419 482 483 482 q 329 445 357 482 q 301 329 301 408 q 329 213 301 249 q 419 176 357 176 z "},"ổ":{"ha":842,"x_min":35,"x_max":876,"o":"m 601 867 l 601 968 q 682 981 663 969 q 701 1011 701 993 q 643 1042 701 1042 q 606 1039 624 1042 q 572 1032 588 1036 l 572 1132 q 633 1144 597 1139 q 710 1149 669 1149 q 835 1117 794 1149 q 876 1029 876 1085 q 852 951 876 982 q 775 913 828 921 l 775 867 l 601 867 m 125 725 l 322 936 l 514 936 l 711 725 l 504 725 l 418 835 l 332 725 l 125 725 m 419 -14 q 128 74 222 -14 q 35 329 35 161 q 129 584 35 496 q 419 672 224 672 q 712 584 617 672 q 807 329 807 496 q 713 74 807 161 q 419 -14 618 -14 m 419 176 q 512 213 483 176 q 540 329 540 249 q 512 445 540 408 q 419 482 483 482 q 329 445 357 482 q 301 329 301 408 q 329 213 301 249 q 419 176 357 176 z "},"ỗ":{"ha":842,"x_min":35,"x_max":807,"o":"m 540 956 q 455 970 497 956 q 373 999 413 985 q 296 1013 333 1013 q 220 999 253 1013 q 164 960 188 985 l 164 1106 q 218 1138 183 1125 q 292 1150 253 1150 q 377 1136 338 1150 q 456 1108 417 1122 q 536 1093 494 1093 q 611 1108 579 1093 q 660 1147 643 1124 l 660 1000 q 613 969 646 982 q 540 956 581 956 m 125 725 l 322 936 l 514 936 l 711 725 l 504 725 l 418 835 l 332 725 l 125 725 m 419 -14 q 128 74 222 -14 q 35 329 35 161 q 129 584 35 496 q 419 672 224 672 q 712 584 617 672 q 807 329 807 496 q 713 74 807 161 q 419 -14 618 -14 m 419 176 q 512 213 483 176 q 540 329 540 249 q 512 445 540 408 q 419 482 483 482 q 329 445 357 482 q 301 329 301 408 q 329 213 301 249 q 419 176 357 176 z "},"ö":{"ha":842,"x_min":35,"x_max":807,"o":"m 181 763 l 181 929 l 363 929 l 363 763 l 181 763 m 481 763 l 481 929 l 663 929 l 663 763 l 481 763 m 419 -14 q 128 74 222 -14 q 35 329 35 161 q 129 584 35 496 q 419 672 224 672 q 712 584 617 672 q 807 329 807 496 q 713 74 807 161 q 419 -14 618 -14 m 419 176 q 512 213 483 176 q 540 329 540 249 q 512 445 540 408 q 419 482 483 482 q 329 445 357 482 q 301 329 301 408 q 329 213 301 249 q 419 176 357 176 z "},"ọ":{"ha":842,"x_min":35,"x_max":807,"o":"m 419 -14 q 128 74 222 -14 q 35 329 35 161 q 129 584 35 496 q 419 672 224 672 q 712 584 617 672 q 807 329 807 496 q 713 74 807 161 q 419 -14 618 -14 m 419 176 q 512 213 483 176 q 540 329 540 249 q 512 445 540 408 q 419 482 483 482 q 329 445 357 482 q 301 329 301 408 q 329 213 301 249 q 419 176 357 176 m 331 -244 l 331 -78 l 511 -78 l 511 -244 l 331 -244 z "},"ò":{"ha":842,"x_min":35,"x_max":807,"o":"m 325 725 l 190 1011 l 394 1011 l 517 725 l 325 725 m 419 -14 q 128 74 222 -14 q 35 329 35 161 q 129 584 35 496 q 419 672 224 672 q 712 584 617 672 q 807 329 807 496 q 713 74 807 161 q 419 -14 618 -14 m 419 176 q 512 213 483 176 q 540 329 540 249 q 512 445 540 408 q 419 482 483 482 q 329 445 357 482 q 301 329 301 408 q 329 213 301 249 q 419 176 357 176 z "},"ỏ":{"ha":842,"x_min":35,"x_max":807,"o":"m 306 725 l 306 838 q 403 857 378 842 q 428 899 428 872 q 344 944 428 944 q 302 941 325 944 q 263 933 279 938 l 263 1042 q 422 1061 324 1061 q 567 1022 517 1061 q 618 921 618 982 q 588 830 618 861 q 501 782 558 799 l 501 725 l 306 725 m 419 -14 q 128 74 222 -14 q 35 329 35 161 q 129 584 35 496 q 419 672 224 672 q 712 584 617 672 q 807 329 807 496 q 713 74 807 161 q 419 -14 618 -14 m 419 176 q 512 213 483 176 q 540 329 540 249 q 512 445 540 408 q 419 482 483 482 q 329 445 357 482 q 301 329 301 408 q 329 213 301 249 q 419 176 357 176 z "},"ơ":{"ha":1000,"x_min":35,"x_max":1007,"o":"m 419 -14 q 128 74 222 -14 q 35 329 35 161 q 129 584 35 496 q 419 672 224 672 q 577 653 510 672 q 692 599 644 635 q 796 633 769 599 q 822 744 822 668 l 1007 744 q 957 528 1007 600 q 794 436 907 456 q 807 329 807 389 q 713 74 807 161 q 419 -14 618 -14 m 419 176 q 512 213 483 176 q 540 329 540 249 q 512 445 540 408 q 419 482 483 482 q 329 445 357 482 q 301 329 301 408 q 329 213 301 249 q 419 176 357 176 z "},"ớ":{"ha":1000,"x_min":35,"x_max":1007,"o":"m 307 725 l 429 1011 l 632 1011 l 499 725 l 307 725 m 419 -14 q 128 74 222 -14 q 35 329 35 161 q 129 584 35 496 q 419 672 224 672 q 577 653 510 672 q 692 599 644 635 q 796 633 769 599 q 822 744 822 668 l 1007 744 q 957 528 1007 600 q 794 436 907 456 q 807 329 807 389 q 713 74 807 161 q 419 -14 618 -14 m 419 176 q 512 213 483 176 q 540 329 540 249 q 512 445 540 408 q 419 482 483 482 q 329 445 357 482 q 301 329 301 408 q 329 213 301 249 q 419 176 357 176 z "},"ợ":{"ha":1000,"x_min":35,"x_max":1007,"o":"m 419 -14 q 128 74 222 -14 q 35 329 35 161 q 129 584 35 496 q 419 672 224 672 q 577 653 510 672 q 692 599 644 635 q 796 633 769 599 q 822 744 822 668 l 1007 744 q 957 528 1007 600 q 794 436 907 456 q 807 329 807 389 q 713 74 807 161 q 419 -14 618 -14 m 419 176 q 512 213 483 176 q 540 329 540 249 q 512 445 540 408 q 419 482 483 482 q 329 445 357 482 q 301 329 301 408 q 329 213 301 249 q 419 176 357 176 m 331 -244 l 331 -78 l 511 -78 l 511 -244 l 331 -244 z "},"ờ":{"ha":1000,"x_min":35,"x_max":1007,"o":"m 324 725 l 189 1011 l 393 1011 l 515 725 l 324 725 m 419 -14 q 128 74 222 -14 q 35 329 35 161 q 129 584 35 496 q 419 672 224 672 q 577 653 510 672 q 692 599 644 635 q 796 633 769 599 q 822 744 822 668 l 1007 744 q 957 528 1007 600 q 794 436 907 456 q 807 329 807 389 q 713 74 807 161 q 419 -14 618 -14 m 419 176 q 512 213 483 176 q 540 329 540 249 q 512 445 540 408 q 419 482 483 482 q 329 445 357 482 q 301 329 301 408 q 329 213 301 249 q 419 176 357 176 z "},"ở":{"ha":1000,"x_min":35,"x_max":1007,"o":"m 313 725 l 313 838 q 410 857 385 842 q 435 899 435 872 q 351 944 435 944 q 309 941 332 944 q 269 933 286 938 l 269 1042 q 429 1061 331 1061 q 574 1022 524 1061 q 625 921 625 982 q 595 830 625 861 q 508 782 565 799 l 508 725 l 313 725 m 419 -14 q 128 74 222 -14 q 35 329 35 161 q 129 584 35 496 q 419 672 224 672 q 577 653 510 672 q 692 599 644 635 q 796 633 769 599 q 822 744 822 668 l 1007 744 q 957 528 1007 600 q 794 436 907 456 q 807 329 807 389 q 713 74 807 161 q 419 -14 618 -14 m 419 176 q 512 213 483 176 q 540 329 540 249 q 512 445 540 408 q 419 482 483 482 q 329 445 357 482 q 301 329 301 408 q 329 213 301 249 q 419 176 357 176 z "},"ỡ":{"ha":1000,"x_min":35,"x_max":1007,"o":"m 557 731 q 468 745 511 731 q 385 774 425 760 q 306 789 344 789 q 228 774 263 789 q 169 735 194 760 l 169 899 q 225 931 189 918 q 301 944 261 944 q 389 930 349 944 q 469 901 429 915 q 553 886 510 886 q 629 902 597 886 q 678 942 661 918 l 678 776 q 631 744 664 758 q 557 731 597 731 m 419 -14 q 128 74 222 -14 q 35 329 35 161 q 129 584 35 496 q 419 672 224 672 q 577 653 510 672 q 692 599 644 635 q 796 633 769 599 q 822 744 822 668 l 1007 744 q 957 528 1007 600 q 794 436 907 456 q 807 329 807 389 q 713 74 807 161 q 419 -14 618 -14 m 419 176 q 512 213 483 176 q 540 329 540 249 q 512 445 540 408 q 419 482 483 482 q 329 445 357 482 q 301 329 301 408 q 329 213 301 249 q 419 176 357 176 z "},"ő":{"ha":842,"x_min":35,"x_max":807,"o":"m 119 725 l 239 981 l 458 981 l 317 725 l 119 725 m 444 725 l 564 981 l 783 981 l 642 725 l 444 725 m 419 -14 q 128 74 222 -14 q 35 329 35 161 q 129 584 35 496 q 419 672 224 672 q 712 584 617 672 q 807 329 807 496 q 713 74 807 161 q 419 -14 618 -14 m 419 176 q 512 213 483 176 q 540 329 540 249 q 512 445 540 408 q 419 482 483 482 q 329 445 357 482 q 301 329 301 408 q 329 213 301 249 q 419 176 357 176 z "},"ō":{"ha":842,"x_min":35,"x_max":807,"o":"m 193 775 l 193 931 l 649 931 l 649 775 l 193 775 m 419 -14 q 128 74 222 -14 q 35 329 35 161 q 129 584 35 496 q 419 672 224 672 q 712 584 617 672 q 807 329 807 496 q 713 74 807 161 q 419 -14 618 -14 m 419 176 q 512 213 483 176 q 540 329 540 249 q 512 445 540 408 q 419 482 483 482 q 329 445 357 482 q 301 329 301 408 q 329 213 301 249 q 419 176 357 176 z "},"ø":{"ha":842,"x_min":35,"x_max":807,"o":"m 194 -74 l 229 15 q 83 131 131 51 q 35 329 35 210 q 129 584 35 496 q 419 672 224 672 q 453 672 438 672 q 486 669 469 671 l 511 733 l 644 733 l 608 643 q 807 329 807 572 q 713 74 807 161 q 419 -14 618 -14 q 385 -13 401 -14 q 351 -11 368 -12 l 328 -74 l 194 -74 m 310 221 l 415 490 q 286 329 286 488 q 310 221 286 257 m 422 168 q 522 208 488 169 q 556 329 556 247 q 529 440 556 399 l 422 168 z "},"ǿ":{"ha":842,"x_min":35,"x_max":807,"o":"m 246 725 l 368 1011 l 571 1011 l 438 725 l 246 725 m 194 -74 l 229 15 q 83 131 131 51 q 35 329 35 210 q 129 584 35 496 q 419 672 224 672 q 453 672 438 672 q 486 669 469 671 l 511 733 l 644 733 l 608 643 q 807 329 807 572 q 713 74 807 161 q 419 -14 618 -14 q 385 -13 401 -14 q 351 -11 368 -12 l 328 -74 l 194 -74 m 310 221 l 415 490 q 286 329 286 488 q 310 221 286 257 m 422 168 q 522 208 488 169 q 556 329 556 247 q 529 440 556 399 l 422 168 z "},"õ":{"ha":842,"x_min":35,"x_max":807,"o":"m 554 757 q 465 772 508 757 q 382 801 422 786 q 303 815 342 815 q 226 801 260 815 q 167 761 192 786 l 167 925 q 222 958 186 944 q 299 971 258 971 q 386 956 346 971 q 467 927 426 942 q 550 913 507 913 q 626 928 594 913 q 675 968 658 944 l 675 803 q 628 771 661 785 q 554 757 594 757 m 419 -14 q 128 74 222 -14 q 35 329 35 161 q 129 584 35 496 q 419 672 224 672 q 712 584 617 672 q 807 329 807 496 q 713 74 807 161 q 419 -14 618 -14 m 419 176 q 512 213 483 176 q 540 329 540 249 q 512 445 540 408 q 419 482 483 482 q 329 445 357 482 q 301 329 301 408 q 329 213 301 249 q 419 176 357 176 z "},"œ":{"ha":1294,"x_min":35,"x_max":1260,"o":"m 419 -14 q 128 74 222 -14 q 35 329 35 161 q 129 584 35 496 q 419 672 224 672 q 683 607 588 672 q 785 656 726 639 q 917 672 843 672 q 1169 590 1078 672 q 1260 367 1260 508 l 1260 251 l 803 251 q 874 176 821 199 q 1017 154 926 154 q 1131 165 1074 154 q 1224 189 1189 175 l 1224 32 q 953 -14 1126 -14 q 692 57 792 -14 q 419 -14 596 -14 m 925 506 q 830 477 857 506 q 803 396 803 449 l 803 393 l 1035 393 l 1035 417 q 1010 481 1035 456 q 925 506 986 506 m 419 176 q 512 213 483 176 q 540 329 540 249 q 512 445 540 408 q 419 482 483 482 q 329 445 357 482 q 301 329 301 408 q 329 213 301 249 q 419 176 357 176 z "},"p":{"ha":843,"x_min":63,"x_max":808,"o":"m 63 -300 l 63 658 l 289 658 l 301 606 q 390 655 342 638 q 501 672 438 672 q 728 598 649 672 q 808 346 808 524 q 724 78 808 169 q 490 -14 639 -14 q 324 24 392 -14 l 324 -300 l 63 -300 m 424 176 q 511 217 481 176 q 542 342 542 257 q 513 453 542 424 q 426 482 485 482 q 324 443 368 482 l 324 210 q 368 185 346 193 q 424 176 390 176 z "},"þ":{"ha":843,"x_min":63,"x_max":808,"o":"m 63 -300 l 63 972 l 324 972 l 324 635 q 490 672 392 672 q 723 590 638 672 q 808 329 808 507 q 724 69 808 153 q 490 -14 639 -14 q 324 24 392 -14 l 324 -300 l 63 -300 m 424 176 q 511 213 481 176 q 542 333 542 249 q 513 449 542 415 q 426 482 485 482 q 324 443 368 482 l 324 210 q 368 185 346 193 q 424 176 390 176 z "},"q":{"ha":843,"x_min":35,"x_max":899,"o":"m 743 -336 q 574 -283 628 -336 q 519 -119 519 -231 l 519 24 q 443 -4 488 6 q 353 -14 399 -14 q 120 65 206 -14 q 35 321 35 144 q 118 585 35 499 q 344 672 201 672 q 456 655 410 672 q 540 606 501 638 l 554 658 l 781 658 l 781 -89 q 792 -135 781 -122 q 836 -147 804 -147 q 899 -136 868 -147 l 899 -308 q 831 -329 864 -322 q 743 -336 797 -336 m 418 176 q 475 185 451 176 q 519 210 499 193 l 519 443 q 474 472 497 463 q 419 482 451 482 q 331 444 361 482 q 301 325 301 407 q 332 208 301 240 q 418 176 363 176 z "},"r":{"ha":561,"x_min":63,"x_max":550,"o":"m 63 0 l 63 658 l 314 658 l 321 606 q 424 649 361 629 q 550 672 486 668 l 550 478 q 472 468 514 475 q 390 451 429 461 q 324 428 350 440 l 324 0 l 63 0 z "},"ŕ":{"ha":557,"x_min":63,"x_max":550,"o":"m 81 725 l 203 1011 l 406 1011 l 272 725 l 81 725 m 63 0 l 63 658 l 314 658 l 321 606 q 424 649 361 629 q 550 672 486 668 l 550 478 q 472 468 514 475 q 390 451 429 461 q 324 428 350 440 l 324 0 l 63 0 z "},"ř":{"ha":557,"x_min":13,"x_max":601,"o":"m 228 725 l 13 1003 l 207 1003 l 307 851 l 413 1003 l 601 1003 l 386 725 l 228 725 m 63 0 l 63 658 l 314 658 l 321 606 q 424 649 361 629 q 550 672 486 668 l 550 478 q 472 468 514 475 q 390 451 429 461 q 324 428 350 440 l 324 0 l 63 0 z "},"ŗ":{"ha":557,"x_min":43,"x_max":550,"o":"m 63 0 l 63 658 l 314 658 l 321 606 q 424 649 361 629 q 550 672 486 668 l 550 478 q 472 468 514 475 q 390 451 429 461 q 324 428 350 440 l 324 0 l 63 0 m 43 -364 l 90 -51 l 303 -51 l 224 -364 l 43 -364 z "},"ṛ":{"ha":557,"x_min":63,"x_max":550,"o":"m 63 0 l 63 658 l 314 658 l 321 606 q 424 649 361 629 q 550 672 486 668 l 550 478 q 472 468 514 475 q 390 451 429 461 q 324 428 350 440 l 324 0 l 63 0 m 97 -244 l 97 -78 l 278 -78 l 278 -244 l 97 -244 z "},"ṝ":{"ha":557,"x_min":-6,"x_max":550,"o":"m -6 765 l -6 921 l 450 921 l 450 765 l -6 765 m 63 0 l 63 658 l 314 658 l 321 606 q 424 649 361 629 q 550 672 486 668 l 550 478 q 472 468 514 475 q 390 451 429 461 q 324 428 350 440 l 324 0 l 63 0 m 97 -244 l 97 -78 l 278 -78 l 278 -244 l 97 -244 z "},"ṟ":{"ha":557,"x_min":-25,"x_max":550,"o":"m 63 0 l 63 658 l 314 658 l 321 606 q 424 649 361 629 q 550 672 486 668 l 550 478 q 472 468 514 475 q 390 451 429 461 q 324 428 350 440 l 324 0 l 63 0 m -25 -244 l -25 -89 l 431 -89 l 431 -244 l -25 -244 z "},"s":{"ha":676,"x_min":35,"x_max":642,"o":"m 319 -14 q 160 -2 235 -14 q 43 28 86 10 l 43 215 q 159 181 92 193 q 274 168 226 168 q 349 171 324 168 q 375 194 375 174 q 329 231 375 218 q 214 267 283 243 q 79 342 124 299 q 35 467 35 385 q 113 619 35 565 q 357 672 190 672 q 489 663 421 672 q 596 640 557 653 l 596 457 q 505 483 554 475 q 415 492 456 492 q 336 488 371 492 q 301 464 301 483 q 341 432 301 442 q 447 401 381 422 q 565 353 522 379 q 624 289 607 326 q 642 196 642 251 q 560 41 642 96 q 319 -14 479 -14 z "},"ś":{"ha":676,"x_min":35,"x_max":642,"o":"m 214 725 l 336 1011 l 539 1011 l 406 725 l 214 725 m 319 -14 q 160 -2 235 -14 q 43 28 86 10 l 43 215 q 159 181 92 193 q 274 168 226 168 q 349 171 324 168 q 375 194 375 174 q 329 231 375 218 q 214 267 283 243 q 79 342 124 299 q 35 467 35 385 q 113 619 35 565 q 357 672 190 672 q 489 663 421 672 q 596 640 557 653 l 596 457 q 505 483 554 475 q 415 492 456 492 q 336 488 371 492 q 301 464 301 483 q 341 432 301 442 q 447 401 381 422 q 565 353 522 379 q 624 289 607 326 q 642 196 642 251 q 560 41 642 96 q 319 -14 479 -14 z "},"š":{"ha":676,"x_min":35,"x_max":642,"o":"m 254 725 l 39 1003 l 233 1003 l 333 851 l 439 1003 l 628 1003 l 413 725 l 254 725 m 319 -14 q 160 -2 235 -14 q 43 28 86 10 l 43 215 q 159 181 92 193 q 274 168 226 168 q 349 171 324 168 q 375 194 375 174 q 329 231 375 218 q 214 267 283 243 q 79 342 124 299 q 35 467 35 385 q 113 619 35 565 q 357 672 190 672 q 489 663 421 672 q 596 640 557 653 l 596 457 q 505 483 554 475 q 415 492 456 492 q 336 488 371 492 q 301 464 301 483 q 341 432 301 442 q 447 401 381 422 q 565 353 522 379 q 624 289 607 326 q 642 196 642 251 q 560 41 642 96 q 319 -14 479 -14 z "},"ş":{"ha":676,"x_min":35,"x_max":642,"o":"m 308 -333 q 247 -330 283 -333 q 194 -322 210 -326 l 194 -219 q 276 -231 235 -231 q 353 -220 329 -231 q 376 -183 376 -210 q 356 -148 376 -156 q 301 -140 335 -140 l 214 -140 l 251 -11 q 131 3 186 -7 q 43 28 76 14 l 43 215 q 159 181 92 193 q 274 168 226 168 q 349 171 324 168 q 375 194 375 174 q 329 231 375 218 q 214 267 283 243 q 79 342 124 299 q 35 467 35 385 q 113 619 35 565 q 357 672 190 672 q 489 663 421 672 q 596 640 557 653 l 596 457 q 505 483 554 475 q 415 492 456 492 q 336 488 371 492 q 301 464 301 483 q 341 432 301 442 q 447 401 381 422 q 565 353 522 379 q 624 289 607 326 q 642 196 642 251 q 579 55 642 108 q 393 -11 517 1 l 376 -57 q 495 -94 458 -57 q 532 -187 532 -131 q 477 -294 532 -256 q 308 -333 422 -333 z "},"ŝ":{"ha":676,"x_min":35,"x_max":642,"o":"m 35 725 l 250 1003 l 408 1003 l 624 725 l 435 725 l 329 875 l 229 725 l 35 725 m 319 -14 q 160 -2 235 -14 q 43 28 86 10 l 43 215 q 159 181 92 193 q 274 168 226 168 q 349 171 324 168 q 375 194 375 174 q 329 231 375 218 q 214 267 283 243 q 79 342 124 299 q 35 467 35 385 q 113 619 35 565 q 357 672 190 672 q 489 663 421 672 q 596 640 557 653 l 596 457 q 505 483 554 475 q 415 492 456 492 q 336 488 371 492 q 301 464 301 483 q 341 432 301 442 q 447 401 381 422 q 565 353 522 379 q 624 289 607 326 q 642 196 642 251 q 560 41 642 96 q 319 -14 479 -14 z "},"ș":{"ha":676,"x_min":35,"x_max":642,"o":"m 319 -14 q 160 -2 235 -14 q 43 28 86 10 l 43 215 q 159 181 92 193 q 274 168 226 168 q 349 171 324 168 q 375 194 375 174 q 329 231 375 218 q 214 267 283 243 q 79 342 124 299 q 35 467 35 385 q 113 619 35 565 q 357 672 190 672 q 489 663 421 672 q 596 640 557 653 l 596 457 q 505 483 554 475 q 415 492 456 492 q 336 488 371 492 q 301 464 301 483 q 341 432 301 442 q 447 401 381 422 q 565 353 522 379 q 624 289 607 326 q 642 196 642 251 q 560 41 642 96 q 319 -14 479 -14 m 200 -325 l 244 -58 l 451 -58 l 386 -325 l 200 -325 z "},"ṡ":{"ha":676,"x_min":35,"x_max":642,"o":"m 232 763 l 232 929 l 413 929 l 413 763 l 232 763 m 319 -14 q 160 -2 235 -14 q 43 28 86 10 l 43 215 q 159 181 92 193 q 274 168 226 168 q 349 171 324 168 q 375 194 375 174 q 329 231 375 218 q 214 267 283 243 q 79 342 124 299 q 35 467 35 385 q 113 619 35 565 q 357 672 190 672 q 489 663 421 672 q 596 640 557 653 l 596 457 q 505 483 554 475 q 415 492 456 492 q 336 488 371 492 q 301 464 301 483 q 341 432 301 442 q 447 401 381 422 q 565 353 522 379 q 624 289 607 326 q 642 196 642 251 q 560 41 642 96 q 319 -14 479 -14 z "},"ṣ":{"ha":676,"x_min":35,"x_max":642,"o":"m 319 -14 q 160 -2 235 -14 q 43 28 86 10 l 43 215 q 159 181 92 193 q 274 168 226 168 q 349 171 324 168 q 375 194 375 174 q 329 231 375 218 q 214 267 283 243 q 79 342 124 299 q 35 467 35 385 q 113 619 35 565 q 357 672 190 672 q 489 663 421 672 q 596 640 557 653 l 596 457 q 505 483 554 475 q 415 492 456 492 q 336 488 371 492 q 301 464 301 483 q 341 432 301 442 q 447 401 381 422 q 565 353 522 379 q 624 289 607 326 q 642 196 642 251 q 560 41 642 96 q 319 -14 479 -14 m 254 -244 l 254 -78 l 435 -78 l 435 -244 l 254 -244 z "},"ß":{"ha":899,"x_min":56,"x_max":864,"o":"m 563 -14 q 372 17 446 -14 l 372 215 q 431 200 397 206 q 496 194 465 194 q 597 282 597 194 q 570 350 597 331 q 485 369 543 369 l 396 369 l 396 551 l 469 551 q 541 574 517 551 q 565 649 565 597 q 543 718 565 686 q 450 750 521 750 q 343 717 379 750 q 307 608 307 685 l 307 0 l 56 0 l 56 622 q 103 803 56 725 q 237 927 150 882 q 442 972 324 972 q 659 928 572 972 q 789 812 746 883 q 832 661 832 740 q 806 541 832 592 q 738 464 781 490 q 830 392 796 440 q 864 265 864 343 q 785 62 864 138 q 563 -14 707 -14 z "},"t":{"ha":528,"x_min":7,"x_max":521,"o":"m 344 -14 q 153 53 213 -14 q 93 233 93 119 l 93 465 l 7 465 l 7 658 l 93 658 l 93 793 l 354 856 l 354 658 l 506 658 l 496 465 l 354 465 l 354 253 q 375 194 354 211 q 439 176 396 176 q 521 190 479 176 l 521 17 q 344 -14 447 -14 z "},"ŧ":{"ha":528,"x_min":7,"x_max":521,"o":"m 7 261 l 7 408 l 93 408 l 93 465 l 7 465 l 7 658 l 93 658 l 93 793 l 354 856 l 354 658 l 506 658 l 496 465 l 354 465 l 354 408 l 506 408 l 506 261 l 354 261 l 354 253 q 375 194 354 211 q 439 176 396 176 q 521 190 479 176 l 521 17 q 344 -14 447 -14 q 153 53 213 -14 q 93 233 93 119 l 93 261 l 7 261 z "},"ť":{"ha":532,"x_min":7,"x_max":724,"o":"m 464 775 l 511 1088 l 724 1088 l 644 775 l 464 775 m 344 -14 q 153 53 213 -14 q 93 233 93 119 l 93 465 l 7 465 l 7 658 l 93 658 l 93 793 l 354 856 l 354 658 l 506 658 l 496 465 l 354 465 l 354 253 q 375 194 354 211 q 439 176 396 176 q 521 190 479 176 l 521 17 q 344 -14 447 -14 z "},"ţ":{"ha":538,"x_min":7,"x_max":553,"o":"m 329 -333 q 267 -330 304 -333 q 215 -322 231 -326 l 215 -219 q 297 -231 256 -231 q 374 -220 350 -231 q 397 -183 397 -210 q 376 -148 397 -156 q 322 -140 356 -140 l 235 -140 l 272 -8 q 136 73 179 10 q 93 233 93 136 l 93 465 l 7 465 l 7 658 l 93 658 l 93 793 l 354 856 l 354 658 l 506 658 l 496 465 l 354 465 l 354 253 q 375 194 354 211 q 439 176 396 176 q 521 190 479 176 l 521 17 q 414 -10 472 -4 l 397 -57 q 516 -94 479 -57 q 553 -187 553 -131 q 498 -294 553 -256 q 329 -333 443 -333 z "},"ț":{"ha":528,"x_min":7,"x_max":521,"o":"m 344 -14 q 153 53 213 -14 q 93 233 93 119 l 93 465 l 7 465 l 7 658 l 93 658 l 93 793 l 354 856 l 354 658 l 506 658 l 496 465 l 354 465 l 354 253 q 375 194 354 211 q 439 176 396 176 q 521 190 479 176 l 521 17 q 344 -14 447 -14 m 176 -371 l 224 -58 l 436 -58 l 357 -371 l 176 -371 z "},"ẗ":{"ha":528,"x_min":7,"x_max":521,"o":"m 21 893 l 21 1060 l 203 1060 l 203 893 l 21 893 m 321 893 l 321 1060 l 503 1060 l 503 893 l 321 893 m 344 -14 q 153 53 213 -14 q 93 233 93 119 l 93 465 l 7 465 l 7 658 l 93 658 l 93 793 l 354 856 l 354 658 l 506 658 l 496 465 l 354 465 l 354 253 q 375 194 354 211 q 439 176 396 176 q 521 190 479 176 l 521 17 q 344 -14 447 -14 z "},"ṭ":{"ha":528,"x_min":7,"x_max":521,"o":"m 344 -14 q 153 53 213 -14 q 93 233 93 119 l 93 465 l 7 465 l 7 658 l 93 658 l 93 793 l 354 856 l 354 658 l 506 658 l 496 465 l 354 465 l 354 253 q 375 194 354 211 q 439 176 396 176 q 521 190 479 176 l 521 17 q 344 -14 447 -14 m 192 -244 l 192 -78 l 372 -78 l 372 -244 l 192 -244 z "},"ṯ":{"ha":528,"x_min":7,"x_max":521,"o":"m 344 -14 q 153 53 213 -14 q 93 233 93 119 l 93 465 l 7 465 l 7 658 l 93 658 l 93 793 l 354 856 l 354 658 l 506 658 l 496 465 l 354 465 l 354 253 q 375 194 354 211 q 439 176 396 176 q 521 190 479 176 l 521 17 q 344 -14 447 -14 m 32 -244 l 32 -89 l 488 -89 l 488 -244 l 32 -244 z "},"u":{"ha":839,"x_min":56,"x_max":776,"o":"m 301 -14 q 121 51 186 -14 q 56 243 56 117 l 56 658 l 317 658 l 317 264 q 404 178 317 178 q 467 192 436 178 q 515 226 497 206 l 515 658 l 776 658 l 776 0 l 532 0 l 525 50 q 430 4 486 22 q 301 -14 374 -14 z "},"ú":{"ha":839,"x_min":56,"x_max":776,"o":"m 294 725 l 417 1011 l 619 1011 l 486 725 l 294 725 m 301 -14 q 121 51 186 -14 q 56 243 56 117 l 56 658 l 317 658 l 317 264 q 404 178 317 178 q 467 192 436 178 q 515 226 497 206 l 515 658 l 776 658 l 776 0 l 532 0 l 525 50 q 430 4 486 22 q 301 -14 374 -14 z "},"ŭ":{"ha":839,"x_min":56,"x_max":776,"o":"m 418 725 q 228 792 300 725 q 156 985 156 858 l 325 985 q 345 901 325 933 q 418 868 365 868 q 492 901 471 868 q 513 985 513 933 l 682 985 q 610 792 682 858 q 418 725 538 725 m 301 -14 q 121 51 186 -14 q 56 243 56 117 l 56 658 l 317 658 l 317 264 q 404 178 317 178 q 467 192 436 178 q 515 226 497 206 l 515 658 l 776 658 l 776 0 l 532 0 l 525 50 q 430 4 486 22 q 301 -14 374 -14 z "},"ǔ":{"ha":839,"x_min":56,"x_max":776,"o":"m 342 725 l 126 1003 l 321 1003 l 421 851 l 526 1003 l 715 1003 l 500 725 l 342 725 m 301 -14 q 121 51 186 -14 q 56 243 56 117 l 56 658 l 317 658 l 317 264 q 404 178 317 178 q 467 192 436 178 q 515 226 497 206 l 515 658 l 776 658 l 776 0 l 532 0 l 525 50 q 430 4 486 22 q 301 -14 374 -14 z "},"û":{"ha":839,"x_min":56,"x_max":776,"o":"m 121 725 l 336 1003 l 494 1003 l 710 725 l 521 725 l 415 875 l 315 725 l 121 725 m 301 -14 q 121 51 186 -14 q 56 243 56 117 l 56 658 l 317 658 l 317 264 q 404 178 317 178 q 467 192 436 178 q 515 226 497 206 l 515 658 l 776 658 l 776 0 l 532 0 l 525 50 q 430 4 486 22 q 301 -14 374 -14 z "},"ü":{"ha":839,"x_min":56,"x_max":776,"o":"m 176 763 l 176 929 l 358 929 l 358 763 l 176 763 m 476 763 l 476 929 l 658 929 l 658 763 l 476 763 m 301 -14 q 121 51 186 -14 q 56 243 56 117 l 56 658 l 317 658 l 317 264 q 404 178 317 178 q 467 192 436 178 q 515 226 497 206 l 515 658 l 776 658 l 776 0 l 532 0 l 525 50 q 430 4 486 22 q 301 -14 374 -14 z "},"ǘ":{"ha":839,"x_min":56,"x_max":776,"o":"m 314 943 l 393 1133 l 588 1133 l 490 943 l 314 943 m 169 750 l 169 907 l 346 907 l 346 750 l 169 750 m 468 750 l 468 907 l 644 907 l 644 750 l 468 750 m 301 -14 q 121 51 186 -14 q 56 243 56 117 l 56 658 l 317 658 l 317 264 q 404 178 317 178 q 467 192 436 178 q 515 226 497 206 l 515 658 l 776 658 l 776 0 l 532 0 l 525 50 q 430 4 486 22 q 301 -14 374 -14 z "},"ǚ":{"ha":839,"x_min":56,"x_max":776,"o":"m 329 921 l 154 1106 l 346 1106 l 419 1004 l 496 1106 l 683 1106 l 508 921 l 329 921 m 178 731 l 178 888 l 354 888 l 354 731 l 178 731 m 476 731 l 476 888 l 653 888 l 653 731 l 476 731 m 301 -14 q 121 51 186 -14 q 56 243 56 117 l 56 658 l 317 658 l 317 264 q 404 178 317 178 q 467 192 436 178 q 515 226 497 206 l 515 658 l 776 658 l 776 0 l 532 0 l 525 50 q 430 4 486 22 q 301 -14 374 -14 z "},"ǜ":{"ha":839,"x_min":56,"x_max":776,"o":"m 333 943 l 236 1133 l 431 1133 l 510 943 l 333 943 m 179 750 l 179 907 l 356 907 l 356 750 l 179 750 m 478 750 l 478 907 l 654 907 l 654 750 l 478 750 m 301 -14 q 121 51 186 -14 q 56 243 56 117 l 56 658 l 317 658 l 317 264 q 404 178 317 178 q 467 192 436 178 q 515 226 497 206 l 515 658 l 776 658 l 776 0 l 532 0 l 525 50 q 430 4 486 22 q 301 -14 374 -14 z "},"ǖ":{"ha":839,"x_min":56,"x_max":776,"o":"m 189 989 l 189 1144 l 644 1144 l 644 989 l 189 989 m 176 742 l 176 908 l 358 908 l 358 742 l 176 742 m 476 742 l 476 908 l 658 908 l 658 742 l 476 742 m 301 -14 q 121 51 186 -14 q 56 243 56 117 l 56 658 l 317 658 l 317 264 q 404 178 317 178 q 467 192 436 178 q 515 226 497 206 l 515 658 l 776 658 l 776 0 l 532 0 l 525 50 q 430 4 486 22 q 301 -14 374 -14 z "},"ụ":{"ha":839,"x_min":56,"x_max":776,"o":"m 301 -14 q 121 51 186 -14 q 56 243 56 117 l 56 658 l 317 658 l 317 264 q 404 178 317 178 q 467 192 436 178 q 515 226 497 206 l 515 658 l 776 658 l 776 0 l 532 0 l 525 50 q 430 4 486 22 q 301 -14 374 -14 m 324 -244 l 324 -78 l 504 -78 l 504 -244 l 324 -244 z "},"ù":{"ha":839,"x_min":56,"x_max":776,"o":"m 346 725 l 211 1011 l 415 1011 l 538 725 l 346 725 m 301 -14 q 121 51 186 -14 q 56 243 56 117 l 56 658 l 317 658 l 317 264 q 404 178 317 178 q 467 192 436 178 q 515 226 497 206 l 515 658 l 776 658 l 776 0 l 532 0 l 525 50 q 430 4 486 22 q 301 -14 374 -14 z "},"ủ":{"ha":839,"x_min":56,"x_max":776,"o":"m 318 725 l 318 838 q 415 857 390 842 q 440 899 440 872 q 357 944 440 944 q 315 941 338 944 q 275 933 292 938 l 275 1042 q 435 1061 336 1061 q 580 1022 529 1061 q 631 921 631 982 q 601 830 631 861 q 514 782 571 799 l 514 725 l 318 725 m 301 -14 q 121 51 186 -14 q 56 243 56 117 l 56 658 l 317 658 l 317 264 q 404 178 317 178 q 467 192 436 178 q 515 226 497 206 l 515 658 l 776 658 l 776 0 l 532 0 l 525 50 q 430 4 486 22 q 301 -14 374 -14 z "},"ư":{"ha":1061,"x_min":56,"x_max":1061,"o":"m 301 -14 q 121 51 186 -14 q 56 243 56 117 l 56 658 l 317 658 l 317 264 q 404 178 317 178 q 467 192 436 178 q 515 226 497 206 l 515 658 l 776 658 l 776 600 q 856 641 835 607 q 876 744 876 675 l 1061 744 q 995 508 1061 579 q 776 429 929 436 l 776 0 l 532 0 l 525 50 q 430 4 486 22 q 301 -14 374 -14 z "},"ứ":{"ha":1061,"x_min":56,"x_max":1061,"o":"m 299 725 l 421 1011 l 624 1011 l 490 725 l 299 725 m 301 -14 q 121 51 186 -14 q 56 243 56 117 l 56 658 l 317 658 l 317 264 q 404 178 317 178 q 467 192 436 178 q 515 226 497 206 l 515 658 l 776 658 l 776 600 q 856 641 835 607 q 876 744 876 675 l 1061 744 q 995 508 1061 579 q 776 429 929 436 l 776 0 l 532 0 l 525 50 q 430 4 486 22 q 301 -14 374 -14 z "},"ự":{"ha":1061,"x_min":56,"x_max":1061,"o":"m 301 -14 q 121 51 186 -14 q 56 243 56 117 l 56 658 l 317 658 l 317 264 q 404 178 317 178 q 467 192 436 178 q 515 226 497 206 l 515 658 l 776 658 l 776 600 q 856 641 835 607 q 876 744 876 675 l 1061 744 q 995 508 1061 579 q 776 429 929 436 l 776 0 l 532 0 l 525 50 q 430 4 486 22 q 301 -14 374 -14 m 329 -244 l 329 -78 l 510 -78 l 510 -244 l 329 -244 z "},"ừ":{"ha":1061,"x_min":56,"x_max":1061,"o":"m 283 725 l 149 1011 l 353 1011 l 475 725 l 283 725 m 301 -14 q 121 51 186 -14 q 56 243 56 117 l 56 658 l 317 658 l 317 264 q 404 178 317 178 q 467 192 436 178 q 515 226 497 206 l 515 658 l 776 658 l 776 600 q 856 641 835 607 q 876 744 876 675 l 1061 744 q 995 508 1061 579 q 776 429 929 436 l 776 0 l 532 0 l 525 50 q 430 4 486 22 q 301 -14 374 -14 z "},"ử":{"ha":1061,"x_min":56,"x_max":1061,"o":"m 275 724 l 275 836 q 372 856 347 840 q 397 897 397 871 q 314 943 397 943 q 272 940 294 943 q 232 932 249 936 l 232 1040 q 392 1060 293 1060 q 537 1020 486 1060 q 588 919 588 981 q 558 828 588 860 q 471 781 528 797 l 471 724 l 275 724 m 301 -14 q 121 51 186 -14 q 56 243 56 117 l 56 658 l 317 658 l 317 264 q 404 178 317 178 q 467 192 436 178 q 515 226 497 206 l 515 658 l 776 658 l 776 600 q 856 641 835 607 q 876 744 876 675 l 1061 744 q 995 508 1061 579 q 776 429 929 436 l 776 0 l 532 0 l 525 50 q 430 4 486 22 q 301 -14 374 -14 z "},"ữ":{"ha":1061,"x_min":56,"x_max":1061,"o":"m 553 731 q 464 745 507 731 q 381 774 421 760 q 301 789 340 789 q 224 774 258 789 q 165 735 190 760 l 165 899 q 221 931 185 918 q 297 944 257 944 q 385 930 344 944 q 465 901 425 915 q 549 886 506 886 q 625 902 593 886 q 674 942 657 918 l 674 776 q 626 744 660 758 q 553 731 593 731 m 301 -14 q 121 51 186 -14 q 56 243 56 117 l 56 658 l 317 658 l 317 264 q 404 178 317 178 q 467 192 436 178 q 515 226 497 206 l 515 658 l 776 658 l 776 600 q 856 641 835 607 q 876 744 876 675 l 1061 744 q 995 508 1061 579 q 776 429 929 436 l 776 0 l 532 0 l 525 50 q 430 4 486 22 q 301 -14 374 -14 z "},"ű":{"ha":839,"x_min":56,"x_max":776,"o":"m 96 725 l 215 981 l 435 981 l 293 725 l 96 725 m 421 725 l 540 981 l 760 981 l 618 725 l 421 725 m 301 -14 q 121 51 186 -14 q 56 243 56 117 l 56 658 l 317 658 l 317 264 q 404 178 317 178 q 467 192 436 178 q 515 226 497 206 l 515 658 l 776 658 l 776 0 l 532 0 l 525 50 q 430 4 486 22 q 301 -14 374 -14 z "},"ū":{"ha":839,"x_min":56,"x_max":776,"o":"m 188 775 l 188 931 l 643 931 l 643 775 l 188 775 m 301 -14 q 121 51 186 -14 q 56 243 56 117 l 56 658 l 317 658 l 317 264 q 404 178 317 178 q 467 192 436 178 q 515 226 497 206 l 515 658 l 776 658 l 776 0 l 532 0 l 525 50 q 430 4 486 22 q 301 -14 374 -14 z "},"ų":{"ha":839,"x_min":56,"x_max":776,"o":"m 301 -14 q 121 51 186 -14 q 56 243 56 117 l 56 658 l 317 658 l 317 264 q 404 178 317 178 q 467 192 436 178 q 515 226 497 206 l 515 658 l 776 658 l 776 0 l 706 0 q 648 -57 671 -26 q 625 -124 625 -87 q 685 -179 625 -179 q 722 -175 703 -179 q 754 -164 742 -171 l 754 -283 q 694 -299 733 -292 q 613 -306 656 -306 q 481 -273 533 -306 q 429 -171 429 -240 q 458 -74 429 -118 q 532 0 486 -29 l 525 50 q 430 4 486 22 q 301 -14 374 -14 z "},"ů":{"ha":839,"x_min":56,"x_max":776,"o":"m 415 725 q 273 778 324 725 q 222 907 222 831 q 273 1038 222 985 q 415 1090 324 1090 q 558 1038 508 1090 q 608 907 608 985 q 558 778 608 831 q 415 725 508 725 m 415 832 q 474 854 454 832 q 493 907 493 876 q 474 960 493 938 q 415 982 454 982 q 358 960 378 982 q 338 907 338 938 q 358 854 338 876 q 415 832 378 832 m 301 -14 q 121 51 186 -14 q 56 243 56 117 l 56 658 l 317 658 l 317 264 q 404 178 317 178 q 467 192 436 178 q 515 226 497 206 l 515 658 l 776 658 l 776 0 l 532 0 l 525 50 q 430 4 486 22 q 301 -14 374 -14 z "},"ũ":{"ha":839,"x_min":56,"x_max":776,"o":"m 551 736 q 463 751 506 736 q 379 780 419 765 q 300 794 339 794 q 223 780 257 794 q 164 740 189 765 l 164 904 q 219 937 183 924 q 296 950 256 950 q 383 935 343 950 q 464 906 424 921 q 547 892 504 892 q 624 908 592 892 q 672 947 656 924 l 672 782 q 625 750 658 764 q 551 736 592 736 m 301 -14 q 121 51 186 -14 q 56 243 56 117 l 56 658 l 317 658 l 317 264 q 404 178 317 178 q 467 192 436 178 q 515 226 497 206 l 515 658 l 776 658 l 776 0 l 532 0 l 525 50 q 430 4 486 22 q 301 -14 374 -14 z "},"v":{"ha":864,"x_min":35,"x_max":829,"o":"m 294 0 l 35 658 l 307 658 l 432 272 l 557 658 l 829 658 l 569 0 l 294 0 z "},"w":{"ha":1088,"x_min":35,"x_max":1053,"o":"m 208 0 l 35 658 l 288 658 l 365 332 l 442 564 l 442 658 l 633 658 l 725 332 l 800 658 l 1053 658 l 879 0 l 646 0 l 546 299 l 446 0 l 208 0 z "},"ẃ":{"ha":1088,"x_min":35,"x_max":1053,"o":"m 436 725 l 558 1011 l 761 1011 l 628 725 l 436 725 m 208 0 l 35 658 l 288 658 l 365 332 l 442 564 l 442 658 l 633 658 l 725 332 l 800 658 l 1053 658 l 879 0 l 646 0 l 546 299 l 446 0 l 208 0 z "},"ŵ":{"ha":1088,"x_min":35,"x_max":1053,"o":"m 251 725 l 467 1003 l 625 1003 l 840 725 l 651 725 l 546 875 l 446 725 l 251 725 m 208 0 l 35 658 l 288 658 l 365 332 l 442 564 l 442 658 l 633 658 l 725 332 l 800 658 l 1053 658 l 879 0 l 646 0 l 546 299 l 446 0 l 208 0 z "},"ẅ":{"ha":1088,"x_min":35,"x_max":1053,"o":"m 306 763 l 306 929 l 488 929 l 488 763 l 306 763 m 606 763 l 606 929 l 788 929 l 788 763 l 606 763 m 208 0 l 35 658 l 288 658 l 365 332 l 442 564 l 442 658 l 633 658 l 725 332 l 800 658 l 1053 658 l 879 0 l 646 0 l 546 299 l 446 0 l 208 0 z "},"ẁ":{"ha":1088,"x_min":35,"x_max":1053,"o":"m 436 725 l 301 1011 l 506 1011 l 628 725 l 436 725 m 208 0 l 35 658 l 288 658 l 365 332 l 442 564 l 442 658 l 633 658 l 725 332 l 800 658 l 1053 658 l 879 0 l 646 0 l 546 299 l 446 0 l 208 0 z "},"x":{"ha":849,"x_min":28,"x_max":821,"o":"m 28 0 l 282 335 l 38 658 l 321 658 l 424 519 l 528 658 l 810 658 l 567 335 l 821 0 l 535 0 l 424 147 l 313 0 l 28 0 z "},"y":{"ha":892,"x_min":35,"x_max":885,"o":"m 283 -244 q 190 -238 228 -244 q 114 -218 151 -232 l 114 -40 q 156 -51 136 -49 q 199 -54 176 -54 q 280 -40 254 -54 q 332 15 306 -26 l 35 658 l 308 658 l 463 271 l 613 658 l 885 658 l 642 63 q 502 -161 585 -78 q 283 -244 419 -244 z "},"ý":{"ha":892,"x_min":35,"x_max":885,"o":"m 358 725 l 481 1011 l 683 1011 l 550 725 l 358 725 m 283 -244 q 190 -238 228 -244 q 114 -218 151 -232 l 114 -40 q 156 -51 136 -49 q 199 -54 176 -54 q 280 -40 254 -54 q 332 15 306 -26 l 35 658 l 308 658 l 463 271 l 613 658 l 885 658 l 642 63 q 502 -161 585 -78 q 283 -244 419 -244 z "},"ŷ":{"ha":892,"x_min":35,"x_max":885,"o":"m 168 725 l 383 1003 l 542 1003 l 757 725 l 568 725 l 463 875 l 363 725 l 168 725 m 283 -244 q 190 -238 228 -244 q 114 -218 151 -232 l 114 -40 q 156 -51 136 -49 q 199 -54 176 -54 q 280 -40 254 -54 q 332 15 306 -26 l 35 658 l 308 658 l 463 271 l 613 658 l 885 658 l 642 63 q 502 -161 585 -78 q 283 -244 419 -244 z "},"ÿ":{"ha":892,"x_min":35,"x_max":885,"o":"m 222 792 l 222 958 l 404 958 l 404 792 l 222 792 m 522 792 l 522 958 l 704 958 l 704 792 l 522 792 m 283 -244 q 190 -238 228 -244 q 114 -218 151 -232 l 114 -40 q 156 -51 136 -49 q 199 -54 176 -54 q 280 -40 254 -54 q 332 15 306 -26 l 35 658 l 308 658 l 463 271 l 613 658 l 885 658 l 642 63 q 502 -161 585 -78 q 283 -244 419 -244 z "},"ẏ":{"ha":892,"x_min":35,"x_max":885,"o":"m 372 763 l 372 929 l 553 929 l 553 763 l 372 763 m 283 -244 q 190 -238 228 -244 q 114 -218 151 -232 l 114 -40 q 156 -51 136 -49 q 199 -54 176 -54 q 280 -40 254 -54 q 332 15 306 -26 l 35 658 l 308 658 l 463 271 l 613 658 l 885 658 l 642 63 q 502 -161 585 -78 q 283 -244 419 -244 z "},"ỵ":{"ha":892,"x_min":35,"x_max":885,"o":"m 283 -244 q 190 -238 228 -244 q 114 -218 151 -232 l 114 -40 q 156 -51 136 -49 q 199 -54 176 -54 q 280 -40 254 -54 q 332 15 306 -26 l 35 658 l 308 658 l 463 271 l 613 658 l 885 658 l 642 63 q 502 -161 585 -78 q 283 -244 419 -244 m 613 -244 l 613 -78 l 793 -78 l 793 -244 l 613 -244 z "},"ỳ":{"ha":892,"x_min":35,"x_max":885,"o":"m 361 725 l 226 1011 l 431 1011 l 553 725 l 361 725 m 283 -244 q 190 -238 228 -244 q 114 -218 151 -232 l 114 -40 q 156 -51 136 -49 q 199 -54 176 -54 q 280 -40 254 -54 q 332 15 306 -26 l 35 658 l 308 658 l 463 271 l 613 658 l 885 658 l 642 63 q 502 -161 585 -78 q 283 -244 419 -244 z "},"ỷ":{"ha":892,"x_min":35,"x_max":885,"o":"m 363 725 l 363 838 q 460 857 435 842 q 485 899 485 872 q 401 944 485 944 q 359 941 382 944 q 319 933 336 938 l 319 1042 q 479 1061 381 1061 q 624 1022 574 1061 q 675 921 675 982 q 645 830 675 861 q 558 782 615 799 l 558 725 l 363 725 m 283 -244 q 190 -238 228 -244 q 114 -218 151 -232 l 114 -40 q 156 -51 136 -49 q 199 -54 176 -54 q 280 -40 254 -54 q 332 15 306 -26 l 35 658 l 308 658 l 463 271 l 613 658 l 885 658 l 642 63 q 502 -161 585 -78 q 283 -244 419 -244 z "},"ỹ":{"ha":892,"x_min":35,"x_max":885,"o":"m 597 736 q 508 751 551 736 q 425 780 465 765 q 346 794 385 794 q 269 780 303 794 q 210 740 235 765 l 210 904 q 265 937 229 924 q 342 950 301 950 q 429 935 389 950 q 510 906 469 921 q 593 892 550 892 q 669 908 638 892 q 718 947 701 924 l 718 782 q 671 750 704 764 q 597 736 638 736 m 283 -244 q 190 -238 228 -244 q 114 -218 151 -232 l 114 -40 q 156 -51 136 -49 q 199 -54 176 -54 q 280 -40 254 -54 q 332 15 306 -26 l 35 658 l 308 658 l 463 271 l 613 658 l 885 658 l 642 63 q 502 -161 585 -78 q 283 -244 419 -244 z "},"z":{"ha":688,"x_min":35,"x_max":653,"o":"m 35 0 l 35 143 l 311 458 l 44 458 l 44 658 l 643 658 l 643 511 l 375 200 l 653 200 l 653 0 l 35 0 z "},"ź":{"ha":688,"x_min":35,"x_max":653,"o":"m 231 725 l 353 1011 l 556 1011 l 422 725 l 231 725 m 35 0 l 35 143 l 311 458 l 44 458 l 44 658 l 643 658 l 643 511 l 375 200 l 653 200 l 653 0 l 35 0 z "},"ž":{"ha":688,"x_min":35,"x_max":653,"o":"m 254 725 l 39 1003 l 233 1003 l 333 851 l 439 1003 l 628 1003 l 413 725 l 254 725 m 35 0 l 35 143 l 311 458 l 44 458 l 44 658 l 643 658 l 643 511 l 375 200 l 653 200 l 653 0 l 35 0 z "},"ż":{"ha":688,"x_min":35,"x_max":653,"o":"m 256 763 l 256 929 l 436 929 l 436 763 l 256 763 m 35 0 l 35 143 l 311 458 l 44 458 l 44 658 l 643 658 l 643 511 l 375 200 l 653 200 l 653 0 l 35 0 z "},"ẓ":{"ha":688,"x_min":35,"x_max":653,"o":"m 35 0 l 35 143 l 311 458 l 44 458 l 44 658 l 643 658 l 643 511 l 375 200 l 653 200 l 653 0 l 35 0 m 239 -244 l 239 -78 l 419 -78 l 419 -244 l 239 -244 z "},"ﬁ":{"ha":807,"x_min":7,"x_max":744,"o":"m 92 0 l 92 465 l 7 465 l 7 658 l 92 658 l 92 697 q 126 829 92 769 q 228 925 160 889 q 394 961 296 961 q 589 932 514 961 l 589 756 q 543 767 572 763 q 489 772 514 772 q 353 692 353 772 l 353 658 l 744 658 l 744 0 l 483 0 l 483 465 l 353 465 l 353 0 l 92 0 z "},"ﬂ":{"ha":807,"x_min":7,"x_max":744,"o":"m 92 0 l 92 465 l 7 465 l 7 658 l 92 658 l 92 697 q 124 828 92 769 q 217 923 156 888 q 368 958 279 958 q 553 932 469 958 l 744 932 l 744 0 l 483 0 l 483 465 l 353 465 l 353 0 l 92 0 m 351 658 l 486 658 l 486 765 q 458 769 476 768 q 425 769 439 771 q 351 692 351 764 l 351 658 z "},"ª":{"ha":463,"x_min":35,"x_max":428,"o":"m 164 528 q 73 556 111 528 q 35 644 35 583 q 189 768 35 768 l 283 768 l 283 774 q 267 802 283 793 q 206 811 250 811 q 81 792 143 811 l 81 882 q 151 901 108 893 q 236 908 194 908 q 375 873 322 908 q 428 760 428 838 l 428 536 l 296 536 l 289 564 q 238 537 267 546 q 164 528 208 528 m 217 615 q 283 646 261 615 l 283 686 l 225 686 q 185 678 199 686 q 172 650 172 671 q 217 615 172 615 z "},"º":{"ha":499,"x_min":35,"x_max":464,"o":"m 249 528 q 35 718 35 528 q 249 908 35 908 q 464 718 464 908 q 249 528 464 528 m 249 636 q 297 656 282 636 q 311 718 311 675 q 297 780 311 761 q 249 799 282 799 q 201 780 215 799 q 186 718 186 761 q 201 656 186 675 q 249 636 215 636 z "},"ⁿ":{"ha":482,"x_min":42,"x_max":447,"o":"m 42 536 l 42 900 l 181 900 l 183 874 q 244 898 208 889 q 319 907 279 907 q 447 772 447 907 l 447 536 l 300 536 l 300 751 q 254 796 300 796 q 220 789 240 796 q 189 771 200 782 l 189 536 l 42 536 z "},"Δ":{"ha":883,"x_min":35,"x_max":849,"o":"m 35 0 l 35 138 l 333 894 l 547 894 l 849 136 l 849 0 l 35 0 m 282 199 l 597 199 l 440 594 l 282 199 z "},"Ω":{"ha":1040,"x_min":35,"x_max":1006,"o":"m 44 0 l 44 200 l 183 200 q 35 511 35 307 q 91 752 35 650 q 256 910 147 854 q 519 965 364 965 q 785 910 676 965 q 949 752 893 854 q 1006 511 1006 650 q 971 330 1006 407 q 856 200 936 253 l 996 200 l 996 0 l 567 0 l 567 208 q 699 331 658 261 q 739 496 739 400 q 683 676 739 610 q 519 743 626 743 q 358 676 414 743 q 301 496 301 610 q 342 331 301 400 q 472 208 382 261 l 472 0 l 44 0 z "},"μ":{"ha":846,"x_min":63,"x_max":783,"o":"m 63 -199 l 63 658 l 324 658 l 324 264 q 411 178 324 178 q 474 192 443 178 q 522 226 504 206 l 522 658 l 783 658 l 783 0 l 539 0 l 532 50 q 465 5 503 24 q 372 -14 426 -14 q 324 -4 346 -14 l 324 -199 l 63 -199 z "},"π":{"ha":960,"x_min":21,"x_max":939,"o":"m 769 -14 q 574 59 636 -14 q 511 271 511 132 l 511 458 l 367 458 l 367 0 l 106 0 l 106 458 l 21 458 l 21 658 l 857 658 l 857 458 l 772 458 l 772 285 q 793 226 772 243 q 857 208 814 208 q 939 222 897 208 l 939 17 q 867 -6 907 3 q 769 -14 828 -14 z "},"ก":{"ha":878,"x_min":35,"x_max":815,"o":"m 58 0 l 58 236 q 82 337 58 290 q 161 401 106 383 l 35 440 l 35 638 q 197 724 97 685 q 424 764 297 764 q 721 682 626 764 q 815 451 815 600 l 815 0 l 554 0 l 554 443 q 520 544 554 514 q 408 574 486 574 q 323 562 363 574 q 257 531 283 550 l 257 519 l 403 474 l 403 351 q 340 312 360 339 q 319 232 319 285 l 319 0 l 58 0 z "},"ข":{"ha":853,"x_min":35,"x_max":790,"o":"m 419 -14 q 151 63 249 -14 q 53 275 53 140 l 53 311 q 67 385 53 353 q 101 444 82 418 q 135 491 121 469 q 150 532 150 513 q 142 560 150 551 q 110 568 133 568 l 35 568 l 56 750 l 299 750 q 401 717 374 750 q 428 624 428 685 q 410 540 428 576 q 371 472 393 503 q 331 408 349 440 q 314 336 314 375 l 314 275 q 419 176 314 176 q 503 204 478 176 q 529 282 529 232 l 529 750 l 790 750 l 790 279 q 691 63 790 140 q 419 -14 592 -14 z "},"ฃ":{"ha":857,"x_min":35,"x_max":794,"o":"m 424 -14 q 155 51 253 -14 q 57 251 57 117 l 57 272 q 82 359 57 318 q 140 435 107 400 q 197 498 172 469 q 222 546 222 526 q 200 572 222 572 q 171 557 183 572 l 171 503 l 35 503 l 35 750 l 186 750 l 186 711 q 240 738 206 726 q 314 750 274 750 q 414 717 378 750 q 450 624 450 685 q 430 520 450 563 q 384 445 410 478 q 338 383 358 413 q 318 315 318 353 l 318 279 q 424 176 318 176 q 508 204 482 176 q 533 282 533 232 l 533 750 l 794 750 l 794 279 q 695 63 794 140 q 424 -14 596 -14 z "},"ค":{"ha":890,"x_min":63,"x_max":828,"o":"m 63 0 l 63 444 q 163 683 63 603 q 446 764 263 764 q 728 683 628 764 q 828 444 828 603 l 828 0 l 567 0 l 567 451 q 537 541 567 508 q 446 574 507 574 q 353 542 382 574 q 324 451 324 510 l 324 368 q 372 388 343 382 q 426 394 400 394 l 499 394 l 506 190 l 424 190 q 369 185 396 190 q 324 168 343 179 l 324 0 l 63 0 z "},"ฅ":{"ha":890,"x_min":63,"x_max":828,"o":"m 63 0 l 63 540 q 115 703 63 642 q 271 764 168 764 q 364 748 318 764 q 444 693 410 732 q 527 748 478 732 q 624 764 576 764 q 778 705 729 764 q 828 540 828 646 l 828 0 l 567 0 l 567 513 q 559 558 567 543 q 526 574 551 574 q 496 563 507 574 q 476 536 485 551 l 414 536 q 399 563 408 551 q 371 574 390 574 q 324 513 324 574 l 324 368 q 372 388 343 382 q 426 394 400 394 l 499 394 l 506 190 l 424 190 q 369 185 396 190 q 324 168 343 179 l 324 0 l 63 0 z "},"ฆ":{"ha":871,"x_min":35,"x_max":808,"o":"m 543 -14 q 411 6 469 -14 q 308 58 353 26 l 299 0 l 57 0 l 57 272 q 82 359 57 318 q 140 435 107 400 q 197 498 172 469 q 222 546 222 526 q 200 572 222 572 q 171 557 183 572 l 171 503 l 35 503 l 35 750 l 186 750 l 186 711 q 240 738 206 726 q 314 750 274 750 q 414 717 378 750 q 450 624 450 685 q 430 517 450 563 q 384 437 410 472 q 338 369 358 401 q 318 300 318 338 l 318 231 q 373 193 338 208 q 447 178 408 178 q 524 202 500 178 q 547 279 547 226 l 547 750 l 808 750 l 808 251 q 734 56 808 125 q 543 -14 660 -14 z "},"ง":{"ha":806,"x_min":-14,"x_max":771,"o":"m 372 -14 q 276 -8 329 -14 q 186 13 224 -1 l -14 511 l 242 511 l 376 176 q 471 237 438 183 q 504 396 504 290 q 472 516 504 486 q 365 546 439 546 l 313 546 l 313 750 l 418 750 q 679 661 588 750 q 771 397 771 572 q 720 163 771 254 q 580 29 669 72 q 372 -14 490 -14 z "},"จ":{"ha":801,"x_min":35,"x_max":767,"o":"m 390 -14 q 297 -6 343 -14 q 225 14 250 3 l 143 235 l 35 235 l 44 439 l 288 439 l 385 176 q 470 236 440 186 q 500 381 500 286 q 453 531 500 488 q 288 574 407 574 q 168 564 232 574 q 44 538 104 554 l 44 715 q 196 751 114 739 q 354 764 278 764 q 672 665 578 764 q 767 379 767 565 q 735 208 767 282 q 650 85 704 135 q 528 11 596 36 q 390 -14 461 -14 z "},"ฉ":{"ha":843,"x_min":35,"x_max":781,"o":"m 289 -14 q 108 51 175 -14 q 42 243 42 117 l 42 417 l 303 417 l 303 283 q 324 205 303 232 q 397 178 346 178 q 469 193 438 178 q 519 232 500 208 l 519 411 q 501 508 519 472 q 439 558 483 543 q 314 574 394 574 q 227 569 278 574 q 126 555 176 564 q 35 535 75 546 l 35 713 q 200 751 107 738 q 381 764 293 764 q 689 674 597 764 q 781 410 781 583 l 781 0 l 539 0 l 529 58 q 427 7 486 28 q 289 -14 368 -14 z "},"ช":{"ha":853,"x_min":35,"x_max":790,"o":"m 419 -14 q 151 63 249 -14 q 53 275 53 140 l 53 311 q 67 385 53 353 q 101 444 82 418 q 135 491 121 469 q 150 532 150 513 q 142 560 150 551 q 110 568 133 568 l 35 568 l 56 750 l 293 750 q 395 717 368 750 q 422 624 422 685 q 406 540 422 576 q 368 472 389 503 q 331 408 347 440 q 314 336 314 375 l 314 275 q 419 176 314 176 q 503 204 478 176 q 529 282 529 232 l 529 351 q 513 408 529 392 q 465 425 496 425 l 442 425 l 458 607 l 467 607 q 515 625 501 607 q 529 693 529 643 l 529 764 l 790 764 l 790 704 q 772 591 790 636 q 701 518 754 546 q 772 447 754 490 q 790 344 790 403 l 790 279 q 691 63 790 140 q 419 -14 592 -14 z "},"ซ":{"ha":857,"x_min":35,"x_max":794,"o":"m 424 -14 q 155 53 253 -14 q 57 251 57 121 l 57 272 q 82 359 57 318 q 140 435 107 400 q 197 498 172 469 q 222 546 222 526 q 200 572 222 572 q 171 557 183 572 l 171 503 l 35 503 l 35 750 l 186 750 l 186 711 q 240 738 206 726 q 314 750 274 750 q 411 715 378 750 q 444 624 444 679 q 426 519 444 563 q 381 442 407 475 q 337 378 356 408 q 318 310 318 347 l 318 275 q 424 176 318 176 q 508 204 482 176 q 533 282 533 232 l 533 351 q 517 408 533 392 q 469 425 500 425 l 446 425 l 463 607 l 471 607 q 519 625 506 607 q 533 693 533 643 l 533 764 l 794 764 l 794 704 q 776 591 794 636 q 706 518 758 546 q 776 447 758 490 q 794 344 794 403 l 794 279 q 695 63 794 140 q 424 -14 596 -14 z "},"ฌ":{"ha":1326,"x_min":35,"x_max":1264,"o":"m 1008 -14 q 881 6 935 -14 q 783 58 828 26 l 774 0 l 535 0 l 535 443 q 506 544 535 514 q 399 574 476 574 q 318 562 353 574 q 257 531 283 550 l 257 519 l 403 474 l 403 351 q 340 316 360 339 q 319 249 319 293 l 319 213 q 363 169 319 169 l 419 169 l 419 0 l 204 0 q 98 41 138 0 q 58 146 58 82 l 58 236 q 82 337 58 290 q 161 401 106 383 l 35 440 l 35 638 q 192 724 97 685 q 414 764 288 764 q 705 682 617 764 q 793 451 793 600 l 793 231 q 844 193 813 208 q 913 178 876 178 q 983 202 963 178 q 1003 279 1003 226 l 1003 750 l 1264 750 l 1264 251 q 1194 56 1264 125 q 1008 -14 1125 -14 z "},"ญ":{"ha":1349,"x_min":35,"x_max":1290,"o":"m 917 -112 q 745 -95 822 -112 q 613 -51 668 -78 l 613 124 q 706 89 650 103 q 818 68 761 75 q 915 61 875 61 q 1049 76 1015 61 q 1082 117 1082 92 q 1079 138 1082 126 q 1072 156 1076 150 q 997 135 1043 144 q 897 125 950 125 q 631 197 728 125 q 535 436 535 268 l 535 443 q 506 544 535 514 q 399 574 476 574 q 318 562 353 574 q 257 531 283 550 l 257 519 l 403 474 l 403 351 q 340 316 360 339 q 319 249 319 293 l 319 213 q 363 169 319 169 l 419 169 l 419 0 l 204 0 q 98 41 138 0 q 58 146 58 82 l 58 236 q 82 337 58 290 q 161 401 106 383 l 35 440 l 35 638 q 192 724 97 685 q 414 764 288 764 q 705 682 617 764 q 793 451 793 600 l 793 439 q 819 339 793 369 q 910 308 846 308 q 997 340 971 308 q 1024 440 1024 371 l 1024 750 l 1285 750 l 1285 458 q 1271 344 1285 394 q 1221 254 1257 293 q 1290 107 1290 206 q 1195 -51 1290 10 q 917 -112 1100 -112 z "},"ฎ":{"ha":919,"x_min":35,"x_max":857,"o":"m 207 -276 l 207 -83 q 314 -50 258 -61 q 440 -39 369 -39 q 528 -46 482 -39 q 596 -64 574 -53 l 596 443 q 562 544 596 514 q 450 574 528 574 q 365 562 404 574 q 299 531 325 550 l 299 519 l 444 474 l 444 351 q 392 314 404 338 q 379 242 379 290 l 379 165 q 335 42 379 83 q 213 0 292 0 l 35 0 l 35 169 l 71 169 q 113 213 113 169 l 113 249 q 131 341 113 301 q 203 401 149 381 l 76 440 l 76 638 q 239 724 139 685 q 465 764 339 764 q 763 682 668 764 q 857 451 857 600 l 857 -269 l 618 -269 q 532 -239 578 -249 q 424 -229 486 -229 q 310 -242 368 -229 q 207 -276 251 -256 z "},"ฏ":{"ha":919,"x_min":35,"x_max":857,"o":"m 614 -275 q 496 -256 546 -275 q 417 -211 446 -237 q 361 -253 396 -237 q 272 -269 326 -269 l 144 -269 l 157 -82 l 238 -82 q 291 -69 274 -82 q 318 -31 308 -57 l 475 -31 q 496 -70 482 -56 q 538 -85 510 -85 q 596 -28 596 -85 l 596 443 q 562 544 596 514 q 450 574 528 574 q 365 562 404 574 q 299 531 325 550 l 299 519 l 444 474 l 444 351 q 392 314 404 338 q 379 242 379 290 l 379 165 q 335 42 379 83 q 213 0 292 0 l 35 0 l 35 169 l 71 169 q 113 213 113 169 l 113 249 q 131 341 113 301 q 203 401 149 381 l 76 440 l 76 638 q 239 724 139 685 q 465 764 339 764 q 763 682 668 764 q 857 451 857 600 l 857 -35 q 794 -208 857 -140 q 614 -275 732 -275 z "},"ฐ":{"ha":864,"x_min":35,"x_max":829,"o":"m 390 -14 q 297 -6 343 -14 q 225 14 250 3 l 143 235 l 35 235 l 44 439 l 288 439 l 385 176 q 470 236 440 186 q 500 381 500 286 q 453 531 500 488 q 288 574 407 574 q 168 564 232 574 q 44 538 104 554 l 44 715 q 196 751 114 739 q 354 764 278 764 q 431 760 394 764 q 500 750 468 757 l 829 750 l 817 560 l 729 560 q 757 476 747 522 q 767 379 767 431 q 735 208 767 282 q 650 85 704 135 q 528 11 596 36 q 390 -14 461 -14 m 504 -301 q 385 -281 436 -301 q 304 -235 333 -261 q 249 -278 283 -261 q 160 -296 214 -296 l 44 -296 l 57 -118 l 138 -118 q 218 -61 204 -118 l 382 -61 q 458 -121 396 -121 q 531 -64 531 -121 l 531 -36 l 735 -36 l 735 -61 q 678 -234 735 -167 q 504 -301 622 -301 z "},"ฑ":{"ha":872,"x_min":35,"x_max":810,"o":"m 92 0 l 92 238 q 111 333 92 288 q 157 417 131 378 q 203 488 183 456 q 222 546 222 521 q 200 572 222 572 q 171 557 183 572 l 171 503 l 35 503 l 35 750 l 186 750 l 186 711 q 235 738 206 726 q 304 750 264 750 q 359 741 332 750 q 404 714 386 732 q 476 749 433 735 q 568 764 519 764 q 810 507 810 764 l 810 0 l 549 0 l 549 504 q 538 556 549 540 q 494 572 526 572 q 470 566 482 572 q 449 551 458 560 q 434 466 449 503 q 401 396 419 429 q 367 325 382 363 q 353 236 353 288 l 353 0 l 92 0 z "},"ฒ":{"ha":1374,"x_min":35,"x_max":1311,"o":"m 360 -14 q 192 22 265 -14 q 76 138 118 58 q 35 350 35 218 q 102 659 35 554 q 304 764 169 764 q 396 746 360 764 q 460 693 432 728 q 541 746 492 728 q 640 764 590 764 q 760 736 717 764 q 822 660 803 708 q 840 550 840 613 l 840 231 q 892 193 860 208 q 960 178 924 178 q 1030 202 1010 178 q 1050 279 1050 226 l 1050 750 l 1311 750 l 1311 251 q 1242 56 1311 125 q 1056 -14 1172 -14 q 928 6 982 -14 q 831 58 875 26 l 821 0 l 582 0 l 582 499 q 574 555 582 536 q 539 574 567 574 q 492 529 506 574 l 414 529 q 396 562 404 550 q 367 574 388 574 q 324 542 338 574 q 306 460 310 511 q 301 350 301 410 q 330 215 301 253 q 422 176 358 176 q 467 179 444 176 q 506 188 489 182 l 506 11 q 444 -7 479 0 q 360 -14 408 -14 z "},"ณ":{"ha":1329,"x_min":35,"x_max":1267,"o":"m 790 -14 q 604 56 674 -14 q 535 251 535 125 l 535 443 q 506 544 535 514 q 399 574 476 574 q 318 562 353 574 q 257 531 283 550 l 257 519 l 403 474 l 403 351 q 340 316 360 339 q 319 249 319 293 l 319 213 q 363 169 319 169 l 419 169 l 419 0 l 204 0 q 98 41 138 0 q 58 146 58 82 l 58 236 q 82 337 58 290 q 161 401 106 383 l 35 440 l 35 638 q 192 724 97 685 q 414 764 288 764 q 705 682 617 764 q 793 451 793 600 l 793 279 q 815 202 794 226 q 885 178 835 178 q 953 193 921 178 q 1006 231 986 208 l 1006 750 l 1267 750 l 1267 0 l 1025 0 l 1015 58 q 918 6 972 26 q 790 -14 864 -14 z "},"ด":{"ha":917,"x_min":35,"x_max":854,"o":"m 360 -14 q 192 22 265 -14 q 76 138 118 58 q 35 350 35 218 q 139 657 35 550 q 457 764 243 764 q 685 720 597 764 q 813 606 772 676 q 854 456 854 536 l 854 0 l 593 0 l 593 432 q 565 535 593 497 q 451 574 538 574 q 337 521 372 574 q 301 350 301 468 q 330 215 301 253 q 422 176 358 176 q 467 179 444 176 q 506 188 489 182 l 506 11 q 444 -7 479 0 q 360 -14 408 -14 z "},"ต":{"ha":917,"x_min":35,"x_max":854,"o":"m 360 -14 q 192 22 265 -14 q 76 138 118 58 q 35 350 35 218 q 103 659 35 554 q 307 764 172 764 q 400 746 363 764 q 465 693 438 728 q 548 746 497 728 q 649 764 599 764 q 808 703 763 764 q 854 550 854 643 l 854 0 l 593 0 l 593 499 q 584 555 593 536 q 547 574 575 574 q 497 529 511 574 l 419 529 q 400 562 410 550 q 369 574 390 574 q 326 542 340 574 q 306 460 311 511 q 301 350 301 410 q 330 215 301 253 q 422 176 358 176 q 467 179 444 176 q 506 188 489 182 l 506 11 q 444 -7 479 0 q 360 -14 408 -14 z "},"ถ":{"ha":878,"x_min":35,"x_max":815,"o":"m 204 0 q 98 41 138 0 q 58 146 58 82 l 58 236 q 82 337 58 290 q 161 401 106 383 l 35 440 l 35 638 q 197 724 97 685 q 424 764 297 764 q 721 682 626 764 q 815 451 815 600 l 815 0 l 554 0 l 554 443 q 520 544 554 514 q 408 574 486 574 q 323 562 363 574 q 257 531 283 550 l 257 519 l 403 474 l 403 351 q 340 316 360 339 q 319 249 319 293 l 319 213 q 363 169 319 169 l 419 169 l 419 0 l 204 0 z "},"ท":{"ha":876,"x_min":63,"x_max":814,"o":"m 63 0 l 63 750 l 304 750 l 314 692 q 419 744 358 724 q 554 764 481 764 q 742 695 671 764 q 814 499 814 626 l 814 0 l 553 0 l 553 471 q 529 548 553 524 q 453 572 506 572 q 378 557 414 572 q 324 519 343 542 l 324 0 l 63 0 z "},"ธ":{"ha":764,"x_min":35,"x_max":729,"o":"m 389 -14 q 199 4 289 -14 q 47 49 108 22 l 47 311 l 274 311 l 274 185 q 321 174 292 178 q 375 169 350 169 q 461 185 433 169 q 489 239 489 200 q 463 285 489 269 q 385 314 436 301 q 258 344 333 326 q 96 412 157 369 q 35 544 35 454 q 120 706 35 647 q 394 764 206 764 q 567 753 489 764 q 688 729 646 743 l 688 540 q 615 562 657 553 q 526 575 572 571 q 442 579 481 579 q 372 578 406 579 q 316 569 338 576 q 294 542 294 561 q 328 510 294 522 q 414 488 363 497 q 518 463 465 478 q 676 386 624 435 q 729 235 729 338 q 640 49 729 113 q 389 -14 550 -14 z "},"น":{"ha":876,"x_min":63,"x_max":814,"o":"m 322 -14 q 134 56 206 -14 q 63 251 63 125 l 63 750 l 324 750 l 324 279 q 347 202 324 226 q 424 178 371 178 q 499 193 464 178 q 553 231 533 208 l 553 750 l 814 750 l 814 0 l 572 0 l 563 58 q 458 6 519 26 q 322 -14 396 -14 z "},"บ":{"ha":894,"x_min":63,"x_max":832,"o":"m 447 -14 q 245 22 332 -14 q 110 133 158 58 q 63 319 63 207 l 63 750 l 324 750 l 324 308 q 353 208 324 239 q 447 176 383 176 q 542 208 513 176 q 571 308 571 239 l 571 750 l 832 750 l 832 319 q 784 133 832 207 q 649 22 736 58 q 447 -14 563 -14 z "},"ป":{"ha":894,"x_min":63,"x_max":832,"o":"m 447 -14 q 245 22 332 -14 q 110 133 158 58 q 63 319 63 207 l 63 750 l 324 750 l 324 308 q 353 208 324 239 q 447 176 383 176 q 542 208 513 176 q 571 308 571 239 l 571 972 l 832 972 l 832 319 q 784 133 832 207 q 649 22 736 58 q 447 -14 563 -14 z "},"ผ":{"ha":903,"x_min":63,"x_max":840,"o":"m 63 0 l 63 615 q 92 711 63 672 q 181 750 121 750 l 397 750 l 407 575 l 340 575 q 292 524 292 575 l 292 317 l 410 521 l 494 521 l 611 317 l 611 750 l 840 750 l 840 0 l 613 0 l 451 293 l 290 0 l 63 0 z "},"ฝ":{"ha":903,"x_min":63,"x_max":840,"o":"m 63 0 l 63 615 q 92 711 63 672 q 181 750 121 750 l 397 750 l 407 575 l 340 575 q 292 524 292 575 l 292 317 l 410 521 l 494 521 l 611 317 l 611 972 l 840 972 l 840 0 l 613 0 l 451 293 l 290 0 l 63 0 z "},"พ":{"ha":1026,"x_min":21,"x_max":1006,"o":"m 185 0 l 21 750 l 254 750 l 340 347 l 411 606 l 411 750 l 593 750 l 690 347 l 774 750 l 1006 750 l 840 0 l 624 0 l 517 338 l 401 0 l 185 0 z "},"ฟ":{"ha":1026,"x_min":21,"x_max":1036,"o":"m 185 0 l 21 750 l 254 750 l 340 347 l 411 606 l 411 750 l 593 750 l 690 347 l 804 972 l 1036 972 l 840 0 l 624 0 l 517 338 l 401 0 l 185 0 z "},"ภ":{"ha":919,"x_min":35,"x_max":857,"o":"m 35 0 l 35 169 l 71 169 q 113 213 113 169 l 113 249 q 131 341 113 301 q 203 401 149 381 l 76 440 l 76 638 q 239 724 139 685 q 465 764 339 764 q 763 682 668 764 q 857 451 857 600 l 857 0 l 596 0 l 596 443 q 562 544 596 514 q 450 574 528 574 q 365 562 404 574 q 299 531 325 550 l 299 519 l 444 474 l 444 351 q 392 314 404 338 q 379 242 379 290 l 379 165 q 335 42 379 83 q 213 0 292 0 l 35 0 z "},"ม":{"ha":876,"x_min":63,"x_max":814,"o":"m 549 -14 q 417 6 475 -14 q 314 58 358 26 l 304 0 l 63 0 l 63 750 l 324 750 l 324 231 q 378 193 343 208 q 453 178 414 178 q 529 202 506 178 q 553 279 553 226 l 553 750 l 814 750 l 814 251 q 740 56 814 125 q 549 -14 665 -14 z "},"ย":{"ha":883,"x_min":42,"x_max":821,"o":"m 433 -14 q 147 49 251 -14 q 42 239 42 113 q 61 325 42 286 q 119 389 81 364 q 66 447 88 408 q 44 539 44 486 q 119 708 44 653 q 321 764 194 764 q 406 758 369 764 q 468 742 442 751 l 468 564 q 386 574 429 574 q 331 563 351 574 q 311 522 311 553 q 331 480 311 490 q 385 469 350 469 l 454 469 l 463 303 l 383 303 q 308 239 308 303 q 335 192 308 208 q 429 176 361 176 q 560 279 560 176 l 560 750 l 821 750 l 821 289 q 719 60 821 133 q 433 -14 617 -14 z "},"ร":{"ha":699,"x_min":35,"x_max":664,"o":"m 331 -14 q 167 -1 244 -14 q 44 29 89 11 l 44 228 q 160 191 96 206 q 279 176 224 176 q 372 185 347 176 q 397 218 397 194 q 358 265 397 249 q 228 314 318 281 q 83 398 132 350 q 35 532 35 446 q 117 699 35 635 q 368 764 200 764 q 509 753 438 764 q 622 731 581 743 l 622 535 q 521 564 578 554 q 421 574 464 574 q 335 565 368 574 q 301 528 301 557 q 344 485 301 497 q 464 442 388 472 q 589 381 546 411 q 648 313 632 351 q 664 213 664 274 q 578 47 664 107 q 331 -14 492 -14 z "},"ฤ":{"ha":878,"x_min":35,"x_max":815,"o":"m 554 -222 l 554 443 q 520 544 554 514 q 408 574 486 574 q 323 562 363 574 q 257 531 283 550 l 257 519 l 403 474 l 403 351 q 340 316 360 339 q 319 249 319 293 l 319 213 q 363 169 319 169 l 419 169 l 419 0 l 204 0 q 98 41 138 0 q 58 146 58 82 l 58 236 q 82 337 58 290 q 161 401 106 383 l 35 440 l 35 638 q 197 724 97 685 q 424 764 297 764 q 721 682 626 764 q 815 451 815 600 l 815 -222 l 554 -222 z "},"ล":{"ha":840,"x_min":35,"x_max":778,"o":"m 290 -14 q 160 10 218 -14 q 69 88 103 35 q 35 228 35 142 q 112 410 35 347 q 328 472 189 472 l 517 472 l 517 492 q 363 574 517 574 q 106 535 233 574 l 106 715 q 251 751 167 738 q 414 764 335 764 q 685 688 592 764 q 778 456 778 613 l 778 0 l 517 0 l 517 294 l 388 294 q 318 281 343 294 q 293 226 293 267 q 313 174 293 188 q 375 160 333 160 q 446 168 415 160 l 446 7 q 381 -8 418 -3 q 290 -14 343 -14 z "},"ฦ":{"ha":919,"x_min":35,"x_max":857,"o":"m 596 -222 l 596 443 q 562 544 596 514 q 450 574 528 574 q 365 562 404 574 q 299 531 325 550 l 299 519 l 444 474 l 444 351 q 392 314 404 338 q 379 242 379 290 l 379 165 q 335 42 379 83 q 213 0 292 0 l 35 0 l 35 169 l 71 169 q 113 213 113 169 l 113 249 q 131 341 113 301 q 203 401 149 381 l 76 440 l 76 638 q 239 724 139 685 q 465 764 339 764 q 763 682 668 764 q 857 451 857 600 l 857 -222 l 596 -222 z "},"ว":{"ha":746,"x_min":35,"x_max":711,"o":"m 308 -14 q 163 -2 232 -14 q 35 36 93 10 l 35 226 q 138 190 82 204 q 244 176 193 176 q 397 226 350 176 q 444 375 444 275 q 397 524 444 474 q 246 574 350 574 q 138 563 193 574 q 36 529 83 551 l 36 714 q 165 751 94 738 q 310 764 235 764 q 610 669 508 764 q 711 375 711 575 q 609 80 711 174 q 308 -14 507 -14 z "},"ศ":{"ha":935,"x_min":63,"x_max":900,"o":"m 63 0 l 63 444 q 163 683 63 603 q 446 764 263 764 q 517 760 483 764 q 582 750 551 757 l 900 750 l 888 560 l 801 560 q 822 501 815 536 q 828 433 828 465 l 828 0 l 567 0 l 567 451 q 537 541 567 508 q 446 574 507 574 q 353 542 382 574 q 324 451 324 510 l 324 368 q 372 388 343 382 q 426 394 400 394 l 499 394 l 506 190 l 424 190 q 369 185 396 190 q 324 168 343 179 l 324 0 l 63 0 z "},"ษ":{"ha":915,"x_min":63,"x_max":915,"o":"m 447 -14 q 245 22 332 -14 q 110 133 158 58 q 63 319 63 207 l 63 750 l 324 750 l 324 308 q 353 208 324 239 q 447 176 383 176 q 542 208 513 176 q 571 308 571 239 l 571 369 l 450 369 l 450 574 l 571 574 l 571 750 l 832 750 l 832 574 l 915 574 l 899 369 l 832 369 l 832 319 q 784 133 832 207 q 649 22 736 58 q 447 -14 563 -14 z "},"ส":{"ha":867,"x_min":35,"x_max":846,"o":"m 290 -14 q 160 10 218 -14 q 69 88 103 35 q 35 228 35 142 q 112 410 35 347 q 328 472 189 472 l 517 472 l 517 492 q 363 574 517 574 q 106 535 233 574 l 106 715 q 251 751 167 738 q 414 764 335 764 q 485 760 451 764 q 550 750 519 757 l 846 750 l 833 560 l 754 560 q 772 503 765 538 q 778 438 778 469 l 778 0 l 517 0 l 517 294 l 388 294 q 318 281 343 294 q 293 226 293 267 q 313 174 293 188 q 375 160 333 160 q 446 168 415 160 l 446 7 q 381 -8 418 -3 q 290 -14 343 -14 z "},"ห":{"ha":861,"x_min":63,"x_max":800,"o":"m 63 0 l 63 750 l 324 750 l 324 547 l 447 547 q 519 572 499 547 q 539 643 539 596 l 539 750 l 800 750 l 800 626 q 780 519 800 567 q 711 449 760 472 q 778 384 760 426 q 797 285 797 342 l 797 0 l 536 0 l 536 247 q 516 321 536 299 q 444 343 496 343 l 324 343 l 324 0 l 63 0 z "},"ฬ":{"ha":1115,"x_min":63,"x_max":1081,"o":"m 226 0 l 63 750 l 296 750 l 382 333 l 460 550 l 460 694 l 628 694 l 732 333 l 778 597 q 778 682 789 658 q 724 706 768 706 l 682 706 l 708 858 l 764 858 q 825 876 810 858 q 850 935 840 893 l 858 972 l 1081 972 l 1067 904 q 961 774 1044 797 q 1003 607 1028 732 l 882 0 l 665 0 l 558 289 l 443 0 l 226 0 z "},"อ":{"ha":832,"x_min":42,"x_max":797,"o":"m 382 -14 q 192 4 283 -14 q 42 49 101 22 l 42 447 l 392 447 l 401 276 l 300 276 l 300 188 q 379 176 335 176 q 498 221 465 176 q 531 371 531 265 q 508 495 531 451 q 439 556 486 539 q 315 574 392 574 q 186 564 257 574 q 50 535 115 554 l 50 715 q 213 751 122 739 q 378 764 303 764 q 697 665 596 764 q 797 371 797 565 q 699 84 797 182 q 382 -14 601 -14 z "},"ฮ":{"ha":888,"x_min":42,"x_max":853,"o":"m 382 -14 q 192 4 283 -14 q 42 49 101 22 l 42 447 l 392 447 l 401 276 l 300 276 l 300 188 q 379 176 335 176 q 498 221 465 176 q 531 371 531 265 q 508 495 531 451 q 439 556 486 539 q 315 574 392 574 q 186 564 257 574 q 50 535 115 554 l 50 715 q 213 751 122 739 q 378 764 303 764 q 455 760 418 764 q 524 750 492 757 l 853 750 l 840 560 l 756 560 q 788 474 779 522 q 797 371 797 425 q 699 84 797 182 q 382 -14 601 -14 z "},"ะ":{"ha":451,"x_min":35,"x_max":417,"o":"m 35 421 l 35 665 l 232 665 l 232 599 l 417 599 l 408 421 l 35 421 m 35 61 l 35 306 l 232 306 l 232 239 l 417 239 l 408 61 l 35 61 z "},"า":{"ha":622,"x_min":0,"x_max":560,"o":"m 299 0 l 299 446 q 272 544 299 515 q 179 574 246 574 q 85 563 131 574 q 0 536 39 551 l 0 714 q 107 749 42 735 q 238 764 172 764 q 483 689 407 764 q 560 465 560 614 l 560 0 l 299 0 z "},"ำ":{"ha":622,"x_min":-385,"x_max":560,"o":"m -194 797 q -290 820 -247 797 q -359 883 -333 843 q -385 976 -385 924 q -359 1069 -385 1029 q -290 1133 -333 1110 q -194 1156 -247 1156 q -60 1106 -115 1156 q -6 976 -6 1056 q -60 847 -6 897 q -194 797 -115 797 m -194 924 q -158 940 -174 924 q -142 976 -142 956 q -158 1013 -142 997 q -194 1029 -174 1029 q -233 1013 -217 1029 q -249 976 -249 997 q -233 940 -249 956 q -194 924 -217 924 m 299 0 l 299 446 q 272 544 299 515 q 179 574 246 574 q 85 563 131 574 q 0 536 39 551 l 0 714 q 107 749 42 735 q 238 764 172 764 q 483 689 407 764 q 560 465 560 614 l 560 0 l 299 0 z "},"เ":{"ha":458,"x_min":63,"x_max":424,"o":"m 208 0 q 102 41 142 0 q 63 146 63 82 l 63 750 l 324 750 l 324 213 q 367 169 324 169 l 424 169 l 424 0 l 208 0 z "},"แ":{"ha":838,"x_min":63,"x_max":803,"o":"m 601 0 q 495 41 535 0 q 456 146 456 82 l 456 750 l 717 750 l 717 213 q 760 169 717 169 l 803 169 l 803 0 l 601 0 m 208 0 q 102 41 142 0 q 63 146 63 82 l 63 750 l 324 750 l 324 213 q 367 169 324 169 l 410 169 l 410 0 l 208 0 z "},"โ":{"ha":475,"x_min":-28,"x_max":475,"o":"m 246 0 q 140 41 179 0 q 100 146 100 82 l 100 775 q 69 891 100 849 q -28 951 38 933 l -28 1103 l 475 1103 l 475 933 l 299 933 q 361 785 361 888 l 361 213 q 404 169 361 169 l 461 169 l 461 0 l 246 0 z "},"ใ":{"ha":436,"x_min":-35,"x_max":443,"o":"m 186 0 q 80 41 119 0 q 40 146 40 82 l 40 588 q 61 685 40 644 q 108 758 82 726 q 156 815 135 789 q 176 867 176 840 q 106 917 176 917 q 32 906 68 917 q -35 876 -4 896 l -35 1049 q 207 1107 65 1107 q 381 1063 319 1107 q 443 932 443 1018 q 422 838 443 878 q 372 760 400 797 q 323 683 344 724 q 301 589 301 643 l 301 213 q 344 169 301 169 l 401 169 l 401 0 l 186 0 z "},"ไ":{"ha":446,"x_min":-35,"x_max":453,"o":"m 222 0 q 116 41 156 0 q 76 146 76 82 l 76 764 q 93 863 76 817 q 140 933 110 910 l -35 933 l -35 1103 l 453 1103 l 453 951 q 363 881 389 933 q 338 751 338 829 l 338 213 q 381 169 338 169 l 438 169 l 438 0 l 222 0 z "},"ๅ":{"ha":622,"x_min":0,"x_max":560,"o":"m 299 -222 l 299 446 q 272 544 299 515 q 179 574 246 574 q 85 563 131 574 q 0 536 39 551 l 0 714 q 107 749 42 735 q 238 764 172 764 q 483 689 407 764 q 560 465 560 614 l 560 -222 l 299 -222 z "},"ℊ":{"ha":843,"x_min":35,"x_max":781,"o":"m 340 -244 q 281 -242 318 -244 q 207 -237 243 -240 q 151 -231 171 -233 l 151 -44 q 224 -57 179 -51 q 300 -62 268 -62 q 467 -44 415 -62 q 519 22 519 -25 l 519 38 q 442 6 489 19 q 350 -8 396 -8 q 188 22 258 -8 q 76 124 117 53 q 35 315 35 196 q 76 512 35 432 q 190 632 118 592 q 353 672 263 672 q 460 653 411 672 q 542 607 510 635 l 554 658 l 781 658 l 781 67 q 741 -94 781 -24 q 606 -205 701 -165 q 340 -244 510 -244 m 417 181 q 519 215 481 181 l 519 443 q 476 473 499 463 q 422 483 453 483 q 329 444 357 483 q 301 317 301 404 q 330 208 301 235 q 417 181 358 181 z "},"₀":{"ha":514,"x_min":35,"x_max":479,"o":"m 257 -178 q 89 -125 143 -178 q 35 22 35 -72 q 88 174 35 121 q 257 228 140 228 q 426 174 374 228 q 479 22 479 121 q 426 -125 479 -72 q 257 -178 372 -178 m 257 -58 q 303 -39 290 -58 q 317 22 317 -19 q 304 88 317 67 q 257 108 292 108 q 210 88 222 108 q 197 22 197 67 q 210 -39 197 -19 q 257 -58 222 -58 z "},"₁":{"ha":308,"x_min":35,"x_max":301,"o":"m 115 -167 l 115 53 l 35 38 l 35 175 l 301 228 l 301 -167 l 115 -167 z "},"₂":{"ha":425,"x_min":35,"x_max":390,"o":"m 35 -167 l 35 -94 q 76 -49 56 -67 q 126 -10 97 -32 q 182 35 168 22 q 196 65 196 47 q 138 99 196 99 q 90 92 115 99 q 42 75 64 85 l 42 200 q 116 219 68 210 q 211 228 164 228 q 342 194 297 228 q 388 107 388 160 q 374 48 388 71 q 332 -1 360 25 q 307 -23 317 -15 q 283 -43 297 -31 l 390 -43 l 390 -167 l 35 -167 z "},"₃":{"ha":431,"x_min":35,"x_max":396,"o":"m 194 -178 q 143 -175 175 -178 q 81 -167 111 -172 q 35 -157 50 -162 l 35 -54 q 91 -71 61 -65 q 144 -76 121 -76 q 211 -47 211 -76 q 157 -18 211 -18 l 93 -18 l 100 69 l 154 69 q 204 99 204 69 q 142 124 204 124 q 88 117 115 124 q 40 101 60 111 l 40 206 q 110 221 64 214 q 194 228 156 228 q 343 194 297 228 q 389 111 389 160 q 347 25 389 54 q 396 -56 396 7 q 194 -178 396 -178 z "},"₄":{"ha":408,"x_min":7,"x_max":401,"o":"m 185 -167 l 185 -108 l 7 -108 l 7 1 l 186 228 l 361 228 l 361 8 l 401 8 l 401 -108 l 361 -108 l 361 -167 l 185 -167 m 157 8 l 232 8 l 232 106 l 157 8 z "}}}
